<svg xmlns="http://www.w3.org/2000/svg" xmlns:xlink="http://www.w3.org/1999/xlink" viewBox="0 0 3840 2160" width="3840" height="2160" preserveAspectRatio="xMidYMid meet" style="width: 100%; height: 100%; transform: translate3d(0px, 0px, 0px); content-visibility: visible;"><defs><clipPath id="__lottie_element_121653"><rect width="3840" height="2160" x="0" y="0"></rect></clipPath></defs><g clip-path="url(#__lottie_element_121653)"><g transform="matrix(0.5,0,0,0.5,420,176)" opacity="1" style="display: block;"><g opacity="1" transform="matrix(1,0,0,1,3265.820068359375,2220.52392578125)"><path fill="rgb(212,226,241)" fill-opacity="1" d=" M1130.1810302734375,1377.31005859375 C1130.1810302734375,1377.31005859375 -1202.093994140625,1377.31005859375 -1202.093994140625,1377.31005859375 C-1950.199951171875,1377.31005859375 -2485.0380859375,641.4299926757812 -2240.39990234375,-65.5459976196289 C-2118.1650390625,-418.7929992675781 -1827.594970703125,-667.447998046875 -1294.2349853515625,-682.843994140625 C-1049.3699951171875,-679.9580078125 -817.4520263671875,-608.6380004882812 -596.385009765625,-714.2440185546875 C-490.4289855957031,-764.8280029296875 192.77699279785156,-1377.31005859375 931.1790161132812,-1350.3699951171875 C1657.114990234375,-1350.3699951171875 2485.0380859375,-724.4409790039062 2276.241943359375,424.5610046386719 C2181.787109375,944.3389892578125 1658.470947265625,1377.31005859375 1130.1810302734375,1377.31005859375z"></path></g></g><g transform="matrix(0.5,0,0,0.5,420.0003662109375,175.99951171875)" opacity="1" style="display: block;"><g opacity="1" transform="matrix(1,0,0,1,3268.501953125,2790.695068359375)"><path fill="rgb(32,43,86)" fill-opacity="1" d=" M152.09300231933594,738.8619995117188 C152.09300231933594,738.8619995117188 -152.09300231933594,738.8619995117188 -152.09300231933594,738.8619995117188 C-152.09300231933594,738.8619995117188 -152.09300231933594,-738.8619995117188 -152.09300231933594,-738.8619995117188 C-152.09300231933594,-738.8619995117188 152.09300231933594,-738.8619995117188 152.09300231933594,-738.8619995117188 C152.09300231933594,-738.8619995117188 152.09300231933594,738.8619995117188 152.09300231933594,738.8619995117188z"></path></g><g opacity="1" transform="matrix(1,0,0,1,3268.501953125,3529.555908203125)"><path fill="rgb(41,52,98)" fill-opacity="1" d=" M615.676025390625,68.27799987792969 C615.676025390625,68.27799987792969 -615.677001953125,68.27799987792969 -615.677001953125,68.27799987792969 C-646.6060180664062,68.27799987792969 -662.35400390625,31.1200008392334 -640.844970703125,8.894000053405762 C-640.844970703125,8.894000053405762 -620.3090209960938,-12.32699966430664 -620.3090209960938,-12.32699966430664 C-585.7030029296875,-48.0880012512207 -538.0679931640625,-68.27799987792969 -488.30499267578125,-68.27799987792969 C-488.30499267578125,-68.27799987792969 488.3039855957031,-68.27799987792969 488.3039855957031,-68.27799987792969 C538.0679931640625,-68.27799987792969 585.7009887695312,-48.0880012512207 620.3079833984375,-12.32699966430664 C620.3079833984375,-12.32699966430664 640.844970703125,8.894000053405762 640.844970703125,8.894000053405762 C662.35400390625,31.1200008392334 646.60498046875,68.27799987792969 615.676025390625,68.27799987792969z"></path></g><g opacity="1" transform="matrix(1,0,0,1,3270.153076171875,2234.48193359375)"><path fill="rgb(41,52,98)" fill-opacity="1" d=" M1657.083984375,944.875 C1657.083984375,944.875 -1657.0830078125,944.875 -1657.0830078125,944.875 C-1683.032958984375,944.875 -1704.0699462890625,923.8389892578125 -1704.0699462890625,897.8889770507812 C-1704.0699462890625,897.8889770507812 -1704.0699462890625,-897.8889770507812 -1704.0699462890625,-897.8889770507812 C-1704.0699462890625,-923.8389892578125 -1683.032958984375,-944.875 -1657.0830078125,-944.875 C-1657.0830078125,-944.875 1657.083984375,-944.875 1657.083984375,-944.875 C1683.0340576171875,-944.875 1704.0699462890625,-923.8389892578125 1704.0699462890625,-897.8889770507812 C1704.0699462890625,-897.8889770507812 1704.0699462890625,897.8889770507812 1704.0699462890625,897.8889770507812 C1704.0699462890625,923.8389892578125 1683.0340576171875,944.875 1657.083984375,944.875z"></path></g><g opacity="1" transform="matrix(1,0,0,1,3268.501953125,2184.926025390625)"><path fill="rgb(236,241,247)" fill-opacity="1" d=" M1610.5419921875,837.89501953125 C1610.5419921875,837.89501953125 -1610.541015625,837.89501953125 -1610.541015625,837.89501953125 C-1634.8570556640625,837.89501953125 -1654.5689697265625,818.1829833984375 -1654.5689697265625,793.8679809570312 C-1654.5689697265625,793.8679809570312 -1654.5689697265625,-793.8660278320312 -1654.5689697265625,-793.8660278320312 C-1654.5689697265625,-818.1820068359375 -1634.8570556640625,-837.8939819335938 -1610.541015625,-837.8939819335938 C-1610.541015625,-837.8939819335938 1610.5419921875,-837.8939819335938 1610.5419921875,-837.8939819335938 C1634.8570556640625,-837.8939819335938 1654.5689697265625,-818.1820068359375 1654.5689697265625,-793.8660278320312 C1654.5689697265625,-793.8660278320312 1654.5689697265625,793.8679809570312 1654.5689697265625,793.8679809570312 C1654.5689697265625,818.1829833984375 1634.8570556640625,837.89501953125 1610.5419921875,837.89501953125z"></path></g><g opacity="1" transform="matrix(1,0,0,1,2441.217041015625,2554.1279296875)"><path fill="rgb(166,193,219)" fill-opacity="1" d=" M419.73199462890625,327.75299072265625 C419.73199462890625,327.75299072265625 -419.73199462890625,327.75299072265625 -419.73199462890625,327.75299072265625 C-461.9200134277344,327.75299072265625 -496.1199951171875,293.5530090332031 -496.1199951171875,251.36500549316406 C-496.1199951171875,251.36500549316406 -496.1199951171875,-251.36500549316406 -496.1199951171875,-251.36500549316406 C-496.1199951171875,-293.5530090332031 -461.9200134277344,-327.75299072265625 -419.73199462890625,-327.75299072265625 C-419.73199462890625,-327.75299072265625 419.73199462890625,-327.75299072265625 419.73199462890625,-327.75299072265625 C461.9200134277344,-327.75299072265625 496.1199951171875,-293.5530090332031 496.1199951171875,-251.36500549316406 C496.1199951171875,-251.36500549316406 496.1199951171875,251.36500549316406 496.1199951171875,251.36500549316406 C496.1199951171875,293.5530090332031 461.9200134277344,327.75299072265625 419.73199462890625,327.75299072265625z"></path><path stroke-linecap="butt" stroke-linejoin="miter" fill-opacity="0" stroke-miterlimit="10" stroke="rgb(133,161,190)" stroke-opacity="1" stroke-width="28.161" d=" M419.73199462890625,327.75299072265625 C419.73199462890625,327.75299072265625 -419.73199462890625,327.75299072265625 -419.73199462890625,327.75299072265625 C-461.9200134277344,327.75299072265625 -496.1199951171875,293.5530090332031 -496.1199951171875,251.36500549316406 C-496.1199951171875,251.36500549316406 -496.1199951171875,-251.36500549316406 -496.1199951171875,-251.36500549316406 C-496.1199951171875,-293.5530090332031 -461.9200134277344,-327.75299072265625 -419.73199462890625,-327.75299072265625 C-419.73199462890625,-327.75299072265625 419.73199462890625,-327.75299072265625 419.73199462890625,-327.75299072265625 C461.9200134277344,-327.75299072265625 496.1199951171875,-293.5530090332031 496.1199951171875,-251.36500549316406 C496.1199951171875,-251.36500549316406 496.1199951171875,251.36500549316406 496.1199951171875,251.36500549316406 C496.1199951171875,293.5530090332031 461.9200134277344,327.75299072265625 419.73199462890625,327.75299072265625z"></path></g><g opacity="1" transform="matrix(1,0,0,1,2443.98388671875,2555.955078125)"><path stroke-linecap="butt" stroke-linejoin="miter" fill-opacity="0" stroke-miterlimit="10" stroke="rgb(133,161,190)" stroke-opacity="1" stroke-width="28.161" d=" M-466.1419982910156,-307.947998046875 C-466.1419982910156,-307.947998046875 466.1419982910156,307.947998046875 466.1419982910156,307.947998046875"></path></g><g opacity="1" transform="matrix(1,0,0,1,2438.5859375,2555.864990234375)"><path stroke-linecap="butt" stroke-linejoin="miter" fill-opacity="0" stroke-miterlimit="10" stroke="rgb(133,161,190)" stroke-opacity="1" stroke-width="28.161" d=" M-466.0060119628906,307.8580017089844 C-466.0060119628906,307.8580017089844 466.0060119628906,-307.8580017089844 466.0060119628906,-307.8580017089844"></path></g></g><g transform="matrix(0.5,0,0,0.5,420.00048828125,176.00006103515625)" opacity="1" style="display: block;"><g opacity="1" transform="matrix(1,0,0,1,2441.217041015625,1815.7239990234375)"><path fill="rgb(97,151,226)" fill-opacity="1" d=" M419.73199462890625,327.75201416015625 C419.73199462890625,327.75201416015625 -419.73199462890625,327.75201416015625 -419.73199462890625,327.75201416015625 C-461.9200134277344,327.75201416015625 -496.1199951171875,293.5530090332031 -496.1199951171875,251.36500549316406 C-496.1199951171875,251.36500549316406 -496.1199951171875,-251.36500549316406 -496.1199951171875,-251.36500549316406 C-496.1199951171875,-293.5530090332031 -461.9200134277344,-327.75201416015625 -419.73199462890625,-327.75201416015625 C-419.73199462890625,-327.75201416015625 419.73199462890625,-327.75201416015625 419.73199462890625,-327.75201416015625 C461.9200134277344,-327.75201416015625 496.1199951171875,-293.5530090332031 496.1199951171875,-251.36500549316406 C496.1199951171875,-251.36500549316406 496.1199951171875,251.36500549316406 496.1199951171875,251.36500549316406 C496.1199951171875,293.5530090332031 461.9200134277344,327.75201416015625 419.73199462890625,327.75201416015625z"></path></g></g><g transform="matrix(0.5,0,0,0.5,420,175.99951171875)" opacity="1" style="display: block;"><g opacity="1" transform="matrix(1,0,0,1,3362.492919921875,2248.007080078125)"><path stroke-linecap="round" stroke-linejoin="round" fill-opacity="0" stroke="rgb(241,149,84)" stroke-opacity="1" stroke-width="28.161" d=" M55.94599914550781,55.94599914550781 C55.94599914550781,55.94599914550781 -55.94599914550781,55.94599914550781 -55.94599914550781,55.94599914550781 C-55.94599914550781,55.94599914550781 -55.94599914550781,-55.94599914550781 -55.94599914550781,-55.94599914550781 C-55.94599914550781,-55.94599914550781 55.94599914550781,-55.94599914550781 55.94599914550781,-55.94599914550781 C55.94599914550781,-55.94599914550781 55.94599914550781,55.94599914550781 55.94599914550781,55.94599914550781z"></path></g><g opacity="1" transform="matrix(1,0,0,1,4497.92822265625,2248.007080078125)"><path stroke-linecap="round" stroke-linejoin="round" fill-opacity="0" stroke="rgb(241,149,84)" stroke-opacity="1" stroke-width="28.161" d=" M55.94599914550781,55.94599914550781 C55.94599914550781,55.94599914550781 -55.94599914550781,55.94599914550781 -55.94599914550781,55.94599914550781 C-55.94599914550781,55.94599914550781 -55.94599914550781,-55.94599914550781 -55.94599914550781,-55.94599914550781 C-55.94599914550781,-55.94599914550781 55.94599914550781,-55.94599914550781 55.94599914550781,-55.94599914550781 C55.94599914550781,-55.94599914550781 55.94599914550781,55.94599914550781 55.94599914550781,55.94599914550781z"></path></g><g opacity="1" transform="matrix(1,0,0,1,4235.85400390625,1972.7330322265625)"><path stroke-linecap="round" stroke-linejoin="round" fill-opacity="0" stroke="rgb(241,149,84)" stroke-opacity="1" stroke-width="28.161" d=" M-249.7030029296875,-215.7270050048828 C-8.687999725341797,-192.00799560546875 188.82699584960938,-16.618999481201172 249.70399475097656,215.7270050048828"></path></g><g opacity="1" transform="matrix(1,0,0,1,3624.218994140625,1974.0489501953125)"><path stroke-linecap="round" stroke-linejoin="round" fill-opacity="0" stroke="rgb(241,149,84)" stroke-opacity="1" stroke-width="28.161" d=" M-250.03900146484375,217.04100036621094 C-189.968994140625,-16.606000900268555 8.121000289916992,-193.22799682617188 250.03799438476562,-217.04100036621094"></path></g><g opacity="1" transform="matrix(1,0,0,1,3930.2041015625,2863.72509765625)"><path fill="rgb(146,177,209)" fill-opacity="1" d=" M20.41900062561035,-519.802001953125 C20.41900062561035,-519.802001953125 -20.41900062561035,-519.802001953125 -20.41900062561035,-519.802001953125 C-61.551998138427734,-519.802001953125 -94.91699981689453,-414.6969909667969 -94.91699981689453,-127.5989990234375 C-94.91699981689453,159.4980010986328 -61.551998138427734,519.802001953125 -20.41900062561035,519.802001953125 C-20.41900062561035,519.802001953125 20.41900062561035,519.802001953125 20.41900062561035,519.802001953125 C61.55099868774414,519.802001953125 94.91699981689453,159.4980010986328 94.91699981689453,-127.5989990234375 C94.91699981689453,-414.6969909667969 61.55099868774414,-519.802001953125 20.41900062561035,-519.802001953125z"></path></g><g opacity="1" transform="matrix(1,0,0,1,3930.2041015625,2123.345947265625)"><path fill="rgb(199,215,232)" fill-opacity="1" d=" M-57.37900161743164,187.1230010986328 C-57.37900161743164,187.1230010986328 57.37900161743164,187.1230010986328 57.37900161743164,187.1230010986328 C57.37900161743164,55.202999114990234 88.552001953125,-41.91999816894531 88.552001953125,-41.91999816894531 C30.893999099731445,-93.96800231933594 3.318000078201294,-171.06399536132812 0,-187.1219940185547 C-3.318000078201294,-171.06399536132812 -30.895000457763672,-93.96800231933594 -88.552001953125,-41.91999816894531 C-88.552001953125,-41.91999816894531 -57.37900161743164,55.202999114990234 -57.37900161743164,187.1230010986328z"></path></g><g opacity="1" transform="matrix(1,0,0,1,3930.2041015625,2098.27099609375)"><path fill="rgb(75,75,75)" fill-opacity="1" d=" M-16.39900016784668,0 C-16.39900016784668,-9.057999610900879 -9.055999755859375,-16.398000717163086 0,-16.398000717163086 C9.057000160217285,-16.398000717163086 16.39900016784668,-9.057999610900879 16.39900016784668,0 C16.39900016784668,9.057000160217285 9.057000160217285,16.398000717163086 0,16.398000717163086 C-9.055999755859375,16.398000717163086 -16.39900016784668,9.057000160217285 -16.39900016784668,0z"></path></g><g opacity="1" transform="matrix(1,0,0,1,0,0)"><path stroke-linecap="round" stroke-linejoin="round" fill-opacity="0" stroke="rgb(75,75,75)" stroke-opacity="1" stroke-width="10.705" d=" M3930.2041015625,2098.27099609375 C3930.2041015625,2098.27099609375 3930.2041015625,1938.1070556640625 3930.2041015625,1938.1070556640625"></path></g><g opacity="1" transform="matrix(1,0,0,1,3930.2041015625,2337.47412109375)"><path fill="rgb(184,204,222)" fill-opacity="1" d=" M75.43599700927734,67.23600006103516 C75.43599700927734,67.23600006103516 -75.43599700927734,67.23600006103516 -75.43599700927734,67.23600006103516 C-75.43599700927734,67.23600006103516 -75.43599700927734,-57.71799850463867 -75.43599700927734,-57.71799850463867 C-75.43599700927734,-62.974998474121094 -71.1729965209961,-67.23699951171875 -65.91799926757812,-67.23699951171875 C-65.91799926757812,-67.23699951171875 65.91699981689453,-67.23699951171875 65.91699981689453,-67.23699951171875 C71.1729965209961,-67.23699951171875 75.43599700927734,-62.974998474121094 75.43599700927734,-57.71799850463867 C75.43599700927734,-57.71799850463867 75.43599700927734,67.23600006103516 75.43599700927734,67.23600006103516z"></path></g><g opacity="1" transform="matrix(1,0,0,1,3913.907958984375,2337.472900390625)"><path fill="rgb(212,225,236)" fill-opacity="1" d=" M-19.577999114990234,67.23699951171875 C-19.577999114990234,67.23699951171875 19.577999114990234,67.23699951171875 19.577999114990234,67.23699951171875 C19.577999114990234,67.23699951171875 19.577999114990234,-67.23699951171875 19.577999114990234,-67.23699951171875 C19.577999114990234,-67.23699951171875 -19.577999114990234,-67.23699951171875 -19.577999114990234,-67.23699951171875 C-19.577999114990234,-67.23699951171875 -19.577999114990234,67.23699951171875 -19.577999114990234,67.23699951171875z"></path></g><g opacity="1" transform="matrix(1,0,0,1,3930.2041015625,2410.4951171875)"><path fill="rgb(130,160,190)" fill-opacity="1" d=" M75.36199951171875,19.55500030517578 C75.36199951171875,19.55500030517578 -75.36299896240234,19.55500030517578 -75.36299896240234,19.55500030517578 C-86.16200256347656,19.55500030517578 -94.91699981689453,10.800000190734863 -94.91699981689453,0 C-94.91699981689453,-10.798999786376953 -86.16200256347656,-19.55500030517578 -75.36299896240234,-19.55500030517578 C-75.36299896240234,-19.55500030517578 75.36199951171875,-19.55500030517578 75.36199951171875,-19.55500030517578 C86.16200256347656,-19.55500030517578 94.91699981689453,-10.798999786376953 94.91699981689453,0 C94.91699981689453,10.800000190734863 86.16200256347656,19.55500030517578 75.36199951171875,19.55500030517578z"></path></g></g><g transform="matrix(0.5,0,0,0.5,420,175.99993896484375)" opacity="1" style="display: block;"><g opacity="1" transform="matrix(1,0,0,1,0,0)"><path stroke-linecap="round" stroke-linejoin="round" fill-opacity="0" stroke="rgb(241,149,84)" stroke-opacity="1" stroke-width="28.161" d=" M3988.053955078125,1754.2960205078125 C3988.053955078125,1754.2960205078125 4425.12158203125,1754.2960205078125 4425.12158203125,1754.2960205078125"></path></g><g opacity="1" transform="matrix(1,0,0,1,0,0)"><path stroke-linecap="round" stroke-linejoin="round" fill-opacity="0" stroke="rgb(241,149,84)" stroke-opacity="1" stroke-width="28.161" d=" M3435.6328125,1754.2960205078125 C3435.6328125,1754.2960205078125 3874.257080078125,1754.2960205078125 3874.257080078125,1754.2960205078125"></path></g><g opacity="1" transform="matrix(1,0,0,1,3277.033935546875,1754.2960205078125)"><path stroke-linecap="round" stroke-linejoin="round" fill-opacity="0" stroke="rgb(241,149,84)" stroke-opacity="1" stroke-width="28.161" d=" M158.59872436523438,0 C158.59872436523438,30.898000717163086 133.55072021484375,55.94599914550781 102.65272521972656,55.94599914550781 C71.75472259521484,55.94599914550781 46.706722259521484,30.898000717163086 46.706722259521484,0 C46.706722259521484,-30.898000717163086 71.75472259521484,-55.94599914550781 102.65272521972656,-55.94599914550781 C133.55072021484375,-55.94599914550781 158.59872436523438,-30.898000717163086 158.59872436523438,0z"></path></g><g opacity="1" transform="matrix(1,0,0,1,4583.373046875,1754.2960205078125)"><path stroke-linecap="round" stroke-linejoin="round" fill-opacity="0" stroke="rgb(241,149,84)" stroke-opacity="1" stroke-width="28.161" d=" M-46.36052703857422,0 C-46.36052703857422,30.898000717163086 -71.40852355957031,55.94599914550781 -102.30552673339844,55.94599914550781 C-133.20452880859375,55.94599914550781 -158.25253295898438,30.898000717163086 -158.25253295898438,0 C-158.25253295898438,-30.898000717163086 -133.20452880859375,-55.94599914550781 -102.30552673339844,-55.94599914550781 C-71.40852355957031,-55.94599914550781 -46.36052703857422,-30.898000717163086 -46.36052703857422,0z"></path></g><g opacity="1" transform="matrix(1,0,0,1,3930.202880859375,1754.2960205078125)"><path stroke-linecap="round" stroke-linejoin="round" fill-opacity="0" stroke="rgb(241,149,84)" stroke-opacity="1" stroke-width="28.161" d=" M55.946998596191406,55.94599914550781 C55.946998596191406,55.94599914550781 -55.946998596191406,55.94599914550781 -55.946998596191406,55.94599914550781 C-55.946998596191406,55.94599914550781 -55.946998596191406,-55.94599914550781 -55.946998596191406,-55.94599914550781 C-55.946998596191406,-55.94599914550781 55.946998596191406,-55.94599914550781 55.946998596191406,-55.94599914550781 C55.946998596191406,-55.94599914550781 55.946998596191406,55.94599914550781 55.946998596191406,55.94599914550781z"></path></g></g><g transform="matrix(0.5400000214576721,0,0,0.5400000214576721,383.7203674316406,65.208984375)" opacity="1" style="display: block;"><g opacity="1" transform="matrix(1,0,0,1,856.9910278320312,2569.77392578125)"><path fill="rgb(236,241,247)" fill-opacity="1" d=" M419.73199462890625,327.75299072265625 C419.73199462890625,327.75299072265625 -419.73199462890625,327.75299072265625 -419.73199462890625,327.75299072265625 C-461.9200134277344,327.75299072265625 -496.1199951171875,293.5530090332031 -496.1199951171875,251.36500549316406 C-496.1199951171875,251.36500549316406 -496.1199951171875,-251.36500549316406 -496.1199951171875,-251.36500549316406 C-496.1199951171875,-293.5530090332031 -461.9200134277344,-327.75299072265625 -419.73199462890625,-327.75299072265625 C-419.73199462890625,-327.75299072265625 419.73199462890625,-327.75299072265625 419.73199462890625,-327.75299072265625 C461.9200134277344,-327.75299072265625 496.1199951171875,-293.5530090332031 496.1199951171875,-251.36500549316406 C496.1199951171875,-251.36500549316406 496.1199951171875,251.36500549316406 496.1199951171875,251.36500549316406 C496.1199951171875,293.5530090332031 461.9200134277344,327.75299072265625 419.73199462890625,327.75299072265625z"></path></g><g opacity="1" transform="matrix(1,0,0,1,946.1710205078125,2677.614013671875)"><path fill="rgb(166,193,219)" fill-opacity="1" d=" M394.3320007324219,101.65399932861328 C394.3320007324219,101.65399932861328 109.35399627685547,-191.40699768066406 109.35399627685547,-191.40699768066406 C85.26599884033203,-216.2449951171875 46.67599868774414,-219.91299438476562 18.334999084472656,-199.99200439453125 C18.334999084472656,-199.99200439453125 -229.21499633789062,-26.038000106811523 -229.21499633789062,-26.038000106811523 C-241.05099487304688,-17.702999114990234 -255.22000122070312,-13.20300006866455 -269.7239990234375,-13.20300006866455 C-269.7239990234375,-13.20300006866455 -400.6669921875,-13.20300006866455 -400.6669921875,-13.20300006866455 C-400.6669921875,-13.20300006866455 -406.9389953613281,219.91200256347656 -406.9389953613281,219.91200256347656 C-406.9389953613281,219.91200256347656 330.552001953125,219.91200256347656 330.552001953125,219.91200256347656 C372.739013671875,219.91200256347656 406.9389953613281,185.71299743652344 406.9389953613281,143.52499389648438 C406.9389953613281,143.52499389648438 406.9389953613281,111.85399627685547 406.9389953613281,111.85399627685547 C402.4010009765625,108.95600128173828 398.1409912109375,105.58499908447266 394.3320007324219,101.65399932861328z"></path></g><g opacity="1" transform="matrix(1,0,0,1,856.989990234375,2669.821044921875)"><path fill="rgb(181,201,223)" fill-opacity="1" d=" M496.1199951171875,115.197998046875 C496.1199951171875,115.197998046875 299.9880065917969,115.197998046875 299.9880065917969,115.197998046875 C280.9840087890625,115.197998046875 262.7300109863281,107.4469985961914 249.47799682617188,93.86100006103516 C249.47799682617188,93.86100006103516 -35.499000549316406,-199.28399658203125 -35.499000549316406,-199.28399658203125 C-59.584999084472656,-224.03900146484375 -98.1780014038086,-227.70599365234375 -126.51699829101562,-207.78500366210938 C-126.51699829101562,-207.78500366210938 -374.0669860839844,-33.832000732421875 -374.0669860839844,-33.832000732421875 C-385.9880065917969,-25.496999740600586 -400.0740051269531,-20.996000289916992 -414.5769958496094,-20.996000289916992 C-414.5769958496094,-20.996000289916992 -496.1210021972656,-20.996000289916992 -496.1210021972656,-20.996000289916992 C-496.1210021972656,-20.996000289916992 -496.1210021972656,151.3179931640625 -496.1210021972656,151.3179931640625 C-496.1210021972656,193.50599670410156 -461.9200134277344,227.7050018310547 -419.73199462890625,227.7050018310547 C-419.73199462890625,227.7050018310547 419.7330017089844,227.7050018310547 419.7330017089844,227.7050018310547 C461.9200134277344,227.7050018310547 496.1199951171875,193.50599670410156 496.1199951171875,151.3179931640625 C496.1199951171875,151.3179931640625 496.1199951171875,115.197998046875 496.1199951171875,115.197998046875z"></path></g><g opacity="1" transform="matrix(1,0,0,1,871.85302734375,2387.93896484375)"><path fill="rgb(166,193,219)" fill-opacity="1" d=" M56.04100036621094,0 C56.04100036621094,30.950000762939453 30.950000762939453,56.04100036621094 0,56.04100036621094 C-30.950000762939453,56.04100036621094 -56.04100036621094,30.950000762939453 -56.04100036621094,0 C-56.04100036621094,-30.950000762939453 -30.950000762939453,-56.04100036621094 0,-56.04100036621094 C30.950000762939453,-56.04100036621094 56.04100036621094,-30.950000762939453 56.04100036621094,0z"></path></g></g><g transform="matrix(0.5,0,0,0.5,422.0025634765625,239.18331909179688)" opacity="1" style="display: block;"><g opacity="1" transform="matrix(1,0,0,1,2588.821044921875,627.9010009765625)"><path fill="rgb(226,238,251)" fill-opacity="1" d=" M203.57000732421875,-203.35400390625 C188.70199584960938,-218.2220001220703 164.59500122070312,-218.2220001220703 149.7270050048828,-203.35400390625 C149.7270050048828,-203.35400390625 -165.22300720214844,111.16200256347656 -165.22300720214844,111.16200256347656 C-174.93499755859375,120.8740005493164 -178.26100158691406,134.51800537109375 -175.28500366210938,146.96400451660156 C-175.28500366210938,146.96400451660156 -194.4720001220703,169.2969970703125 -194.4720001220703,169.2969970703125 C-199.88099670410156,169.6840057373047 -205.18099975585938,171.9239959716797 -209.3159942626953,176.0590057373047 C-218.43899536132812,185.18299865722656 -218.43899536132812,199.9759979248047 -209.3159942626953,209.0989990234375 C-200.1929931640625,218.2220001220703 -185.39999389648438,218.2220001220703 -176.27699279785156,209.0989990234375 C-172.14199829101562,204.96400451660156 -169.90199279785156,199.66400146484375 -169.51499938964844,194.25599670410156 C-169.51499938964844,194.25599670410156 -147.18099975585938,175.0679931640625 -147.18099975585938,175.0679931640625 C-134.73599243164062,178.04200744628906 -121.09200286865234,174.7169952392578 -111.37999725341797,165.00599670410156 C-111.37999725341797,165.00599670410156 203.57000732421875,-149.50900268554688 203.57000732421875,-149.50900268554688 C218.43899536132812,-164.3769989013672 218.43899536132812,-188.48500061035156 203.57000732421875,-203.35400390625z"></path></g><g opacity="1" transform="matrix(1,0,0,1,2822.18798828125,394.31500244140625)"><path fill="rgb(146,177,209)" fill-opacity="1" d=" M-66.64600372314453,129.27999877929688 C-66.64600372314453,129.27999877929688 -129.27999877929688,66.64700317382812 -129.27999877929688,66.64700317382812 C-129.27999877929688,66.64700317382812 59.30699920654297,-121.94000244140625 59.30699920654297,-121.94000244140625 C66.64600372314453,-129.27999877929688 78.5459976196289,-129.27999877929688 85.88600158691406,-121.94000244140625 C85.88600158691406,-121.94000244140625 121.94000244140625,-85.88700103759766 121.94000244140625,-85.88700103759766 C129.2790069580078,-78.5469970703125 129.2790069580078,-66.64700317382812 121.94000244140625,-59.30699920654297 C121.94000244140625,-59.30699920654297 -66.64600372314453,129.27999877929688 -66.64600372314453,129.27999877929688z"></path></g><g opacity="1" transform="matrix(1,0,0,1,2735.7041015625,480.79998779296875)"><path fill="rgb(181,201,223)" fill-opacity="1" d=" M5.7179999351501465,61.58000183105469 C5.7179999351501465,61.58000183105469 -61.58000183105469,-5.7179999351501465 -61.58000183105469,-5.7179999351501465 C-67.31400299072266,-11.45199966430664 -67.31400299072266,-20.749000549316406 -61.58000183105469,-26.482999801635742 C-61.58000183105469,-26.482999801635742 -26.48200035095215,-61.58100128173828 -26.48200035095215,-61.58100128173828 C-20.74799919128418,-67.31500244140625 -11.451000213623047,-67.31500244140625 -5.7170000076293945,-61.58100128173828 C-5.7170000076293945,-61.58100128173828 61.58100128173828,5.7179999351501465 61.58100128173828,5.7179999351501465 C67.31500244140625,11.45300006866455 67.31500244140625,20.74799919128418 61.58100128173828,26.48200035095215 C61.58100128173828,26.48200035095215 26.482999801635742,61.58000183105469 26.482999801635742,61.58000183105469 C20.749000549316406,67.31400299072266 11.45199966430664,67.31400299072266 5.7179999351501465,61.58000183105469z"></path></g></g><g transform="matrix(0.5,0,0,0.5,422.0025634765625,239.18331909179688)" opacity="1" style="display: block;"><g opacity="1" transform="matrix(1,0,0,1,2485.428955078125,751.0549926757812)"><path fill="rgb(97,151,226)" fill-opacity="1" d=" M102.94499969482422,-82.95899963378906 C102.94499969482422,-82.95899963378906 -14.909000396728516,34.89500045776367 -14.909000396728516,34.89500045776367 C-20.256000518798828,40.24100112915039 -27.31800079345703,43.13399887084961 -34.87099838256836,43.13399887084961 C-37.07699966430664,43.13399887084961 -39.33300018310547,42.888999938964844 -41.49100112915039,42.349998474121094 C-41.49100112915039,42.349998474121094 -46.395999908447266,41.22200012207031 -46.395999908447266,41.22200012207031 C-46.395999908447266,41.22200012207031 -50.172000885009766,44.45899963378906 -50.172000885009766,44.45899963378906 C-50.172000885009766,44.45899963378906 -72.53700256347656,63.683998107910156 -72.53700256347656,63.683998107910156 C-72.53700256347656,63.683998107910156 -75.62699890136719,66.33399963378906 -75.62699890136719,66.33399963378906 C-75.62699890136719,66.33399963378906 -75.9209976196289,70.40299987792969 -75.9209976196289,70.40299987792969 C-76.06800079345703,72.70800018310547 -76.9020004272461,76.09200286865234 -79.84500122070312,78.98600006103516 C-82.3949966430664,81.58499908447266 -85.77999877929688,82.95899963378906 -89.40799713134766,82.95899963378906 C-93.03800201416016,82.95899963378906 -96.4219970703125,81.58499908447266 -98.97200012207031,78.98600006103516 C-101.57099914550781,76.43599700927734 -102.94499969482422,73.052001953125 -102.94499969482422,69.4219970703125 C-102.94499969482422,65.79299926757812 -101.57099914550781,62.40999984741211 -98.97200012207031,59.85900115966797 C-96.02899932861328,56.91699981689453 -92.69499969482422,56.082000732421875 -90.38899993896484,55.935001373291016 C-90.38899993896484,55.935001373291016 -86.31900024414062,55.64099884033203 -86.31900024414062,55.64099884033203 C-86.31900024414062,55.64099884033203 -83.62100219726562,52.55099868774414 -83.62100219726562,52.55099868774414 C-83.62100219726562,52.55099868774414 -64.44499969482422,30.187999725341797 -64.44499969482422,30.187999725341797 C-64.44499969482422,30.187999725341797 -61.207000732421875,26.410999298095703 -61.207000732421875,26.410999298095703 C-61.207000732421875,26.410999298095703 -62.334999084472656,21.506000518798828 -62.334999084472656,21.506000518798828 C-64.64099884033203,11.843999862670898 -61.89400100708008,1.937000036239624 -54.88100051879883,-5.077000141143799 C-54.88100051879883,-5.077000141143799 23.00200080871582,-82.95899963378906 23.00200080871582,-82.95899963378906 C23.00200080871582,-82.95899963378906 102.94499969482422,-82.95899963378906 102.94499969482422,-82.95899963378906z"></path></g></g><g transform="matrix(0.5,0,0,0.5,420,176)" opacity="1" style="display: block;"><g opacity="1" transform="matrix(1,0,0,1,1971.863037109375,1135.47998046875)"><path fill="rgb(226,238,251)" fill-opacity="1" d=" M122.23899841308594,154.1269989013672 C122.23899841308594,154.1269989013672 -122.23899841308594,154.1269989013672 -122.23899841308594,154.1269989013672 C-129.08799743652344,154.1269989013672 -134.63999938964844,148.5749969482422 -134.63999938964844,141.7259979248047 C-134.63999938964844,141.7259979248047 -134.63999938964844,-141.7259979248047 -134.63999938964844,-141.7259979248047 C-134.63999938964844,-148.5749969482422 -129.08799743652344,-154.1269989013672 -122.23899841308594,-154.1269989013672 C-122.23899841308594,-154.1269989013672 122.23899841308594,-154.1269989013672 122.23899841308594,-154.1269989013672 C129.08799743652344,-154.1269989013672 134.63900756835938,-148.5749969482422 134.63900756835938,-141.7259979248047 C134.63900756835938,-141.7259979248047 134.63900756835938,141.7259979248047 134.63900756835938,141.7259979248047 C134.63900756835938,148.5749969482422 129.08799743652344,154.1269989013672 122.23899841308594,154.1269989013672z"></path></g><g opacity="1" transform="matrix(1,0,0,1,1971.863037109375,1023.0830078125)"><path fill="rgb(198,218,239)" fill-opacity="1" d=" M134.4429931640625,55.50899887084961 C134.4429931640625,55.50899887084961 -134.4429931640625,55.50899887084961 -134.4429931640625,55.50899887084961 C-141.29200744628906,55.50899887084961 -146.843994140625,49.95800018310547 -146.843994140625,43.10900115966797 C-146.843994140625,43.10900115966797 -146.843994140625,-43.10900115966797 -146.843994140625,-43.10900115966797 C-146.843994140625,-49.957000732421875 -141.29200744628906,-55.50899887084961 -134.4429931640625,-55.50899887084961 C-134.4429931640625,-55.50899887084961 134.4429931640625,-55.50899887084961 134.4429931640625,-55.50899887084961 C141.29200744628906,-55.50899887084961 146.843994140625,-49.957000732421875 146.843994140625,-43.10900115966797 C146.843994140625,-43.10900115966797 146.843994140625,43.10900115966797 146.843994140625,43.10900115966797 C146.843994140625,49.95800018310547 141.29200744628906,55.50899887084961 134.4429931640625,55.50899887084961z"></path></g><g opacity="1" transform="matrix(1,0,0,1,1971.863037109375,1267.4620361328125)"><path fill="rgb(238,119,108)" fill-opacity="1" d=" M-134.63999938964844,-22.145000457763672 C-134.63999938964844,-22.145000457763672 -134.63999938964844,9.743000030517578 -134.63999938964844,9.743000030517578 C-134.63999938964844,16.591999053955078 -129.08700561523438,22.145000457763672 -122.23899841308594,22.145000457763672 C-122.23899841308594,22.145000457763672 122.23799896240234,22.145000457763672 122.23799896240234,22.145000457763672 C129.08799743652344,22.145000457763672 134.63999938964844,16.591999053955078 134.63999938964844,9.743000030517578 C134.63999938964844,9.743000030517578 134.63999938964844,-22.145000457763672 134.63999938964844,-22.145000457763672 C134.63999938964844,-22.145000457763672 -134.63999938964844,-22.145000457763672 -134.63999938964844,-22.145000457763672z"></path></g><g opacity="1" transform="matrix(1,0,0,1,1953.85498046875,1079.4510498046875)"><path fill="rgb(238,119,108)" fill-opacity="1" d=" M76.43299865722656,-75.83799743652344 C66.07099914550781,-70.81800079345703 52.90999984741211,-81.96499633789062 42.6870002746582,-76.64600372314453 C25.80299949645996,-67.16300201416016 44.07500076293945,-37.279998779296875 27.44499969482422,-27.635000228881836 C11,-20.790000915527344 24.878000259399414,-67.76399993896484 14.053999900817871,-72.66799926757812 C0.4309999942779541,-82.7979965209961 -0.21699999272823334,-15.909000396728516 -0.21699999272823334,-1.847000002861023 C-0.21699999272823334,12.23900032043457 -8.960000038146973,24.820999145507812 -25.104000091552734,24.820999145507812 C-41.24800109863281,24.820999145507812 -38.54199981689453,11.059000015258789 -54.430999755859375,11.059000015258789 C-70.32099914550781,11.059000015258789 -76.91300201416016,30.139999389648438 -76.7040023803711,45.566001892089844 C-76.7040023803711,64.83200073242188 -98.02899932861328,68.53299713134766 -98.02899932861328,44.61800003051758 C-98.33000183105469,31.319000244140625 -97.56700134277344,9.8100004196167 -109.36199951171875,20.47100067138672 C-119.83899688720703,38.14099884033203 -117.08799743652344,61.36399841308594 -116.18499755859375,81.18599700927734 C-115.30599975585938,89.92900085449219 -114.40399932861328,100.35900115966797 -121.22799682617188,105.91000366210938 C-128.37399291992188,111.87699890136719 -133.55499267578125,102.5790023803711 -133.32400512695312,95.13099670410156 C-135.2259979248047,40.58700180053711 -135.51300048828125,-72.41200256347656 -135.5570068359375,-103.69499969482422 C-135.56300354003906,-108.21600341796875 -131.89999389648438,-111.87699890136719 -127.37899780273438,-111.87699890136719 C-127.37899780273438,-111.87699890136719 127.18800354003906,-111.87699890136719 127.18800354003906,-111.87699890136719 C131.54200744628906,-111.87699890136719 135.1739959716797,-108.47100067138672 135.36399841308594,-104.12100219726562 C135.56300354003906,-99.5530014038086 133.58299255371094,-94.4010009765625 128.91200256347656,-90.75499725341797 C110.8479995727539,-80.9489974975586 93.45500183105469,-93.29900360107422 76.43299865722656,-75.83799743652344z"></path></g></g><g transform="matrix(0.5,0,0,0.5,420,176)" opacity="1" style="display: block;"><g opacity="1" transform="matrix(1,0,0,1,2372.662109375,1135.47998046875)"><path fill="rgb(226,238,251)" fill-opacity="1" d=" M122.23899841308594,154.1269989013672 C122.23899841308594,154.1269989013672 -122.23799896240234,154.1269989013672 -122.23799896240234,154.1269989013672 C-129.08700561523438,154.1269989013672 -134.63900756835938,148.5749969482422 -134.63900756835938,141.7259979248047 C-134.63900756835938,141.7259979248047 -134.63900756835938,-141.7259979248047 -134.63900756835938,-141.7259979248047 C-134.63900756835938,-148.5749969482422 -129.08700561523438,-154.1269989013672 -122.23799896240234,-154.1269989013672 C-122.23799896240234,-154.1269989013672 122.23899841308594,-154.1269989013672 122.23899841308594,-154.1269989013672 C129.08799743652344,-154.1269989013672 134.63999938964844,-148.5749969482422 134.63999938964844,-141.7259979248047 C134.63999938964844,-141.7259979248047 134.63999938964844,141.7259979248047 134.63999938964844,141.7259979248047 C134.63999938964844,148.5749969482422 129.08799743652344,154.1269989013672 122.23899841308594,154.1269989013672z"></path></g><g opacity="1" transform="matrix(1,0,0,1,2372.662109375,1023.0830078125)"><path fill="rgb(198,218,239)" fill-opacity="1" d=" M134.4429931640625,55.50899887084961 C134.4429931640625,55.50899887084961 -134.4429931640625,55.50899887084961 -134.4429931640625,55.50899887084961 C-141.29100036621094,55.50899887084961 -146.843994140625,49.95800018310547 -146.843994140625,43.10900115966797 C-146.843994140625,43.10900115966797 -146.843994140625,-43.10900115966797 -146.843994140625,-43.10900115966797 C-146.843994140625,-49.957000732421875 -141.29100036621094,-55.50899887084961 -134.4429931640625,-55.50899887084961 C-134.4429931640625,-55.50899887084961 134.4429931640625,-55.50899887084961 134.4429931640625,-55.50899887084961 C141.29200744628906,-55.50899887084961 146.843994140625,-49.957000732421875 146.843994140625,-43.10900115966797 C146.843994140625,-43.10900115966797 146.843994140625,43.10900115966797 146.843994140625,43.10900115966797 C146.843994140625,49.95800018310547 141.29200744628906,55.50899887084961 134.4429931640625,55.50899887084961z"></path></g><g opacity="1" transform="matrix(1,0,0,1,2372.662109375,1267.4620361328125)"><path fill="rgb(97,151,226)" fill-opacity="1" d=" M-134.63900756835938,-22.145000457763672 C-134.63900756835938,-22.145000457763672 -134.63900756835938,9.743000030517578 -134.63900756835938,9.743000030517578 C-134.63900756835938,16.591999053955078 -129.08799743652344,22.145000457763672 -122.23899841308594,22.145000457763672 C-122.23899841308594,22.145000457763672 122.23899841308594,22.145000457763672 122.23899841308594,22.145000457763672 C129.08900451660156,22.145000457763672 134.63900756835938,16.591999053955078 134.63900756835938,9.743000030517578 C134.63900756835938,9.743000030517578 134.63900756835938,-22.145000457763672 134.63900756835938,-22.145000457763672 C134.63900756835938,-22.145000457763672 -134.63900756835938,-22.145000457763672 -134.63900756835938,-22.145000457763672z"></path></g><g opacity="1" transform="matrix(1,0,0,1,2374.80810546875,1077.3299560546875)"><path fill="rgb(97,151,226)" fill-opacity="1" d=" M142.375,-109.75599670410156 C146.947998046875,-109.75599670410156 150.63299560546875,-106.01000213623047 150.552001953125,-101.43800354003906 C149.9029998779297,-64.92900085449219 147.3249969482422,79.8219985961914 147.0489959716797,91.5770034790039 C146.91000366210938,96.8499984741211 146.23899841308594,102.65499877929688 142.33099365234375,106.21700286865234 C138.4219970703125,109.75599670410156 129.84100341796875,103.71900177001953 128.36099243164062,92.50199890136719 C126.87999725341797,81.28399658203125 128.96200561523438,43.76900100708008 121.86199951171875,43.76900100708008 C114.78399658203125,43.76900100708008 126.0009994506836,95.73999786376953 111.52300262451172,95.73999786376953 C97.06700134277344,95.73999786376953 98.40899658203125,67.7770004272461 99.10299682617188,51.402000427246094 C100.12000274658203,45.0880012512207 96.072998046875,-8.178000450134277 85.38700103759766,-6.675000190734863 C70.19100189208984,-3.4600000381469727 81.08499908447266,41.43299865722656 76.11199951171875,62.89699935913086 C75.11799621582031,71.75499725341797 65.4729995727539,74.80799865722656 58.904998779296875,68.9800033569336 C41.095001220703125,52.74300003051758 53.5620002746582,-28.856000900268555 41.76599884033203,-49.4640007019043 C39.013999938964844,-54.0890007019043 33,-58.66899871826172 27.240999221801758,-58.66899871826172 C21.66699981689453,-58.66899871826172 18.545000076293945,-56.47100067138672 16.18600082397461,-53.3489990234375 C12.253999710083008,-48.167999267578125 15.862000465393066,-38.5 7.881999969482422,-35.74800109863281 C-0.07400000095367432,-32.99599838256836 -2.5950000286102295,-44.05099868774414 -6.388000011444092,-52.862998962402344 C-8.23799991607666,-57.11899948120117 -11.383999824523926,-60.45000076293945 -17.606000900268555,-60.45000076293945 C-35.50699996948242,-60.45000076293945 -24.68400001525879,3.802999973297119 -22.739999771118164,33.314998626708984 C-21.243000030517578,42.30099868774414 -23.30699920654297,55.619998931884766 -33.21699905395508,57.676998138427734 C-34.939998626708984,58.03499984741211 -36.74399948120117,57.797000885009766 -38.3650016784668,57.11199951171875 C-62.55799865722656,46.891998291015625 -46.941001892089844,-20.042999267578125 -51.30500030517578,-42.01599884033203 C-52.19599914550781,-64.37899780273438 -72.43800354003906,-71.02999877929688 -84.16200256347656,-51.75899887084961 C-84.43199920654297,-51.314998626708984 -84.6760025024414,-50.849998474121094 -84.88099670410156,-50.37200164794922 C-92.64099884033203,-32.301998138427734 -83.36900329589844,1.4900000095367432 -96.197998046875,1.4900000095367432 C-105.35700225830078,1.4900000095367432 -104.13099670410156,-40.18899917602539 -105.7040023803711,-52.678001403808594 C-106.23600006103516,-60.0099983215332 -111.97200012207031,-61.79100036621094 -115.302001953125,-55.013999938964844 C-140.46600341796875,-8.54800033569336 -127.14399719238281,50.08300018310547 -127.7229995727539,65.6259994506836 C-128.32400512695312,81.19200134277344 -129.68800354003906,91.02100372314453 -135.3090057373047,94.49099731445312 C-140.906005859375,97.93699645996094 -147.82200622558594,94.88400268554688 -149.07000732421875,72.33300018310547 C-149.87100219726562,58.159000396728516 -150.4669952392578,-67.91699981689453 -150.61300659179688,-101.54399871826172 C-150.63299560546875,-106.0739974975586 -146.96499633789062,-109.75599670410156 -142.43499755859375,-109.75599670410156 C-142.43499755859375,-109.75599670410156 142.375,-109.75599670410156 142.375,-109.75599670410156z"></path></g></g><g transform="matrix(0.5,0,0,0.5,420.00048828125,176)" opacity="1" style="display: block;"><g opacity="1" transform="matrix(1,0,0,1,2777.928955078125,1135.47998046875)"><path fill="rgb(226,238,251)" fill-opacity="1" d=" M122.23899841308594,154.1269989013672 C122.23899841308594,154.1269989013672 -122.23799896240234,154.1269989013672 -122.23799896240234,154.1269989013672 C-129.08700561523438,154.1269989013672 -134.63900756835938,148.5749969482422 -134.63900756835938,141.7259979248047 C-134.63900756835938,141.7259979248047 -134.63900756835938,-141.7259979248047 -134.63900756835938,-141.7259979248047 C-134.63900756835938,-148.5749969482422 -129.08700561523438,-154.1269989013672 -122.23799896240234,-154.1269989013672 C-122.23799896240234,-154.1269989013672 122.23899841308594,-154.1269989013672 122.23899841308594,-154.1269989013672 C129.08799743652344,-154.1269989013672 134.63999938964844,-148.5749969482422 134.63999938964844,-141.7259979248047 C134.63999938964844,-141.7259979248047 134.63999938964844,141.7259979248047 134.63999938964844,141.7259979248047 C134.63999938964844,148.5749969482422 129.08799743652344,154.1269989013672 122.23899841308594,154.1269989013672z"></path></g><g opacity="1" transform="matrix(1,0,0,1,2777.928955078125,1023.0830078125)"><path fill="rgb(198,218,239)" fill-opacity="1" d=" M134.4429931640625,55.50899887084961 C134.4429931640625,55.50899887084961 -134.4429931640625,55.50899887084961 -134.4429931640625,55.50899887084961 C-141.29100036621094,55.50899887084961 -146.843994140625,49.95800018310547 -146.843994140625,43.10900115966797 C-146.843994140625,43.10900115966797 -146.843994140625,-43.10900115966797 -146.843994140625,-43.10900115966797 C-146.843994140625,-49.957000732421875 -141.29100036621094,-55.50899887084961 -134.4429931640625,-55.50899887084961 C-134.4429931640625,-55.50899887084961 134.4429931640625,-55.50899887084961 134.4429931640625,-55.50899887084961 C141.29200744628906,-55.50899887084961 146.843994140625,-49.957000732421875 146.843994140625,-43.10900115966797 C146.843994140625,-43.10900115966797 146.843994140625,43.10900115966797 146.843994140625,43.10900115966797 C146.843994140625,49.95800018310547 141.29200744628906,55.50899887084961 134.4429931640625,55.50899887084961z"></path></g><g opacity="1" transform="matrix(1,0,0,1,2777.928955078125,1267.4620361328125)"><path fill="rgb(255,206,115)" fill-opacity="1" d=" M-134.63900756835938,-22.145000457763672 C-134.63900756835938,-22.145000457763672 -134.63900756835938,9.743000030517578 -134.63900756835938,9.743000030517578 C-134.63900756835938,16.591999053955078 -129.08799743652344,22.145000457763672 -122.23899841308594,22.145000457763672 C-122.23899841308594,22.145000457763672 122.23899841308594,22.145000457763672 122.23899841308594,22.145000457763672 C129.08900451660156,22.145000457763672 134.63900756835938,16.591999053955078 134.63900756835938,9.743000030517578 C134.63900756835938,9.743000030517578 134.63900756835938,-22.145000457763672 134.63900756835938,-22.145000457763672 C134.63900756835938,-22.145000457763672 -134.63900756835938,-22.145000457763672 -134.63900756835938,-22.145000457763672z"></path></g><g opacity="1" transform="matrix(1,0,0,1,2777.839111328125,1059.696044921875)"><path fill="rgb(255,206,115)" fill-opacity="1" d=" M146.7969970703125,66.24099731445312 C144.3679962158203,78.15299987792969 138.26199340820312,80.6510009765625 133.1739959716797,80.30400085449219 C125.10199737548828,79.77200317382812 122.74299621582031,71.65399932861328 121.37799835205078,65.15399932861328 C119.98999786376953,58.654998779296875 123.2979965209961,-43.99100112915039 111.10900115966797,-43.99100112915039 C89.04399871826172,-43.99100112915039 100.83999633789062,-12.258999824523926 91.10199737548828,-4.7179999351501465 C85.78299713134766,-1.1100000143051147 77.04000091552734,-1.5269999504089355 72.99199676513672,-6.545000076293945 C65.56800079345703,-14.871999740600586 72.36799621582031,-27.45400047302246 66.65499877929688,-36.68199920654297 C63.439998626708984,-41.053001403808594 52.869998931884766,-43.7140007019043 44.3129997253418,-36.03499984741211 C35.755001068115234,-28.356000900268555 39.57099914550781,38.672000885009766 38.391998291015625,58.74700164794922 C37.21200180053711,78.8239974975586 37.51300048828125,92.12200164794922 26.295000076293945,92.12200164794922 C15.07800006866455,92.12200164794922 19.125999450683594,78.24500274658203 17.714000701904297,59.04800033569336 C15.12399959564209,24.007999420166016 19.79599952697754,-48.43199920654297 0.6460000276565552,-50.189998626708984 C-18.5049991607666,-51.970001220703125 -11.428000450134277,-12.767000198364258 -21.836000442504883,-2.3589999675750732 C-26.854999542236328,2.497999906539917 -39.25199890136719,0.8790000081062317 -41.472999572753906,-4.232999801635742 C-43.69300079345703,-9.321000099182129 -45.358001708984375,-30.020999908447266 -53.91600036621094,-30.020999908447266 C-68.23200225830078,-30.020999908447266 -63.76900100708008,-12.119000434875488 -68.83399963378906,-3.4690001010894775 C-74.2229995727539,5.25 -87.56800079345703,8.48900032043457 -95.68699645996094,0.1850000023841858 C-106.88099670410156,-10.755000114440918 -99.96499633789062,-32.40399932861328 -111.52999877929688,-42.95000076293945 C-117.68199920654297,-47.06700134277344 -122.00700378417969,-41.16999816894531 -124.99099731445312,-33.32899856567383 C-133.73399353027344,-11.819000244140625 -128.6219940185547,41.23899841308594 -131.58299255371094,54.44599914550781 C-134.54299926757812,67.6520004272461 -146.4320068359375,62.749000549316406 -148.30499267578125,54.02899932861328 C-149.76499938964844,47.18199920654297 -149.21200561523438,-44.75299835205078 -148.9219970703125,-84.01000213623047 C-148.88900756835938,-88.50299835205078 -145.23699951171875,-92.12200164794922 -140.74400329589844,-92.12200164794922 C-140.74400329589844,-92.12200164794922 141.1490020751953,-92.12200164794922 141.1490020751953,-92.12200164794922 C145.64100646972656,-92.12200164794922 149.2969970703125,-88.50299835205078 149.33700561523438,-84.01000213623047 C149.76499938964844,-35.39799880981445 149.0030059814453,55.558998107910156 146.7969970703125,66.24099731445312z"></path></g></g></g></svg>