<svg xmlns="http://www.w3.org/2000/svg" xmlns:xlink="http://www.w3.org/1999/xlink" viewBox="0 0 1000 1000" width="1000" height="1000" preserveAspectRatio="xMidYMid meet" style="width: 100%; height: 100%; transform: translate3d(0px, 0px, 0px); content-visibility: visible;"><defs><clipPath id="__lottie_element_82409"><rect width="1000" height="1000" x="0" y="0"></rect></clipPath></defs><g clip-path="url(#__lottie_element_82409)"><g transform="matrix(-0.4061804413795471,2.3035635948181152,-2.3035635948181152,-0.4061804413795471,756.8985595703125,-304.3418273925781)" opacity="1" style="display: block;"><g opacity="1" transform="matrix(1,0,0,1,208.1580047607422,117.30599975585938)"><g opacity="1" transform="matrix(1,0,0,1,0,0)"><path fill="rgb(0,89,214)" fill-opacity="1" d=" M12.47599983215332,2.6449999809265137 C12.47599983215332,2.6449999809265137 12.47599983215332,-2.6449999809265137 12.47599983215332,-2.6449999809265137 C12.47599983215332,-2.6449999809265137 9.069999694824219,-3.3310000896453857 9.069999694824219,-3.3310000896453857 C9.069999694824219,-3.3310000896453857 9.069999694824219,-3.3310000896453857 9.069999694824219,-3.3310000896453857 C8.977999687194824,-3.5799999237060547 8.875,-3.8239998817443848 8.763999938964844,-4.063000202178955 C8.763999938964844,-4.063000202178955 8.770000457763672,-4.058000087738037 8.770000457763672,-4.058000087738037 C8.770000457763672,-4.058000087738037 10.692000389099121,-6.952000141143799 10.692000389099121,-6.952000141143799 C10.692000389099121,-6.952000141143799 6.952000141143799,-10.692000389099121 6.952000141143799,-10.692000389099121 C6.952000141143799,-10.692000389099121 4.058000087738037,-8.769000053405762 4.058000087738037,-8.769000053405762 C4.058000087738037,-8.769000053405762 4.063000202178955,-8.763999938964844 4.063000202178955,-8.763999938964844 C3.8239998817443848,-8.875 3.5799999237060547,-8.977999687194824 3.3310000896453857,-9.069999694824219 C3.3310000896453857,-9.069999694824219 3.3310000896453857,-9.069999694824219 3.3310000896453857,-9.069999694824219 C3.3310000896453857,-9.069999694824219 2.6449999809265137,-12.47599983215332 2.6449999809265137,-12.47599983215332 C2.6449999809265137,-12.47599983215332 -2.6449999809265137,-12.47599983215332 -2.6449999809265137,-12.47599983215332 C-2.6449999809265137,-12.47599983215332 -3.3310000896453857,-9.069999694824219 -3.3310000896453857,-9.069999694824219 C-3.3310000896453857,-9.069999694824219 -3.3310000896453857,-9.069999694824219 -3.3310000896453857,-9.069999694824219 C-3.5799999237060547,-8.977999687194824 -3.8239998817443848,-8.875 -4.063000202178955,-8.763999938964844 C-4.063000202178955,-8.763999938964844 -4.058000087738037,-8.769000053405762 -4.058000087738037,-8.769000053405762 C-4.058000087738037,-8.769000053405762 -6.952000141143799,-10.692000389099121 -6.952000141143799,-10.692000389099121 C-6.952000141143799,-10.692000389099121 -10.692000389099121,-6.952000141143799 -10.692000389099121,-6.952000141143799 C-10.692000389099121,-6.952000141143799 -8.770000457763672,-4.058000087738037 -8.770000457763672,-4.058000087738037 C-8.770000457763672,-4.058000087738037 -8.763999938964844,-4.063000202178955 -8.763999938964844,-4.063000202178955 C-8.875,-3.8239998817443848 -8.977999687194824,-3.5799999237060547 -9.069999694824219,-3.3310000896453857 C-9.069999694824219,-3.3310000896453857 -9.069999694824219,-3.3310000896453857 -9.069999694824219,-3.3310000896453857 C-9.069999694824219,-3.3310000896453857 -12.47599983215332,-2.6449999809265137 -12.47599983215332,-2.6449999809265137 C-12.47599983215332,-2.6449999809265137 -12.47599983215332,2.6449999809265137 -12.47599983215332,2.6449999809265137 C-12.47599983215332,2.6449999809265137 -9.069999694824219,3.3310000896453857 -9.069999694824219,3.3310000896453857 C-9.069999694824219,3.3310000896453857 -9.069999694824219,3.3310000896453857 -9.069999694824219,3.3310000896453857 C-8.977999687194824,3.5799999237060547 -8.875,3.8239998817443848 -8.763999938964844,4.063000202178955 C-8.763999938964844,4.063000202178955 -8.770000457763672,4.058000087738037 -8.770000457763672,4.058000087738037 C-8.770000457763672,4.058000087738037 -10.692000389099121,6.952000141143799 -10.692000389099121,6.952000141143799 C-10.692000389099121,6.952000141143799 -6.952000141143799,10.692000389099121 -6.952000141143799,10.692000389099121 C-6.952000141143799,10.692000389099121 -4.058000087738037,8.770000457763672 -4.058000087738037,8.770000457763672 C-4.058000087738037,8.770000457763672 -4.063000202178955,8.763999938964844 -4.063000202178955,8.763999938964844 C-3.8239998817443848,8.875 -3.5799999237060547,8.977999687194824 -3.3310000896453857,9.069999694824219 C-3.3310000896453857,9.069999694824219 -3.3310000896453857,9.069999694824219 -3.3310000896453857,9.069999694824219 C-3.3310000896453857,9.069999694824219 -2.6449999809265137,12.47599983215332 -2.6449999809265137,12.47599983215332 C-2.6449999809265137,12.47599983215332 2.6449999809265137,12.47599983215332 2.6449999809265137,12.47599983215332 C2.6449999809265137,12.47599983215332 3.3310000896453857,9.069999694824219 3.3310000896453857,9.069999694824219 C3.3310000896453857,9.069999694824219 3.3310000896453857,9.069999694824219 3.3310000896453857,9.069999694824219 C3.5799999237060547,8.977999687194824 3.8239998817443848,8.875 4.063000202178955,8.763999938964844 C4.063000202178955,8.763999938964844 4.058000087738037,8.770000457763672 4.058000087738037,8.770000457763672 C4.058000087738037,8.770000457763672 6.952000141143799,10.692000389099121 6.952000141143799,10.692000389099121 C6.952000141143799,10.692000389099121 10.692000389099121,6.952000141143799 10.692000389099121,6.952000141143799 C10.692000389099121,6.952000141143799 8.770000457763672,4.058000087738037 8.770000457763672,4.058000087738037 C8.770000457763672,4.058000087738037 8.763999938964844,4.063000202178955 8.763999938964844,4.063000202178955 C8.875,3.8239998817443848 8.977999687194824,3.5799999237060547 9.069999694824219,3.3310000896453857 C9.069999694824219,3.3310000896453857 9.069999694824219,3.3310000896453857 9.069999694824219,3.3310000896453857 C9.069999694824219,3.3310000896453857 12.47599983215332,2.6449999809265137 12.47599983215332,2.6449999809265137z M0,4.943999767303467 C-2.7300000190734863,4.943999767303467 -4.943999767303467,2.7300000190734863 -4.943999767303467,0 C-4.943999767303467,-2.7300000190734863 -2.7300000190734863,-4.942999839782715 0,-4.942999839782715 C2.7300000190734863,-4.942999839782715 4.943999767303467,-2.7300000190734863 4.943999767303467,0 C4.943999767303467,2.7300000190734863 2.7300000190734863,4.943999767303467 0,4.943999767303467z"></path></g></g></g><g transform="matrix(-1.682607650756836,-1.6248753070831299,1.6248753070831299,-1.682607650756836,375.77532958984375,633.2334594726562)" opacity="1" style="display: block;"><g opacity="1" transform="matrix(1,0,0,1,0,0)"><g opacity="1" transform="matrix(1,0,0,1,164.79299926757812,127.22000122070312)"><g opacity="1" transform="matrix(1,0,0,1,0,0)"><path fill="rgb(12,186,131)" fill-opacity="1" d=" M24.312999725341797,5.1539998054504395 C24.312999725341797,5.1539998054504395 24.312999725341797,-5.1539998054504395 24.312999725341797,-5.1539998054504395 C24.312999725341797,-5.1539998054504395 17.676000595092773,-6.492000102996826 17.676000595092773,-6.492000102996826 C17.676000595092773,-6.492000102996826 17.676000595092773,-6.492000102996826 17.676000595092773,-6.492000102996826 C17.496999740600586,-6.978000164031982 17.297000885009766,-7.452000141143799 17.079999923706055,-7.918000221252441 C17.079999923706055,-7.918000221252441 17.09000015258789,-7.9079999923706055 17.09000015258789,-7.9079999923706055 C17.09000015258789,-7.9079999923706055 20.836999893188477,-13.54800033569336 20.836999893188477,-13.54800033569336 C20.836999893188477,-13.54800033569336 13.54800033569336,-20.836999893188477 13.54800033569336,-20.836999893188477 C13.54800033569336,-20.836999893188477 7.9079999923706055,-17.09000015258789 7.9079999923706055,-17.09000015258789 C7.9079999923706055,-17.09000015258789 7.918000221252441,-17.079999923706055 7.918000221252441,-17.079999923706055 C7.452000141143799,-17.297000885009766 6.978000164031982,-17.49799919128418 6.492000102996826,-17.676000595092773 C6.492000102996826,-17.676000595092773 6.492000102996826,-17.676000595092773 6.492000102996826,-17.676000595092773 C6.492000102996826,-17.676000595092773 5.1539998054504395,-24.312999725341797 5.1539998054504395,-24.312999725341797 C5.1539998054504395,-24.312999725341797 -5.1539998054504395,-24.312999725341797 -5.1539998054504395,-24.312999725341797 C-5.1539998054504395,-24.312999725341797 -6.492000102996826,-17.676000595092773 -6.492000102996826,-17.676000595092773 C-6.492000102996826,-17.676000595092773 -6.492000102996826,-17.676000595092773 -6.492000102996826,-17.676000595092773 C-6.978000164031982,-17.49799919128418 -7.452000141143799,-17.297000885009766 -7.918000221252441,-17.079999923706055 C-7.918000221252441,-17.079999923706055 -7.9079999923706055,-17.09000015258789 -7.9079999923706055,-17.09000015258789 C-7.9079999923706055,-17.09000015258789 -13.54800033569336,-20.836999893188477 -13.54800033569336,-20.836999893188477 C-13.54800033569336,-20.836999893188477 -20.836999893188477,-13.54800033569336 -20.836999893188477,-13.54800033569336 C-20.836999893188477,-13.54800033569336 -17.09000015258789,-7.9079999923706055 -17.09000015258789,-7.9079999923706055 C-17.09000015258789,-7.9079999923706055 -17.079999923706055,-7.918000221252441 -17.079999923706055,-7.918000221252441 C-17.297000885009766,-7.452000141143799 -17.496999740600586,-6.978000164031982 -17.676000595092773,-6.492000102996826 C-17.676000595092773,-6.492000102996826 -17.676000595092773,-6.492000102996826 -17.676000595092773,-6.492000102996826 C-17.676000595092773,-6.492000102996826 -24.312999725341797,-5.1539998054504395 -24.312999725341797,-5.1539998054504395 C-24.312999725341797,-5.1539998054504395 -24.312999725341797,5.1539998054504395 -24.312999725341797,5.1539998054504395 C-24.312999725341797,5.1539998054504395 -17.676000595092773,6.492000102996826 -17.676000595092773,6.492000102996826 C-17.676000595092773,6.492000102996826 -17.676000595092773,6.492000102996826 -17.676000595092773,6.492000102996826 C-17.496999740600586,6.978000164031982 -17.297000885009766,7.453000068664551 -17.079999923706055,7.919000148773193 C-17.079999923706055,7.919000148773193 -17.09000015258789,7.9079999923706055 -17.09000015258789,7.9079999923706055 C-17.09000015258789,7.9079999923706055 -20.836999893188477,13.54800033569336 -20.836999893188477,13.54800033569336 C-20.836999893188477,13.54800033569336 -13.54800033569336,20.836999893188477 -13.54800033569336,20.836999893188477 C-13.54800033569336,20.836999893188477 -7.9079999923706055,17.09000015258789 -7.9079999923706055,17.09000015258789 C-7.9079999923706055,17.09000015258789 -7.918000221252441,17.079999923706055 -7.918000221252441,17.079999923706055 C-7.452000141143799,17.29599952697754 -6.978000164031982,17.49799919128418 -6.492000102996826,17.676000595092773 C-6.492000102996826,17.676000595092773 -6.492000102996826,17.676000595092773 -6.492000102996826,17.676000595092773 C-6.492000102996826,17.676000595092773 -5.1539998054504395,24.312999725341797 -5.1539998054504395,24.312999725341797 C-5.1539998054504395,24.312999725341797 5.1539998054504395,24.312999725341797 5.1539998054504395,24.312999725341797 C5.1539998054504395,24.312999725341797 6.492000102996826,17.676000595092773 6.492000102996826,17.676000595092773 C6.492000102996826,17.676000595092773 6.492000102996826,17.676000595092773 6.492000102996826,17.676000595092773 C6.978000164031982,17.49799919128418 7.452000141143799,17.29599952697754 7.918000221252441,17.079999923706055 C7.918000221252441,17.079999923706055 7.9079999923706055,17.09000015258789 7.9079999923706055,17.09000015258789 C7.9079999923706055,17.09000015258789 13.54800033569336,20.836999893188477 13.54800033569336,20.836999893188477 C13.54800033569336,20.836999893188477 20.836999893188477,13.54800033569336 20.836999893188477,13.54800033569336 C20.836999893188477,13.54800033569336 17.09000015258789,7.9079999923706055 17.09000015258789,7.9079999923706055 C17.09000015258789,7.9079999923706055 17.079999923706055,7.919000148773193 17.079999923706055,7.919000148773193 C17.297000885009766,7.453000068664551 17.496999740600586,6.978000164031982 17.676000595092773,6.492000102996826 C17.676000595092773,6.492000102996826 17.676000595092773,6.492000102996826 17.676000595092773,6.492000102996826 C17.676000595092773,6.492000102996826 24.312999725341797,5.1539998054504395 24.312999725341797,5.1539998054504395z M0,9.633999824523926 C-5.321000099182129,9.633999824523926 -9.633999824523926,5.321000099182129 -9.633999824523926,0 C-9.633999824523926,-5.321000099182129 -5.321000099182129,-9.633999824523926 0,-9.633999824523926 C5.321000099182129,-9.633999824523926 9.633999824523926,-5.321000099182129 9.633999824523926,0 C9.633999824523926,5.321000099182129 5.321000099182129,9.633999824523926 0,9.633999824523926z"></path></g></g></g></g><g transform="matrix(2.3391001224517822,0,0,2.3391001224517822,-84.77444458007812,-84.77459716796875)" opacity="1" style="display: block;"><g opacity="1" transform="matrix(1,0,0,1,0,0)"><g opacity="1" transform="matrix(1,0,0,1,254.9290008544922,406.2770080566406)"><path fill="rgb(220,230,242)" fill-opacity="1" d=" M52.1870002746582,4.834000110626221 C52.1870002746582,4.834000110626221 -52.1870002746582,4.834000110626221 -52.1870002746582,4.834000110626221 C-52.1870002746582,4.834000110626221 -56.70899963378906,-4.834000110626221 -56.70899963378906,-4.834000110626221 C-56.70899963378906,-4.834000110626221 56.70899963378906,-4.834000110626221 56.70899963378906,-4.834000110626221 C56.70899963378906,-4.834000110626221 52.1870002746582,4.834000110626221 52.1870002746582,4.834000110626221z"></path></g></g></g><g transform="matrix(2.3391001224517822,0,0,2.3391001224517822,-84.77444458007812,-84.77520751953125)" opacity="1" style="display: block;"><g opacity="1" transform="matrix(1,0,0,1,0,0)"><g opacity="1" transform="matrix(1,0,0,1,254.9290008544922,366.8039855957031)"><path fill="rgb(9,208,211)" fill-opacity="1" d=" M20.52199935913086,-34.76499938964844 C20.52199935913086,-34.76499938964844 -20.52199935913086,-34.76499938964844 -20.52199935913086,-34.76499938964844 C-20.52199935913086,-34.76499938964844 -46.88800048828125,34.76499938964844 -46.88800048828125,34.76499938964844 C-46.88800048828125,34.76499938964844 46.88800048828125,34.76499938964844 46.88800048828125,34.76499938964844 C46.88800048828125,34.76499938964844 20.52199935913086,-34.76499938964844 20.52199935913086,-34.76499938964844z"></path></g></g></g><g transform="matrix(2.3391001224517822,0,0,2.3391001224517822,-84.77581787109375,-84.7757568359375)" opacity="1" style="display: block;"><g opacity="1" transform="matrix(1,0,0,1,0,0)"><g opacity="1" transform="matrix(1,0,0,1,259.781005859375,364.3340148925781)" style="mix-blend-mode: multiply;"><path fill="rgb(6,159,161)" fill-opacity="1" d=" M-34.191001892089844,-9.041999816894531 C-34.191001892089844,-9.041999816894531 34.191001892089844,16.54599952697754 34.191001892089844,16.54599952697754 C34.191001892089844,16.54599952697754 21.642000198364258,-16.54599952697754 21.642000198364258,-16.54599952697754 C21.642000198364258,-16.54599952697754 -31.344999313354492,-16.54599952697754 -31.344999313354492,-16.54599952697754 C-31.344999313354492,-16.54599952697754 -34.191001892089844,-9.041999816894531 -34.191001892089844,-9.041999816894531z"></path></g></g></g><g transform="matrix(2.3391001224517822,0,0,2.3391001224517822,-84.77444458007812,-84.77593994140625)" opacity="1" style="display: block;"><g opacity="1" transform="matrix(1,0,0,1,0,0)"><g opacity="1" transform="matrix(1,0,0,1,254.9290008544922,250.04800415039062)"><path fill="rgb(9,209,211)" fill-opacity="1" d=" M136.16900634765625,105.12999725341797 C136.16900634765625,105.12999725341797 -136.16900634765625,105.12999725341797 -136.16900634765625,105.12999725341797 C-139.85499572753906,105.12999725341797 -142.843994140625,102.14099884033203 -142.843994140625,98.45500183105469 C-142.843994140625,98.45500183105469 -142.843994140625,-98.45500183105469 -142.843994140625,-98.45500183105469 C-142.843994140625,-102.14099884033203 -139.85499572753906,-105.12999725341797 -136.16900634765625,-105.12999725341797 C-136.16900634765625,-105.12999725341797 136.16900634765625,-105.12999725341797 136.16900634765625,-105.12999725341797 C139.85499572753906,-105.12999725341797 142.843994140625,-102.14099884033203 142.843994140625,-98.45500183105469 C142.843994140625,-98.45500183105469 142.843994140625,98.45500183105469 142.843994140625,98.45500183105469 C142.843994140625,102.14099884033203 139.85499572753906,105.12999725341797 136.16900634765625,105.12999725341797z"></path></g></g></g><g transform="matrix(2.3391001224517822,0,0,2.3391001224517822,-84.77444458007812,-84.77554321289062)" opacity="1" style="display: block;"><g opacity="1" transform="matrix(1,0,0,1,0,0)"><g opacity="1" transform="matrix(1,0,0,1,254.9290008544922,153.1510009765625)"><path fill="rgb(255,255,255)" fill-opacity="1" d=" M4.449999809265137,0 C4.449999809265137,2.4579999446868896 2.4579999446868896,4.449999809265137 0,4.449999809265137 C-2.4579999446868896,4.449999809265137 -4.449999809265137,2.4579999446868896 -4.449999809265137,0 C-4.449999809265137,-2.4579999446868896 -2.4579999446868896,-4.449999809265137 0,-4.449999809265137 C2.4579999446868896,-4.449999809265137 4.449999809265137,-2.4579999446868896 4.449999809265137,0z"></path></g></g></g><g transform="matrix(2.3391001224517822,0,0,2.3391001224517822,-84.77444458007812,-84.77410888671875)" opacity="1" style="display: block;"><g opacity="1" transform="matrix(1,0,0,1,0,0)"><g opacity="1" transform="matrix(1,0,0,1,254.9290008544922,246.48800659179688)"><path fill="rgb(0,107,120)" fill-opacity="1" d=" M-126.8239974975586,85.5510025024414 C-126.8239974975586,85.5510025024414 -126.8239974975586,-85.5510025024414 -126.8239974975586,-85.5510025024414 C-126.8239974975586,-85.5510025024414 126.8239974975586,-85.5510025024414 126.8239974975586,-85.5510025024414 C126.8239974975586,-85.5510025024414 126.8239974975586,85.5510025024414 126.8239974975586,85.5510025024414 C126.8239974975586,85.5510025024414 -126.8239974975586,85.5510025024414 -126.8239974975586,85.5510025024414z"></path></g></g></g><g transform="matrix(2.3391001224517822,0,0,2.3391001224517822,-84.77389526367188,-84.7744140625)" opacity="1" style="display: block;"><g opacity="1" transform="matrix(1,0,0,1,223.7949981689453,259.8949890136719)" style="mix-blend-mode: multiply;"><path fill="rgb(165,172,186)" fill-opacity="1" d=" M75.64900207519531,-78.31900024414062 C75.64900207519531,-78.31900024414062 -75.64900207519531,-78.31900024414062 -75.64900207519531,-78.31900024414062 C-79.33499908447266,-78.31900024414062 -82.3239974975586,-75.33000183105469 -82.3239974975586,-71.64399719238281 C-82.3239974975586,-71.64399719238281 -82.3239974975586,-67.63899993896484 -82.3239974975586,-67.63899993896484 C-82.3239974975586,-67.63899993896484 -82.3239974975586,78.31900024414062 -82.3239974975586,78.31900024414062 C-82.3239974975586,78.31900024414062 82.3239974975586,78.31900024414062 82.3239974975586,78.31900024414062 C82.3239974975586,78.31900024414062 82.3239974975586,-67.63899993896484 82.3239974975586,-67.63899993896484 C82.3239974975586,-67.63899993896484 82.3239974975586,-71.64399719238281 82.3239974975586,-71.64399719238281 C82.3239974975586,-75.33000183105469 79.33499908447266,-78.31900024414062 75.64900207519531,-78.31900024414062z"></path></g></g><g transform="matrix(2.3391001224517822,0,0,2.3391001224517822,-84.77626037597656,-84.77389526367188)" opacity="1" style="display: block;"><g opacity="1" transform="matrix(1,0,0,1,0,0)"><g opacity="1" transform="matrix(1,0,0,1,217.10499572753906,251.4949951171875)"><path fill="rgb(228,235,253)" fill-opacity="1" d=" M-82.3239974975586,-72.97899627685547 C-82.3239974975586,-72.97899627685547 -82.3239974975586,72.97899627685547 -82.3239974975586,72.97899627685547 C-82.3239974975586,72.97899627685547 82.3239974975586,72.97899627685547 82.3239974975586,72.97899627685547 C82.3239974975586,72.97899627685547 82.3239974975586,-72.97899627685547 82.3239974975586,-72.97899627685547 C82.3239974975586,-72.97899627685547 -82.3239974975586,-72.97899627685547 -82.3239974975586,-72.97899627685547z"></path></g></g></g><g transform="matrix(2.3391001224517822,0,0,2.3391001224517822,-84.77532958984375,-84.774658203125)" opacity="1" style="display: block;"><g opacity="1" transform="matrix(1,0,0,1,0,0)"><g opacity="1" transform="matrix(1,0,0,1,217.10499572753906,173.1750030517578)"><path fill="rgb(0,89,214)" fill-opacity="1" d=" M82.3239974975586,1.3350000381469727 C82.3239974975586,-2.3510000705718994 79.33499908447266,-5.340000152587891 75.64900207519531,-5.340000152587891 C75.64900207519531,-5.340000152587891 -75.64900207519531,-5.340000152587891 -75.64900207519531,-5.340000152587891 C-79.33499908447266,-5.340000152587891 -82.3239974975586,-2.3510000705718994 -82.3239974975586,1.3350000381469727 C-82.3239974975586,1.3350000381469727 -82.3239974975586,5.340000152587891 -82.3239974975586,5.340000152587891 C-82.3239974975586,5.340000152587891 82.3239974975586,5.340000152587891 82.3239974975586,5.340000152587891 C82.3239974975586,5.340000152587891 82.3239974975586,1.3350000381469727 82.3239974975586,1.3350000381469727z"></path></g></g></g><g transform="matrix(1.4608300924301147,0,0,1.4608300924301147,434.52813720703125,640.5819702148438)" opacity="1" style="display: block;"><g opacity="1" transform="matrix(1,0,0,1,0,0)"><path fill="rgb(190,203,235)" fill-opacity="1" d=" M8.727999687194824,3.421999931335449 C8.727999687194824,3.421999931335449 -8.727999687194824,3.421999931335449 -8.727999687194824,3.421999931335449 C-8.727999687194824,3.421999931335449 -8.727999687194824,-3.421999931335449 -8.727999687194824,-3.421999931335449 C-8.727999687194824,-3.421999931335449 8.727999687194824,-3.421999931335449 8.727999687194824,-3.421999931335449 C8.727999687194824,-3.421999931335449 8.727999687194824,3.421999931335449 8.727999687194824,3.421999931335449z"></path></g></g><g transform="matrix(2.02944278717041,0,0,2.02944278717041,392.32708740234375,640.5819702148438)" opacity="1" style="display: block;"><g opacity="1" transform="matrix(1,0,0,1,0,0)"><path fill="rgb(237,30,121)" fill-opacity="1" d=" M5.60699987411499,3.421999931335449 C5.60699987411499,3.421999931335449 -5.60699987411499,3.421999931335449 -5.60699987411499,3.421999931335449 C-5.60699987411499,3.421999931335449 -5.60699987411499,-3.421999931335449 -5.60699987411499,-3.421999931335449 C-5.60699987411499,-3.421999931335449 5.60699987411499,-3.421999931335449 5.60699987411499,-3.421999931335449 C5.60699987411499,-3.421999931335449 5.60699987411499,3.421999931335449 5.60699987411499,3.421999931335449z"></path></g></g><g transform="matrix(2.25016713142395,0,0,2.25016713142395,307.6800231933594,640.5819702148438)" opacity="1" style="display: block;"><g opacity="1" transform="matrix(1,0,0,1,0,0)"><path fill="rgb(190,203,235)" fill-opacity="1" d=" M25.514999389648438,3.421999931335449 C25.514999389648438,3.421999931335449 -25.514999389648438,3.421999931335449 -25.514999389648438,3.421999931335449 C-25.514999389648438,3.421999931335449 -25.514999389648438,-3.421999931335449 -25.514999389648438,-3.421999931335449 C-25.514999389648438,-3.421999931335449 25.514999389648438,-3.421999931335449 25.514999389648438,-3.421999931335449 C25.514999389648438,-3.421999931335449 25.514999389648438,3.421999931335449 25.514999389648438,3.421999931335449z"></path></g></g><g transform="matrix(2.3307368755340576,0,0,2.3307368755340576,414.0269470214844,609.2219848632812)" opacity="1" style="display: block;"><g opacity="1" transform="matrix(1,0,0,1,0,0)"><path fill="rgb(190,203,235)" fill-opacity="1" d=" M20.695999145507812,3.421999931335449 C20.695999145507812,3.421999931335449 -20.695999145507812,3.421999931335449 -20.695999145507812,3.421999931335449 C-20.695999145507812,3.421999931335449 -20.695999145507812,-3.421999931335449 -20.695999145507812,-3.421999931335449 C-20.695999145507812,-3.421999931335449 20.695999145507812,-3.421999931335449 20.695999145507812,-3.421999931335449 C20.695999145507812,-3.421999931335449 20.695999145507812,3.421999931335449 20.695999145507812,3.421999931335449z"></path></g></g><g transform="matrix(2.3391001224517822,0,0,2.3391001224517822,300.46875,609.2219848632812)" opacity="1" style="display: block;"><g opacity="1" transform="matrix(1,0,0,1,0,0)"><path fill="rgb(190,203,235)" fill-opacity="1" d=" M21.461999893188477,3.421999931335449 C21.461999893188477,3.421999931335449 -21.461999893188477,3.421999931335449 -21.461999893188477,3.421999931335449 C-21.461999893188477,3.421999931335449 -21.461999893188477,-3.421999931335449 -21.461999893188477,-3.421999931335449 C-21.461999893188477,-3.421999931335449 21.461999893188477,-3.421999931335449 21.461999893188477,-3.421999931335449 C21.461999893188477,-3.421999931335449 21.461999893188477,3.421999931335449 21.461999893188477,3.421999931335449z"></path></g></g><g transform="matrix(2.3391001224517822,0,0,2.3391001224517822,412.97076416015625,577.8619995117188)" opacity="1" style="display: block;"><g opacity="1" transform="matrix(1,0,0,1,0,0)"><path fill="rgb(251,176,59)" fill-opacity="1" d=" M11.001999855041504,3.421999931335449 C11.001999855041504,3.421999931335449 -11.001999855041504,3.421999931335449 -11.001999855041504,3.421999931335449 C-11.001999855041504,3.421999931335449 -11.001999855041504,-3.421999931335449 -11.001999855041504,-3.421999931335449 C-11.001999855041504,-3.421999931335449 11.001999855041504,-3.421999931335449 11.001999855041504,-3.421999931335449 C11.001999855041504,-3.421999931335449 11.001999855041504,3.421999931335449 11.001999855041504,3.421999931335449z"></path></g></g><g transform="matrix(2.3391001224517822,0,0,2.3391001224517822,313.7969665527344,577.8619995117188)" opacity="1" style="display: block;"><g opacity="1" transform="matrix(1,0,0,1,0,0)"><path fill="rgb(190,203,235)" fill-opacity="1" d=" M27.15999984741211,3.421999931335449 C27.15999984741211,3.421999931335449 -27.15999984741211,3.421999931335449 -27.15999984741211,3.421999931335449 C-27.15999984741211,3.421999931335449 -27.15999984741211,-3.421999931335449 -27.15999984741211,-3.421999931335449 C-27.15999984741211,-3.421999931335449 27.15999984741211,-3.421999931335449 27.15999984741211,-3.421999931335449 C27.15999984741211,-3.421999931335449 27.15999984741211,3.421999931335449 27.15999984741211,3.421999931335449z"></path></g></g><g transform="matrix(2.3391001224517822,0,0,2.3391001224517822,356.4387512207031,546.5029907226562)" opacity="1" style="display: block;"><g opacity="1" transform="matrix(1,0,0,1,0,0)"><path fill="rgb(190,203,235)" fill-opacity="1" d=" M45.38999938964844,3.421999931335449 C45.38999938964844,3.421999931335449 -45.38999938964844,3.421999931335449 -45.38999938964844,3.421999931335449 C-45.38999938964844,3.421999931335449 -45.38999938964844,-3.421999931335449 -45.38999938964844,-3.421999931335449 C-45.38999938964844,-3.421999931335449 45.38999938964844,-3.421999931335449 45.38999938964844,-3.421999931335449 C45.38999938964844,-3.421999931335449 45.38999938964844,3.421999931335449 45.38999938964844,3.421999931335449z"></path></g></g><g transform="matrix(2.3391001224517822,0,0,2.3391001224517822,356.4387512207031,515.1430053710938)" opacity="1" style="display: block;"><g opacity="1" transform="matrix(1,0,0,1,0,0)"><path fill="rgb(190,203,235)" fill-opacity="1" d=" M45.38999938964844,3.421999931335449 C45.38999938964844,3.421999931335449 -45.38999938964844,3.421999931335449 -45.38999938964844,3.421999931335449 C-45.38999938964844,3.421999931335449 -45.38999938964844,-3.421999931335449 -45.38999938964844,-3.421999931335449 C-45.38999938964844,-3.421999931335449 45.38999938964844,-3.421999931335449 45.38999938964844,-3.421999931335449 C45.38999938964844,-3.421999931335449 45.38999938964844,3.421999931335449 45.38999938964844,3.421999931335449z"></path></g></g><g transform="matrix(2.337082862854004,0,0,2.337082862854004,-84.48918151855469,-84.39651489257812)" opacity="1" style="display: block;"><g opacity="1" transform="matrix(1,0,0,1,0,0)"><g opacity="1" transform="matrix(1,0,0,1,188.625,218.06399536132812)"><path fill="rgb(10,29,69)" fill-opacity="1" d=" M39.167999267578125,22.860000610351562 C39.167999267578125,22.860000610351562 -39.167999267578125,22.860000610351562 -39.167999267578125,22.860000610351562 C-39.167999267578125,22.860000610351562 -39.167999267578125,-22.860000610351562 -39.167999267578125,-22.860000610351562 C-39.167999267578125,-22.860000610351562 39.167999267578125,-22.860000610351562 39.167999267578125,-22.860000610351562 C39.167999267578125,-22.860000610351562 39.167999267578125,22.860000610351562 39.167999267578125,22.860000610351562z"></path></g><g opacity="1" transform="matrix(1,0,0,1,0,0)"><g opacity="1" transform="matrix(1,0,0,1,182.6219940185547,221.3719940185547)"><path fill="rgb(19,55,133)" fill-opacity="1" d=" M13.907999992370605,-8.980999946594238 C13.907999992370605,-8.980999946594238 5.01800012588501,9.843000411987305 5.01800012588501,9.843000411987305 C5.01800012588501,9.843000411987305 -8.86400032043457,-19.552000045776367 -8.86400032043457,-19.552000045776367 C-8.86400032043457,-19.552000045776367 -27.33099937438965,19.552000045776367 -27.33099937438965,19.552000045776367 C-27.33099937438965,19.552000045776367 9.602999687194824,19.552000045776367 9.602999687194824,19.552000045776367 C9.602999687194824,19.552000045776367 9.552000045776367,19.441999435424805 9.552000045776367,19.441999435424805 C9.552000045776367,19.441999435424805 27.33099937438965,19.441999435424805 27.33099937438965,19.441999435424805 C27.33099937438965,19.441999435424805 13.907999992370605,-8.980999946594238 13.907999992370605,-8.980999946594238z"></path></g><g opacity="1" transform="matrix(1,0,0,1,215.0590057373047,207.10000610351562)"><path fill="rgb(251,176,59)" fill-opacity="1" d=" M0,-6.901000022888184 C-3.811000108718872,-6.901000022888184 -6.901000022888184,-3.811000108718872 -6.901000022888184,0 C-6.901000022888184,3.811000108718872 -3.811000108718872,6.901000022888184 0,6.901000022888184 C3.811000108718872,6.901000022888184 6.901000022888184,3.811000108718872 6.901000022888184,0 C6.901000022888184,-3.811000108718872 3.811000108718872,-6.901000022888184 0,-6.901000022888184z"></path></g></g></g></g><g transform="matrix(2.337082862854004,0,0,2.337082862854004,-84.39425659179688,-84.33462524414062)" opacity="1" style="display: block;"><g opacity="1" transform="matrix(1,0,0,1,0,0)"><g opacity="1" transform="matrix(1,0,0,1,188.625,218.06399536132812)"><path stroke-linecap="butt" stroke-linejoin="miter" fill-opacity="0" stroke-miterlimit="10" stroke-dasharray=" 2.67 2.67" stroke-dashoffset="0" stroke="rgb(0,104,250)" stroke-opacity="1" stroke-width="0.667" d=" M45.38999938964844,28.423999786376953 C45.38999938964844,28.423999786376953 -45.38999938964844,28.423999786376953 -45.38999938964844,28.423999786376953 C-45.38999938964844,28.423999786376953 -45.38999938964844,-28.423999786376953 -45.38999938964844,-28.423999786376953 C-45.38999938964844,-28.423999786376953 45.38999938964844,-28.423999786376953 45.38999938964844,-28.423999786376953 C45.38999938964844,-28.423999786376953 45.38999938964844,28.423999786376953 45.38999938964844,28.423999786376953z"></path></g></g></g><g transform="matrix(2.337082862854004,0,0,2.337082862854004,-84.39425659179688,-84.33462524414062)" opacity="1" style="display: block;"><g opacity="1" transform="matrix(1,0,0,1,0,0)"><g opacity="1" transform="matrix(1,0,0,1,0,0)"><g opacity="1" transform="matrix(1,0,0,1,0,0)"><g opacity="1" transform="matrix(1,0,0,1,234.01499938964844,189.63999938964844)"><path fill="rgb(10,29,69)" fill-opacity="1" d=" M1.562999963760376,1.562999963760376 C1.562999963760376,1.562999963760376 -1.562999963760376,1.562999963760376 -1.562999963760376,1.562999963760376 C-1.562999963760376,1.562999963760376 -1.562999963760376,-1.562999963760376 -1.562999963760376,-1.562999963760376 C-1.562999963760376,-1.562999963760376 1.562999963760376,-1.562999963760376 1.562999963760376,-1.562999963760376 C1.562999963760376,-1.562999963760376 1.562999963760376,1.562999963760376 1.562999963760376,1.562999963760376z"></path></g><g opacity="1" transform="matrix(1,0,0,1,143.23599243164062,189.63999938964844)"><path fill="rgb(10,29,69)" fill-opacity="1" d=" M1.5640000104904175,1.562999963760376 C1.5640000104904175,1.562999963760376 -1.5640000104904175,1.562999963760376 -1.5640000104904175,1.562999963760376 C-1.5640000104904175,1.562999963760376 -1.5640000104904175,-1.562999963760376 -1.5640000104904175,-1.562999963760376 C-1.5640000104904175,-1.562999963760376 1.5640000104904175,-1.562999963760376 1.5640000104904175,-1.562999963760376 C1.5640000104904175,-1.562999963760376 1.5640000104904175,1.562999963760376 1.5640000104904175,1.562999963760376z"></path></g></g><g opacity="1" transform="matrix(1,0,0,1,0,0)"><g opacity="1" transform="matrix(1,0,0,1,234.01499938964844,246.48800659179688)"><path fill="rgb(10,29,69)" fill-opacity="1" d=" M1.562999963760376,1.5640000104904175 C1.562999963760376,1.5640000104904175 -1.562999963760376,1.5640000104904175 -1.562999963760376,1.5640000104904175 C-1.562999963760376,1.5640000104904175 -1.562999963760376,-1.5640000104904175 -1.562999963760376,-1.5640000104904175 C-1.562999963760376,-1.5640000104904175 1.562999963760376,-1.5640000104904175 1.562999963760376,-1.5640000104904175 C1.562999963760376,-1.5640000104904175 1.562999963760376,1.5640000104904175 1.562999963760376,1.5640000104904175z"></path></g><g opacity="1" transform="matrix(1,0,0,1,143.23599243164062,246.48800659179688)"><path fill="rgb(10,29,69)" fill-opacity="1" d=" M1.5640000104904175,1.5640000104904175 C1.5640000104904175,1.5640000104904175 -1.5640000104904175,1.5640000104904175 -1.5640000104904175,1.5640000104904175 C-1.5640000104904175,1.5640000104904175 -1.5640000104904175,-1.5640000104904175 -1.5640000104904175,-1.5640000104904175 C-1.5640000104904175,-1.5640000104904175 1.5640000104904175,-1.5640000104904175 1.5640000104904175,-1.5640000104904175 C1.5640000104904175,-1.5640000104904175 1.5640000104904175,1.5640000104904175 1.5640000104904175,1.5640000104904175z"></path></g></g></g></g></g><g transform="matrix(0.6050838232040405,-0.13969460129737854,0.13969460129737854,0.6050838232040405,459.8940124511719,489.1319885253906)" opacity="0.5" style="display: none;"><g opacity="1" transform="matrix(1,0,0,1,0,0)"><path fill="rgb(0,89,214)" fill-opacity="1" d=" M0.16699999570846558,0.16699999570846558 C0.16699999570846558,0.16699999570846558 0,66.33300018310547 0,66.33300018310547 C0,66.33300018310547 13.5,54.16699981689453 13.5,54.16699981689453 C13.5,54.16699981689453 22.83300018310547,76.66699981689453 22.83300018310547,76.66699981689453 C22.83300018310547,76.66699981689453 38.33300018310547,69.33300018310547 38.33300018310547,69.33300018310547 C38.33300018310547,69.33300018310547 29.16699981689453,48.33300018310547 29.16699981689453,48.33300018310547 C29.16699981689453,48.33300018310547 48.16699981689453,48.66699981689453 48.16699981689453,48.66699981689453 C48.16699981689453,48.66699981689453 0.16699999570846558,0.16699999570846558 0.16699999570846558,0.16699999570846558z"></path></g></g><g transform="matrix(2.302927017211914,0,0,2.302927017211914,-74.270751953125,-75.59844970703125)" opacity="1" style="display: block;"><g opacity="1" transform="matrix(1,0,0,1,0,0)"><g opacity="1" transform="matrix(1,0,0,1,266.3890075683594,286.7239990234375)"><path fill="rgb(255,255,255)" fill-opacity="1" d=" M20.635000228881836,29.652999877929688 C20.635000228881836,29.652999877929688 -20.635000228881836,29.652999877929688 -20.635000228881836,29.652999877929688 C-20.635000228881836,29.652999877929688 -20.635000228881836,-29.652999877929688 -20.635000228881836,-29.652999877929688 C-20.635000228881836,-29.652999877929688 20.635000228881836,-29.652999877929688 20.635000228881836,-29.652999877929688 C20.635000228881836,-29.652999877929688 20.635000228881836,29.652999877929688 20.635000228881836,29.652999877929688z"></path></g><g opacity="1" transform="matrix(1,0,0,1,266.3890075683594,286.7239990234375)"><path fill="rgb(47,203,224)" fill-opacity="1" d=" M16.4060001373291,26.159000396728516 C16.4060001373291,26.159000396728516 -16.4060001373291,26.159000396728516 -16.4060001373291,26.159000396728516 C-16.4060001373291,26.159000396728516 -16.4060001373291,-26.159000396728516 -16.4060001373291,-26.159000396728516 C-16.4060001373291,-26.159000396728516 16.4060001373291,-26.159000396728516 16.4060001373291,-26.159000396728516 C16.4060001373291,-26.159000396728516 16.4060001373291,26.159000396728516 16.4060001373291,26.159000396728516z"></path></g><g opacity="1" transform="matrix(1,0,0,1,266.3890075683594,286.7239990234375)"><g opacity="1" transform="matrix(1,0,0,1,0,0)"><path fill="rgb(0,0,0)" fill-opacity="1" d=" M-1.9830000400543213,-19.18000030517578 C-1.9830000400543213,-19.18000030517578 1.3289999961853027,-19.18000030517578 1.3289999961853027,-19.18000030517578 C1.3289999961853027,-19.18000030517578 8.151000022888184,19.18000030517578 8.151000022888184,19.18000030517578 C8.151000022888184,19.18000030517578 5.01200008392334,19.18000030517578 5.01200008392334,19.18000030517578 C5.01200008392334,19.18000030517578 3.747999906539917,11.39900016784668 3.747999906539917,11.39900016784668 C3.747999906539917,11.39900016784668 -3.9230000972747803,11.39900016784668 -3.9230000972747803,11.39900016784668 C-3.9230000972747803,11.39900016784668 -5.078999996185303,19.18000030517578 -5.078999996185303,19.18000030517578 C-5.078999996185303,19.18000030517578 -8.151000022888184,19.18000030517578 -8.151000022888184,19.18000030517578 C-8.151000022888184,19.18000030517578 -1.9830000400543213,-19.18000030517578 -1.9830000400543213,-19.18000030517578z M3.313999891281128,8.718999862670898 C3.313999891281128,8.718999862670898 -0.21799999475479126,-12.991000175476074 -0.21799999475479126,-12.991000175476074 C-0.21799999475479126,-12.991000175476074 -0.26100000739097595,-12.991000175476074 -0.26100000739097595,-12.991000175476074 C-0.26100000739097595,-12.991000175476074 -3.507999897003174,8.718999862670898 -3.507999897003174,8.718999862670898 C-3.507999897003174,8.718999862670898 3.313999891281128,8.718999862670898 3.313999891281128,8.718999862670898z"></path></g></g></g></g><g transform="matrix(2.302927017211914,0,0,2.302927017211914,-74.270751953125,-75.59844970703125)" opacity="1" style="display: block;"><g opacity="1" transform="matrix(1,0,0,1,266.3890075683594,286.7239990234375)"><path stroke-linecap="butt" stroke-linejoin="miter" fill-opacity="0" stroke-miterlimit="10" stroke-dasharray=" 2.67 2.67" stroke-dashoffset="0" stroke="rgb(0,104,250)" stroke-opacity="1" stroke-width="0.667" d=" M24.030000686645508,33.04100036621094 C24.030000686645508,33.04100036621094 -24.030000686645508,33.04100036621094 -24.030000686645508,33.04100036621094 C-24.030000686645508,33.04100036621094 -24.030000686645508,-33.04100036621094 -24.030000686645508,-33.04100036621094 C-24.030000686645508,-33.04100036621094 24.030000686645508,-33.04100036621094 24.030000686645508,-33.04100036621094 C24.030000686645508,-33.04100036621094 24.030000686645508,33.04100036621094 24.030000686645508,33.04100036621094z"></path></g></g><g transform="matrix(2.339099884033203,0,0,2.339099884033203,733.239990234375,515.7269897460938)" opacity="1" style="display: block;"><g opacity="1" transform="matrix(1,0,0,1,0,0)"><path stroke-linecap="butt" stroke-linejoin="miter" fill-opacity="0" stroke-miterlimit="10" stroke-dasharray=" 2.67 2.67" stroke-dashoffset="0" stroke="rgb(60,59,60)" stroke-opacity="1" stroke-width="1.335" d=" M54.73400115966797,-105.12999725341797 C54.73400115966797,-105.12999725341797 54.73400115966797,91.77999877929688 54.73400115966797,91.77999877929688 C54.73400115966797,99.14099884033203 48.74599838256836,105.12999725341797 41.3849983215332,105.12999725341797 C41.3849983215332,105.12999725341797 -54.73400115966797,105.12999725341797 -54.73400115966797,105.12999725341797"></path></g></g><g transform="matrix(2.339099884033203,0,0,2.339099884033203,733.239990234375,515.7269897460938)" opacity="1" style="display: block;"><g opacity="1" transform="matrix(1,0,0,1,0,0)"><path stroke-linecap="butt" stroke-linejoin="miter" fill-opacity="0" stroke-miterlimit="10" stroke-dasharray=" 2.67 2.67" stroke-dashoffset="0" stroke="rgb(60,59,60)" stroke-opacity="1" stroke-width="1.335" d=" M54.73400115966797,-61.54999923706055 C54.73400115966797,-3.549999952316284 54.73400115966797,91.77999877929688 54.73400115966797,91.77999877929688 C54.73400115966797,99.14099884033203 48.74599838256836,105.12999725341797 41.3849983215332,105.12999725341797 C41.3849983215332,105.12999725341797 -54.73400115966797,105.12999725341797 -54.73400115966797,105.12999725341797 M54.73400115966797,-105.12999725341797 C54.73400115966797,-105.12999725341797 54.73400115966797,-86.90799713134766 54.73400115966797,-61.54999923706055"></path></g></g><g transform="matrix(2.339099884033203,0,0,2.339099884033203,290.0299987792969,466.0260009765625)" opacity="1" style="display: block;"><g opacity="1" transform="matrix(1,0,0,1,0,0)"><path stroke-linecap="butt" stroke-linejoin="miter" fill-opacity="0" stroke-miterlimit="10" stroke-dasharray=" 2.67 2.67" stroke-dashoffset="0" stroke="rgb(59,59,60)" stroke-opacity="1" stroke-width="1.335" d=" M-54.82400131225586,97.23200225830078 C-54.82400131225586,97.23200225830078 -54.82400131225586,-83.88300323486328 -54.82400131225586,-83.88300323486328 C-54.82400131225586,-91.24400329589844 -48.834999084472656,-97.23200225830078 -41.4739990234375,-97.23200225830078 C-41.4739990234375,-97.23200225830078 54.82400131225586,-97.23200225830078 54.82400131225586,-97.23200225830078"></path></g></g><g transform="matrix(2.339099884033203,0,0,2.339099884033203,290.0299987792969,466.0260009765625)" opacity="1" style="display: block;"><g opacity="1" transform="matrix(1,0,0,1,0,0)"><path stroke-linecap="butt" stroke-linejoin="miter" fill-opacity="0" stroke-miterlimit="10" stroke-dasharray=" 2.67 2.67" stroke-dashoffset="0" stroke="rgb(60,59,60)" stroke-opacity="1" stroke-width="1.335" d=" M-54.82400131225586,55.81800079345703 C-54.82400131225586,2.3570001125335693 -54.82400131225586,-83.88300323486328 -54.82400131225586,-83.88300323486328 C-54.82400131225586,-91.24400329589844 -48.834999084472656,-97.23200225830078 -41.4739990234375,-97.23200225830078 C-41.4739990234375,-97.23200225830078 54.82400131225586,-97.23200225830078 54.82400131225586,-97.23200225830078 M-54.82400131225586,97.23200225830078 C-54.82400131225586,97.23200225830078 -54.82400131225586,79.83200073242188 -54.82400131225586,55.81800079345703"></path></g></g><g transform="matrix(2.302927017211914,0,0,2.302927017211914,536.1099853515625,480.781005859375)" opacity="1" style="display: block;"><g opacity="1" transform="matrix(1,0,0,1,0,0)"><path fill="rgb(190,203,235)" fill-opacity="1" d=" M21.860000610351562,3.421999931335449 C21.860000610351562,3.421999931335449 -21.860000610351562,3.421999931335449 -21.860000610351562,3.421999931335449 C-21.860000610351562,3.421999931335449 -21.860000610351562,-3.421999931335449 -21.860000610351562,-3.421999931335449 C-21.860000610351562,-3.421999931335449 21.860000610351562,-3.421999931335449 21.860000610351562,-3.421999931335449 C21.860000610351562,-3.421999931335449 21.860000610351562,3.421999931335449 21.860000610351562,3.421999931335449z"></path></g></g><g transform="matrix(2.3391001224517822,0,0,2.3391001224517822,536.9007568359375,452.2900085449219)" opacity="1" style="display: block;"><g opacity="1" transform="matrix(1,0,0,1,0,0)"><path fill="rgb(190,203,235)" fill-opacity="1" d=" M21.860000610351562,3.421999931335449 C21.860000610351562,3.421999931335449 -21.860000610351562,3.421999931335449 -21.860000610351562,3.421999931335449 C-21.860000610351562,3.421999931335449 -21.860000610351562,-3.421999931335449 -21.860000610351562,-3.421999931335449 C-21.860000610351562,-3.421999931335449 21.860000610351562,-3.421999931335449 21.860000610351562,-3.421999931335449 C21.860000610351562,-3.421999931335449 21.860000610351562,3.421999931335449 21.860000610351562,3.421999931335449z"></path></g></g><g transform="matrix(2.3391001224517822,0,0,2.3391001224517822,536.9007568359375,423.79901123046875)" opacity="1" style="display: block;"><g opacity="1" transform="matrix(1,0,0,1,0,0)"><path fill="rgb(190,203,235)" fill-opacity="1" d=" M21.860000610351562,3.421999931335449 C21.860000610351562,3.421999931335449 -21.860000610351562,3.421999931335449 -21.860000610351562,3.421999931335449 C-21.860000610351562,3.421999931335449 -21.860000610351562,-3.421999931335449 -21.860000610351562,-3.421999931335449 C-21.860000610351562,-3.421999931335449 21.860000610351562,-3.421999931335449 21.860000610351562,-3.421999931335449 C21.860000610351562,-3.421999931335449 21.860000610351562,3.421999931335449 21.860000610351562,3.421999931335449z"></path></g></g><g transform="matrix(2.3391001224517822,0,0,2.3391001224517822,536.9007568359375,395.3070068359375)" opacity="1" style="display: block;"><g opacity="1" transform="matrix(1,0,0,1,0,0)"><path fill="rgb(190,203,235)" fill-opacity="1" d=" M21.860000610351562,3.421999931335449 C21.860000610351562,3.421999931335449 -21.860000610351562,3.421999931335449 -21.860000610351562,3.421999931335449 C-21.860000610351562,3.421999931335449 -21.860000610351562,-3.421999931335449 -21.860000610351562,-3.421999931335449 C-21.860000610351562,-3.421999931335449 21.860000610351562,-3.421999931335449 21.860000610351562,-3.421999931335449 C21.860000610351562,-3.421999931335449 21.860000610351562,3.421999931335449 21.860000610351562,3.421999931335449z"></path></g></g><g transform="matrix(2.3391001224517822,0,0,2.3391001224517822,536.9007568359375,366.8160095214844)" opacity="1" style="display: block;"><g opacity="1" transform="matrix(1,0,0,1,0,0)"><path fill="rgb(190,203,235)" fill-opacity="1" d=" M21.860000610351562,3.421999931335449 C21.860000610351562,3.421999931335449 -21.860000610351562,3.421999931335449 -21.860000610351562,3.421999931335449 C-21.860000610351562,3.421999931335449 -21.860000610351562,-3.421999931335449 -21.860000610351562,-3.421999931335449 C-21.860000610351562,-3.421999931335449 21.860000610351562,-3.421999931335449 21.860000610351562,-3.421999931335449 C21.860000610351562,-3.421999931335449 21.860000610351562,3.421999931335449 21.860000610351562,3.421999931335449z"></path></g></g><g transform="matrix(2.3391001224517822,0,0,2.3391001224517822,766.8101806640625,566.8939819335938)" opacity="1" style="display: block;"><g opacity="1" transform="matrix(1,0,0,1,0,0)"><path fill="rgb(220,230,242)" fill-opacity="1" d=" M45.388999938964844,23.514999389648438 C45.388999938964844,23.514999389648438 -45.388999938964844,23.514999389648438 -45.388999938964844,23.514999389648438 C-46.86399841308594,23.514999389648438 -48.058998107910156,22.31999969482422 -48.058998107910156,20.844999313354492 C-48.058998107910156,20.844999313354492 -48.058998107910156,-20.844999313354492 -48.058998107910156,-20.844999313354492 C-48.058998107910156,-22.31999969482422 -46.86399841308594,-23.514999389648438 -45.388999938964844,-23.514999389648438 C-45.388999938964844,-23.514999389648438 45.388999938964844,-23.514999389648438 45.388999938964844,-23.514999389648438 C46.86399841308594,-23.514999389648438 48.058998107910156,-22.31999969482422 48.058998107910156,-20.844999313354492 C48.058998107910156,-20.844999313354492 48.058998107910156,20.844999313354492 48.058998107910156,20.844999313354492 C48.058998107910156,22.31999969482422 46.86399841308594,23.514999389648438 45.388999938964844,23.514999389648438z"></path></g></g><g transform="matrix(0,0,0,0,893.8109741210938,497.3039855957031)" opacity="1" style="display: block;"><g opacity="1" transform="matrix(1,0,0,1,364.06500244140625,278.5979919433594)"><path stroke-linecap="butt" stroke-linejoin="miter" fill-opacity="0" stroke-miterlimit="10" stroke-dasharray=" 2.67 2.67" stroke-dashoffset="0" stroke="rgb(9,209,211)" stroke-opacity="1" stroke-width="1" d=" M52.73099899291992,28.187000274658203 C52.73099899291992,28.187000274658203 -52.73099899291992,28.187000274658203 -52.73099899291992,28.187000274658203 C-52.73099899291992,28.187000274658203 -52.73099899291992,-28.187000274658203 -52.73099899291992,-28.187000274658203 C-52.73099899291992,-28.187000274658203 52.73099899291992,-28.187000274658203 52.73099899291992,-28.187000274658203 C52.73099899291992,-28.187000274658203 52.73099899291992,28.187000274658203 52.73099899291992,28.187000274658203z"></path></g></g><g transform="matrix(0,0,0,0,766.8099975585938,566.8939819335938)" opacity="1" style="display: block;"><g opacity="1" transform="matrix(1,0,0,1,0,0)"><g opacity="1" transform="matrix(1,0,0,1,0,0)"><g opacity="1" transform="matrix(1,0,0,1,416.7969970703125,250.41099548339844)"><path fill="rgb(220,230,242)" fill-opacity="1" d=" M1.5640000104904175,1.5640000104904175 C1.5640000104904175,1.5640000104904175 -1.5640000104904175,1.5640000104904175 -1.5640000104904175,1.5640000104904175 C-1.5640000104904175,1.5640000104904175 -1.5640000104904175,-1.5640000104904175 -1.5640000104904175,-1.5640000104904175 C-1.5640000104904175,-1.5640000104904175 1.5640000104904175,-1.5640000104904175 1.5640000104904175,-1.5640000104904175 C1.5640000104904175,-1.5640000104904175 1.5640000104904175,1.5640000104904175 1.5640000104904175,1.5640000104904175z"></path></g><g opacity="1" transform="matrix(1,0,0,1,311.3340148925781,250.41099548339844)"><path fill="rgb(220,230,242)" fill-opacity="1" d=" M1.562999963760376,1.5640000104904175 C1.562999963760376,1.5640000104904175 -1.562999963760376,1.5640000104904175 -1.562999963760376,1.5640000104904175 C-1.562999963760376,1.5640000104904175 -1.562999963760376,-1.5640000104904175 -1.562999963760376,-1.5640000104904175 C-1.562999963760376,-1.5640000104904175 1.562999963760376,-1.5640000104904175 1.562999963760376,-1.5640000104904175 C1.562999963760376,-1.5640000104904175 1.562999963760376,1.5640000104904175 1.562999963760376,1.5640000104904175z"></path></g></g><g opacity="1" transform="matrix(1,0,0,1,0,0)"><g opacity="1" transform="matrix(1,0,0,1,416.7969970703125,306.7850036621094)"><path fill="rgb(220,230,242)" fill-opacity="1" d=" M1.5640000104904175,1.562999963760376 C1.5640000104904175,1.562999963760376 -1.5640000104904175,1.562999963760376 -1.5640000104904175,1.562999963760376 C-1.5640000104904175,1.562999963760376 -1.5640000104904175,-1.562999963760376 -1.5640000104904175,-1.562999963760376 C-1.5640000104904175,-1.562999963760376 1.5640000104904175,-1.562999963760376 1.5640000104904175,-1.562999963760376 C1.5640000104904175,-1.562999963760376 1.5640000104904175,1.562999963760376 1.5640000104904175,1.562999963760376z"></path></g><g opacity="1" transform="matrix(1,0,0,1,311.3340148925781,306.7850036621094)"><path fill="rgb(220,230,242)" fill-opacity="1" d=" M1.562999963760376,1.562999963760376 C1.562999963760376,1.562999963760376 -1.562999963760376,1.562999963760376 -1.562999963760376,1.562999963760376 C-1.562999963760376,1.562999963760376 -1.562999963760376,-1.562999963760376 -1.562999963760376,-1.562999963760376 C-1.562999963760376,-1.562999963760376 1.562999963760376,-1.562999963760376 1.562999963760376,-1.562999963760376 C1.562999963760376,-1.562999963760376 1.562999963760376,1.562999963760376 1.562999963760376,1.562999963760376z"></path></g></g></g></g><g transform="matrix(0.6133544445037842,-0.09714580327272415,0.09714580327272415,0.6133544445037842,889.1599731445312,502.07000732421875)" opacity="1" style="display: block;"><g opacity="1" transform="matrix(1,0,0,1,0,0)"><path fill="rgb(0,89,214)" fill-opacity="1" d=" M0.16699999570846558,0.16699999570846558 C0.16699999570846558,0.16699999570846558 0,66.33300018310547 0,66.33300018310547 C0,66.33300018310547 13.5,54.16699981689453 13.5,54.16699981689453 C13.5,54.16699981689453 22.83300018310547,76.66699981689453 22.83300018310547,76.66699981689453 C22.83300018310547,76.66699981689453 38.33300018310547,69.33300018310547 38.33300018310547,69.33300018310547 C38.33300018310547,69.33300018310547 29.16699981689453,48.33300018310547 29.16699981689453,48.33300018310547 C29.16699981689453,48.33300018310547 48.16699981689453,48.66699981689453 48.16699981689453,48.66699981689453 C48.16699981689453,48.66699981689453 0.16699999570846558,0.16699999570846558 0.16699999570846558,0.16699999570846558z"></path></g></g><g transform="matrix(2.298558473587036,-0.02494886890053749,0.02494886890053749,2.298558473587036,-78.18670654296875,-65.1483154296875)" opacity="1" style="display: block;"><g opacity="1" transform="matrix(1,0,0,1,333.9410095214844,269.57598876953125)"><path fill="rgb(10,29,69)" fill-opacity="1" d=" M0,-6.260000228881836 C0,-6.260000228881836 0,-6.260000228881836 0,-6.260000228881836 C-5.257999897003174,-6.260000228881836 -9.520000457763672,-1.9980000257492065 -9.520000457763672,3.259999990463257 C-9.520000457763672,3.259999990463257 -9.520000457763672,6.260000228881836 -9.520000457763672,6.260000228881836 C-9.520000457763672,6.260000228881836 -6.493000030517578,6.260000228881836 -6.493000030517578,6.260000228881836 C-6.493000030517578,6.260000228881836 -6.493000030517578,2.9560000896453857 -6.493000030517578,2.9560000896453857 C-6.493000030517578,-0.6299999952316284 -3.5859999656677246,-3.5360000133514404 0,-3.5360000133514404 C0,-3.5360000133514404 0,-3.5360000133514404 0,-3.5360000133514404 C3.5859999656677246,-3.5360000133514404 6.493000030517578,-0.6299999952316284 6.493000030517578,2.9560000896453857 C6.493000030517578,2.9560000896453857 6.493000030517578,6.260000228881836 6.493000030517578,6.260000228881836 C6.493000030517578,6.260000228881836 9.520000457763672,6.260000228881836 9.520000457763672,6.260000228881836 C9.520000457763672,6.260000228881836 9.520000457763672,3.259999990463257 9.520000457763672,3.259999990463257 C9.520000457763672,-1.9980000257492065 5.257999897003174,-6.260000228881836 0,-6.260000228881836z"></path></g><g opacity="1" transform="matrix(1,0,0,1,333.9410095214844,284.8580017089844)"><path fill="rgb(251,191,98)" fill-opacity="1" d=" M9.449000358581543,-9.022000312805176 C9.449000358581543,-9.022000312805176 -9.449000358581543,-9.022000312805176 -9.449000358581543,-9.022000312805176 C-10.145000457763672,-9.022000312805176 -10.710000038146973,-8.456999778747559 -10.710000038146973,-7.761000156402588 C-10.710000038146973,-7.761000156402588 -10.710000038146973,7.761000156402588 -10.710000038146973,7.761000156402588 C-10.710000038146973,8.458000183105469 -10.145000457763672,9.022000312805176 -9.449000358581543,9.022000312805176 C-9.449000358581543,9.022000312805176 9.449000358581543,9.022000312805176 9.449000358581543,9.022000312805176 C10.145000457763672,9.022000312805176 10.710000038146973,8.458000183105469 10.710000038146973,7.761000156402588 C10.710000038146973,7.761000156402588 10.710000038146973,-7.761000156402588 10.710000038146973,-7.761000156402588 C10.710000038146973,-8.456999778747559 10.145000457763672,-9.022000312805176 9.449000358581543,-9.022000312805176z M1.437000036239624,3.375999927520752 C1.437000036239624,3.375999927520752 -1.437000036239624,3.375999927520752 -1.437000036239624,3.375999927520752 C-1.437000036239624,3.375999927520752 -1.065000057220459,0.22200000286102295 -1.065000057220459,0.22200000286102295 C-1.6009999513626099,-0.12700000405311584 -1.9570000171661377,-0.7310000061988831 -1.9570000171661377,-1.4190000295639038 C-1.9570000171661377,-2.5 -1.0809999704360962,-3.375999927520752 0,-3.375999927520752 C1.0809999704360962,-3.375999927520752 1.9570000171661377,-2.5 1.9570000171661377,-1.4190000295639038 C1.9570000171661377,-0.7310000061988831 1.6009999513626099,-0.12700000405311584 1.065000057220459,0.22200000286102295 C1.065000057220459,0.22200000286102295 1.437000036239624,3.375999927520752 1.437000036239624,3.375999927520752z"></path></g></g><g transform="matrix(0,0,0,0,737.9240112304688,602.427978515625)" opacity="1" style="display: none;"><g opacity="1" transform="matrix(1,0,0,1,0,0)"><path fill="rgb(190,203,235)" fill-opacity="1" d=" M-28.617000579833984,-2.9049999713897705 C-28.617000579833984,-2.9049999713897705 -28.617000579833984,2.9049999713897705 -28.617000579833984,2.9049999713897705 C-28.617000579833984,2.9049999713897705 28.617000579833984,2.9049999713897705 28.617000579833984,2.9049999713897705 C28.617000579833984,2.9049999713897705 28.617000579833984,-2.9049999713897705 28.617000579833984,-2.9049999713897705 C28.617000579833984,-2.9049999713897705 -28.617000579833984,-2.9049999713897705 -28.617000579833984,-2.9049999713897705z"></path></g></g><g transform="matrix(0,0,0,0,836.656982421875,580.0670166015625)" opacity="1" style="display: none;"><g opacity="1" transform="matrix(1,0,0,1,0,0)"><path fill="rgb(190,203,235)" fill-opacity="1" d=" M-6.456999778747559,2.9049999713897705 C-6.456999778747559,2.9049999713897705 6.456999778747559,2.9049999713897705 6.456999778747559,2.9049999713897705 C6.456999778747559,2.9049999713897705 6.456999778747559,-2.9049999713897705 6.456999778747559,-2.9049999713897705 C6.456999778747559,-2.9049999713897705 -6.456999778747559,-2.9049999713897705 -6.456999778747559,-2.9049999713897705 C-6.456999778747559,-2.9049999713897705 -6.456999778747559,2.9049999713897705 -6.456999778747559,2.9049999713897705z"></path></g></g><g transform="matrix(0,0,0,0,812.6699829101562,580.0670166015625)" opacity="1" style="display: none;"><g opacity="1" transform="matrix(1,0,0,1,0,0)"><path fill="rgb(237,30,121)" fill-opacity="1" d=" M-4.13700008392334,2.9049999713897705 C-4.13700008392334,2.9049999713897705 4.13700008392334,2.9049999713897705 4.13700008392334,2.9049999713897705 C4.13700008392334,2.9049999713897705 4.13700008392334,-2.9049999713897705 4.13700008392334,-2.9049999713897705 C4.13700008392334,-2.9049999713897705 -4.13700008392334,-2.9049999713897705 -4.13700008392334,-2.9049999713897705 C-4.13700008392334,-2.9049999713897705 -4.13700008392334,2.9049999713897705 -4.13700008392334,2.9049999713897705z"></path></g></g><g transform="matrix(0,0,0,0,737.9240112304688,580.0670166015625)" opacity="1" style="display: none;"><g opacity="1" transform="matrix(1,0,0,1,0,0)"><path fill="rgb(190,203,235)" fill-opacity="1" d=" M14.848999977111816,2.9049999713897705 C14.848999977111816,2.9049999713897705 -14.848999977111816,2.9049999713897705 -14.848999977111816,2.9049999713897705 C-14.848999977111816,2.9049999713897705 -14.848999977111816,-2.9049999713897705 -14.848999977111816,-2.9049999713897705 C-14.848999977111816,-2.9049999713897705 14.848999977111816,-2.9049999713897705 14.848999977111816,-2.9049999713897705 C14.848999977111816,-2.9049999713897705 14.848999977111816,2.9049999713897705 14.848999977111816,2.9049999713897705z"></path></g></g><g transform="matrix(0,0,0,0,834.14599609375,557.6829833984375)" opacity="1" style="display: none;"><g opacity="1" transform="matrix(1,0,0,1,0,0)"><path fill="rgb(228,52,56)" fill-opacity="1" d=" M8.04800033569336,2.9049999713897705 C8.04800033569336,2.9049999713897705 -8.04800033569336,2.9049999713897705 -8.04800033569336,2.9049999713897705 C-8.04800033569336,2.9049999713897705 -8.04800033569336,-2.9049999713897705 -8.04800033569336,-2.9049999713897705 C-8.04800033569336,-2.9049999713897705 8.04800033569336,-2.9049999713897705 8.04800033569336,-2.9049999713897705 C8.04800033569336,-2.9049999713897705 8.04800033569336,2.9049999713897705 8.04800033569336,2.9049999713897705z"></path></g></g><g transform="matrix(0,0,0,0,737.9240112304688,557.6829833984375)" opacity="1" style="display: none;"><g opacity="1" transform="matrix(1,0,0,1,0,0)"><path fill="rgb(190,203,235)" fill-opacity="1" d=" M18.933000564575195,2.9049999713897705 C18.933000564575195,2.9049999713897705 -18.933000564575195,2.9049999713897705 -18.933000564575195,2.9049999713897705 C-18.933000564575195,2.9049999713897705 -18.933000564575195,-2.9049999713897705 -18.933000564575195,-2.9049999713897705 C-18.933000564575195,-2.9049999713897705 18.933000564575195,-2.9049999713897705 18.933000564575195,-2.9049999713897705 C18.933000564575195,-2.9049999713897705 18.933000564575195,2.9049999713897705 18.933000564575195,2.9049999713897705z"></path></g></g><g transform="matrix(0,0,0,0,836.656982421875,535.322021484375)" opacity="1" style="display: none;"><g opacity="1" transform="matrix(1,0,0,1,0,0)"><path fill="rgb(190,203,235)" fill-opacity="1" d=" M-6.456999778747559,2.9049999713897705 C-6.456999778747559,2.9049999713897705 6.456999778747559,2.9049999713897705 6.456999778747559,2.9049999713897705 C6.456999778747559,2.9049999713897705 6.456999778747559,-2.9049999713897705 6.456999778747559,-2.9049999713897705 C6.456999778747559,-2.9049999713897705 -6.456999778747559,-2.9049999713897705 -6.456999778747559,-2.9049999713897705 C-6.456999778747559,-2.9049999713897705 -6.456999778747559,2.9049999713897705 -6.456999778747559,2.9049999713897705z"></path></g></g><g transform="matrix(0,0,0,0,812.6699829101562,535.322021484375)" opacity="1" style="display: none;"><g opacity="1" transform="matrix(1,0,0,1,0,0)"><path fill="rgb(190,203,235)" fill-opacity="1" d=" M-4.13700008392334,2.9049999713897705 C-4.13700008392334,2.9049999713897705 4.13700008392334,2.9049999713897705 4.13700008392334,2.9049999713897705 C4.13700008392334,2.9049999713897705 4.13700008392334,-2.9049999713897705 4.13700008392334,-2.9049999713897705 C4.13700008392334,-2.9049999713897705 -4.13700008392334,-2.9049999713897705 -4.13700008392334,-2.9049999713897705 C-4.13700008392334,-2.9049999713897705 -4.13700008392334,2.9049999713897705 -4.13700008392334,2.9049999713897705z"></path></g></g><g transform="matrix(0,0,0,0,737.9240112304688,535.322021484375)" opacity="1" style="display: none;"><g opacity="1" transform="matrix(1,0,0,1,0,0)"><path fill="rgb(190,203,235)" fill-opacity="1" d=" M14.848999977111816,2.9049999713897705 C14.848999977111816,2.9049999713897705 -14.848999977111816,2.9049999713897705 -14.848999977111816,2.9049999713897705 C-14.848999977111816,2.9049999713897705 -14.848999977111816,-2.9049999713897705 -14.848999977111816,-2.9049999713897705 C-14.848999977111816,-2.9049999713897705 14.848999977111816,-2.9049999713897705 14.848999977111816,-2.9049999713897705 C14.848999977111816,-2.9049999713897705 14.848999977111816,2.9049999713897705 14.848999977111816,2.9049999713897705z"></path></g></g><g transform="matrix(2.3391001224517822,0,0,2.3391001224517822,499.99981689453125,499.9989318847656)" opacity="1" style="display: block;"><g opacity="1" transform="matrix(1,0,0,1,0,0)"><path fill="rgb(228,52,56)" fill-opacity="1" d=" M84.97200012207031,76.26000213623047 C68.29100036621094,76.26000213623047 54.76900100708008,85.11499786376953 54.76900100708008,96.03900146484375 C54.76900100708008,104.6240005493164 63.12200164794922,111.92900085449219 74.79499816894531,114.66500091552734 C74.79499816894531,114.66500091552734 74.79499816894531,127.8740005493164 74.79499816894531,127.8740005493164 C74.79499816894531,127.8740005493164 86.89399719238281,115.7750015258789 86.89399719238281,115.7750015258789 C102.67900085449219,115.125 115.1760025024414,106.54000091552734 115.1760025024414,96.03900146484375 C115.1760025024414,85.11499786376953 101.65299987792969,76.26000213623047 84.97200012207031,76.26000213623047z M71.73400115966797,100.22699737548828 C69.4209976196289,100.22699737548828 67.5469970703125,98.35199737548828 67.5469970703125,96.03900146484375 C67.5469970703125,93.72599792480469 69.4209976196289,91.85199737548828 71.73400115966797,91.85199737548828 C74.0469970703125,91.85199737548828 75.9219970703125,93.72599792480469 75.9219970703125,96.03900146484375 C75.9219970703125,98.35199737548828 74.0469970703125,100.22699737548828 71.73400115966797,100.22699737548828z M84.97200012207031,100.22699737548828 C82.65899658203125,100.22699737548828 80.78500366210938,98.35199737548828 80.78500366210938,96.03900146484375 C80.78500366210938,93.72599792480469 82.65899658203125,91.85199737548828 84.97200012207031,91.85199737548828 C87.28500366210938,91.85199737548828 89.16000366210938,93.72599792480469 89.16000366210938,96.03900146484375 C89.16000366210938,98.35199737548828 87.28500366210938,100.22699737548828 84.97200012207031,100.22699737548828z M98.20999908447266,100.22699737548828 C95.89700317382812,100.22699737548828 94.02300262451172,98.35199737548828 94.02300262451172,96.03900146484375 C94.02300262451172,93.72599792480469 95.89700317382812,91.85199737548828 98.20999908447266,91.85199737548828 C100.52300262451172,91.85199737548828 102.39800262451172,93.72599792480469 102.39800262451172,96.03900146484375 C102.39800262451172,98.35199737548828 100.52300262451172,100.22699737548828 98.20999908447266,100.22699737548828z"></path></g></g><g transform="matrix(2.3391001224517822,0,0,2.3391001224517822,154.53643798828125,609.9110107421875)" opacity="1" style="display: block;"><g opacity="1" transform="matrix(1,0,0,1,0,0)"><path fill="rgb(220,230,242)" fill-opacity="1" d=" M46.124000549316406,22.775999069213867 C46.124000549316406,22.775999069213867 -46.124000549316406,22.775999069213867 -46.124000549316406,22.775999069213867 C-47.316001892089844,22.775999069213867 -48.28200149536133,21.809999465942383 -48.28200149536133,20.618000030517578 C-48.28200149536133,20.618000030517578 -48.28200149536133,-20.618000030517578 -48.28200149536133,-20.618000030517578 C-48.28200149536133,-21.809999465942383 -47.316001892089844,-22.775999069213867 -46.124000549316406,-22.775999069213867 C-46.124000549316406,-22.775999069213867 46.124000549316406,-22.775999069213867 46.124000549316406,-22.775999069213867 C47.316001892089844,-22.775999069213867 48.28200149536133,-21.809999465942383 48.28200149536133,-20.618000030517578 C48.28200149536133,-20.618000030517578 48.28200149536133,20.618000030517578 48.28200149536133,20.618000030517578 C48.28200149536133,21.809999465942383 47.316001892089844,22.775999069213867 46.124000549316406,22.775999069213867z"></path></g></g><g transform="matrix(2.3354718685150146,0,0,2.3354718685150146,200.1541290283203,640.2349853515625)" opacity="1" style="display: block;"><g opacity="1" transform="matrix(1,0,0,1,0,0)"><path fill="rgb(190,203,235)" fill-opacity="1" d=" M-20.952999114990234,-2.930000066757202 C-20.952999114990234,-2.930000066757202 20.952999114990234,-2.930000066757202 20.952999114990234,-2.930000066757202 C20.952999114990234,-2.930000066757202 20.952999114990234,2.930000066757202 20.952999114990234,2.930000066757202 C20.952999114990234,2.930000066757202 -20.952999114990234,2.930000066757202 -20.952999114990234,2.930000066757202 C-20.952999114990234,2.930000066757202 -20.952999114990234,-2.930000066757202 -20.952999114990234,-2.930000066757202z"></path></g></g><g transform="matrix(2.3354718685150146,0,0,2.3354718685150146,200.1541290283203,619.4219970703125)" opacity="1" style="display: block;"><g opacity="1" transform="matrix(1,0,0,1,0,0)"><path fill="rgb(190,203,235)" fill-opacity="1" d=" M-20.952999114990234,-2.930000066757202 C-20.952999114990234,-2.930000066757202 20.952999114990234,-2.930000066757202 20.952999114990234,-2.930000066757202 C20.952999114990234,-2.930000066757202 20.952999114990234,2.930000066757202 20.952999114990234,2.930000066757202 C20.952999114990234,2.930000066757202 -20.952999114990234,2.930000066757202 -20.952999114990234,2.930000066757202 C-20.952999114990234,2.930000066757202 -20.952999114990234,-2.930000066757202 -20.952999114990234,-2.930000066757202z"></path></g></g><g transform="matrix(2.3354718685150146,0,0,2.3354718685150146,235.42828369140625,598.6090087890625)" opacity="1" style="display: block;"><g opacity="1" transform="matrix(1,0,0,1,0,0)"><path fill="rgb(12,186,131)" fill-opacity="1" d=" M-5.896999835968018,-2.930000066757202 C-5.896999835968018,-2.930000066757202 5.896999835968018,-2.930000066757202 5.896999835968018,-2.930000066757202 C5.896999835968018,-2.930000066757202 5.896999835968018,2.930000066757202 5.896999835968018,2.930000066757202 C5.896999835968018,2.930000066757202 -5.896999835968018,2.930000066757202 -5.896999835968018,2.930000066757202 C-5.896999835968018,2.930000066757202 -5.896999835968018,-2.930000066757202 -5.896999835968018,-2.930000066757202z"></path></g></g><g transform="matrix(2.3354718685150146,0,0,2.3354718685150146,181.0780029296875,598.6090087890625)" opacity="1" style="display: block;"><g opacity="1" transform="matrix(1,0,0,1,0,0)"><path fill="rgb(190,203,235)" fill-opacity="1" d=" M-12.78499984741211,-2.930000066757202 C-12.78499984741211,-2.930000066757202 12.78499984741211,-2.930000066757202 12.78499984741211,-2.930000066757202 C12.78499984741211,-2.930000066757202 12.78499984741211,2.930000066757202 12.78499984741211,2.930000066757202 C12.78499984741211,2.930000066757202 -12.78499984741211,2.930000066757202 -12.78499984741211,2.930000066757202 C-12.78499984741211,2.930000066757202 -12.78499984741211,-2.930000066757202 -12.78499984741211,-2.930000066757202z"></path></g></g><g transform="matrix(2.3354718685150146,0,0,2.3354718685150146,200.1541290283203,577.7960205078125)" opacity="1" style="display: block;"><g opacity="1" transform="matrix(1,0,0,1,0,0)"><path fill="rgb(190,203,235)" fill-opacity="1" d=" M-20.952999114990234,-2.930000066757202 C-20.952999114990234,-2.930000066757202 20.952999114990234,-2.930000066757202 20.952999114990234,-2.930000066757202 C20.952999114990234,-2.930000066757202 20.952999114990234,2.930000066757202 20.952999114990234,2.930000066757202 C20.952999114990234,2.930000066757202 -20.952999114990234,2.930000066757202 -20.952999114990234,2.930000066757202 C-20.952999114990234,2.930000066757202 -20.952999114990234,-2.930000066757202 -20.952999114990234,-2.930000066757202z"></path></g></g><g transform="matrix(2.3391001224517822,0,0,2.3391001224517822,-84.77506256103516,-84.77569580078125)" opacity="1" style="display: block;"><g opacity="1" transform="matrix(1,0,0,1,0,0)"><g opacity="1" transform="matrix(1,0,0,1,78.39299774169922,296.46600341796875)"><path fill="rgb(0,89,214)" fill-opacity="1" d=" M16.57200050354004,16.57200050354004 C16.57200050354004,16.57200050354004 -16.57200050354004,16.57200050354004 -16.57200050354004,16.57200050354004 C-16.57200050354004,16.57200050354004 -16.57200050354004,-16.57200050354004 -16.57200050354004,-16.57200050354004 C-16.57200050354004,-16.57200050354004 16.57200050354004,-16.57200050354004 16.57200050354004,-16.57200050354004 C16.57200050354004,-16.57200050354004 16.57200050354004,16.57200050354004 16.57200050354004,16.57200050354004z"></path></g></g></g><g transform="matrix(2.3391001224517822,0,0,2.3391001224517822,-84.77506256103516,-84.77532958984375)" opacity="1" style="display: block;"><g opacity="1" transform="matrix(1,0,0,1,0,0)"><g opacity="1" transform="matrix(1,0,0,1,0,0)"><g opacity="1" transform="matrix(1,0,0,1,70.88300323486328,296.010986328125)"><path fill="rgb(255,255,255)" fill-opacity="1" d=" M-3.2730000019073486,0.8059999942779541 C-3.2730000019073486,0.8059999942779541 -3.2730000019073486,-0.8059999942779541 -3.2730000019073486,-0.8059999942779541 C-3.2730000019073486,-0.8059999942779541 3.2730000019073486,-3.6659998893737793 3.2730000019073486,-3.6659998893737793 C3.2730000019073486,-3.6659998893737793 3.2730000019073486,-2.01200008392334 3.2730000019073486,-2.01200008392334 C3.2730000019073486,-2.01200008392334 -1.6480000019073486,0.007000000216066837 -1.6480000019073486,0.007000000216066837 C-1.6480000019073486,0.007000000216066837 3.2730000019073486,1.9980000257492065 3.2730000019073486,1.9980000257492065 C3.2730000019073486,1.9980000257492065 3.2730000019073486,3.6659998893737793 3.2730000019073486,3.6659998893737793 C3.2730000019073486,3.6659998893737793 -3.2730000019073486,0.8059999942779541 -3.2730000019073486,0.8059999942779541z"></path></g><g opacity="1" transform="matrix(1,0,0,1,78.39199829101562,296.010986328125)"><path fill="rgb(255,255,255)" fill-opacity="1" d=" M1.3380000591278076,-5.7270002365112305 C1.3380000591278076,-5.7270002365112305 3.496999979019165,-5.7270002365112305 3.496999979019165,-5.7270002365112305 C3.496999979019165,-5.7270002365112305 -1.3380000591278076,5.7270002365112305 -1.3380000591278076,5.7270002365112305 C-1.3380000591278076,5.7270002365112305 -3.496999979019165,5.7270002365112305 -3.496999979019165,5.7270002365112305 C-3.496999979019165,5.7270002365112305 1.3380000591278076,-5.7270002365112305 1.3380000591278076,-5.7270002365112305z"></path></g><g opacity="1" transform="matrix(1,0,0,1,85.9020004272461,296.010986328125)"><path fill="rgb(255,255,255)" fill-opacity="1" d=" M-3.2730000019073486,1.9980000257492065 C-3.2730000019073486,1.9980000257492065 1.6469999551773071,0.007000000216066837 1.6469999551773071,0.007000000216066837 C1.6469999551773071,0.007000000216066837 -3.2730000019073486,-2.01200008392334 -3.2730000019073486,-2.01200008392334 C-3.2730000019073486,-2.01200008392334 -3.2730000019073486,-3.6659998893737793 -3.2730000019073486,-3.6659998893737793 C-3.2730000019073486,-3.6659998893737793 3.2730000019073486,-0.8059999942779541 3.2730000019073486,-0.8059999942779541 C3.2730000019073486,-0.8059999942779541 3.2730000019073486,0.8059999942779541 3.2730000019073486,0.8059999942779541 C3.2730000019073486,0.8059999942779541 -3.2730000019073486,3.6659998893737793 -3.2730000019073486,3.6659998893737793 C-3.2730000019073486,3.6659998893737793 -3.2730000019073486,1.9980000257492065 -3.2730000019073486,1.9980000257492065z"></path></g></g></g></g><g transform="matrix(2.3391001224517822,0,0,2.3391001224517822,711.9012451171875,390.2967834472656)" opacity="1" style="display: block;"><g opacity="1" transform="matrix(1,0,0,1,0,0)"><path fill="rgb(16,49,115)" fill-opacity="1" d=" M24.584999084472656,24.584999084472656 C24.584999084472656,24.584999084472656 -24.584999084472656,24.584999084472656 -24.584999084472656,24.584999084472656 C-24.584999084472656,24.584999084472656 -24.584999084472656,-24.584999084472656 -24.584999084472656,-24.584999084472656 C-24.584999084472656,-24.584999084472656 24.584999084472656,-24.584999084472656 24.584999084472656,-24.584999084472656 C24.584999084472656,-24.584999084472656 24.584999084472656,24.584999084472656 24.584999084472656,24.584999084472656z"></path></g></g><g transform="matrix(2.339099884033203,0,0,2.339099884033203,711.9019775390625,390.2959899902344)" opacity="1" style="display: block;"><g opacity="1" transform="matrix(1,0,0,1,0,0)"><path stroke-linecap="butt" stroke-linejoin="miter" fill-opacity="0" stroke-miterlimit="10" stroke-dasharray=" 2.67 2.67" stroke-dashoffset="0" stroke="rgb(255,255,255)" stroke-opacity="1" stroke-width="0.667" d=" M29.924999237060547,29.924999237060547 C29.924999237060547,29.924999237060547 -29.924999237060547,29.924999237060547 -29.924999237060547,29.924999237060547 C-29.924999237060547,29.924999237060547 -29.924999237060547,-29.924999237060547 -29.924999237060547,-29.924999237060547 C-29.924999237060547,-29.924999237060547 4.116000175476074,-29.924999237060547 20.85300064086914,-29.924999237060547"></path></g></g><g transform="matrix(1.756369948387146,-1.1431446075439453,1.1431446075439453,1.756369948387146,-118.4744873046875,422.92205810546875)" opacity="1" style="display: block;"><g opacity="1" transform="matrix(1,0,0,1,340.59100341796875,203.10000610351562)"><path fill="rgb(10,29,69)" fill-opacity="1" d=" M15.02299976348877,0 C15.02299976348877,8.29699993133545 8.29699993133545,15.02299976348877 0,15.02299976348877 C-8.29699993133545,15.02299976348877 -15.02299976348877,8.29699993133545 -15.02299976348877,0 C-15.02299976348877,-8.29699993133545 -8.29699993133545,-15.02299976348877 0,-15.02299976348877 C8.29699993133545,-15.02299976348877 15.02299976348877,-8.29699993133545 15.02299976348877,0z"></path></g></g><g transform="matrix(1.756369948387146,-1.1431446075439453,1.1431446075439453,1.756369948387146,-116.9298095703125,425.95135498046875)" opacity="1" style="display: block;"><g opacity="1" transform="matrix(1,0,0,1,343.2409973144531,203.10000610351562)"><path fill="rgb(237,30,121)" fill-opacity="1" d=" M-5.909999847412109,-9.263999938964844 C-5.909999847412109,-9.263999938964844 -5.909999847412109,9.263999938964844 -5.909999847412109,9.263999938964844 C-5.909999847412109,9.263999938964844 5.909999847412109,0 5.909999847412109,0 C5.909999847412109,0 -5.909999847412109,-9.263999938964844 -5.909999847412109,-9.263999938964844z"></path></g></g><g transform="matrix(2.339099884033203,0,0,2.339099884033203,-84.77436828613281,-84.7747802734375)" opacity="1" style="display: block;"><g opacity="1" transform="matrix(1,0,0,1,0,0)"><g opacity="1" transform="matrix(1,0,0,1,85.9020004272461,219.2209930419922)"><path fill="rgb(251,176,59)" fill-opacity="1" d=" M34.709999084472656,19.076000213623047 C34.709999084472656,19.076000213623047 -34.709999084472656,19.076000213623047 -34.709999084472656,19.076000213623047 C-34.709999084472656,19.076000213623047 -34.709999084472656,-19.076000213623047 -34.709999084472656,-19.076000213623047 C-34.709999084472656,-19.076000213623047 34.709999084472656,-19.076000213623047 34.709999084472656,-19.076000213623047 C34.709999084472656,-19.076000213623047 34.709999084472656,19.076000213623047 34.709999084472656,19.076000213623047z"></path></g></g></g><g transform="matrix(2.339099884033203,0,0,2.339099884033203,-84.77436828613281,-84.77462768554688)" opacity="1" style="display: block;"><g opacity="1" transform="matrix(1,0,0,1,0,0)"><g opacity="1" transform="matrix(1,0,0,1,85.9020004272461,226.34800720214844)"><path fill="rgb(251,191,98)" fill-opacity="1" d=" M0,11.949999809265137 C0,11.949999809265137 34.709999084472656,11.949999809265137 34.709999084472656,11.949999809265137 C34.709999084472656,11.949999809265137 0,-11.949999809265137 0,-11.949999809265137 C0,-11.949999809265137 -34.709999084472656,11.949999809265137 -34.709999084472656,11.949999809265137 C-34.709999084472656,11.949999809265137 0,11.949999809265137 0,11.949999809265137z"></path></g></g></g><g transform="matrix(2.339099884033203,0,0,2.339099884033203,-84.77571868896484,-84.77560424804688)" opacity="1" style="display: block;"><g opacity="1" transform="matrix(1,0,0,1,0,0)"><g opacity="1" transform="matrix(1,0,0,1,85.9020004272461,212.09500122070312)"><path fill="rgb(255,145,41)" fill-opacity="1" d=" M0,-11.949999809265137 C0,-11.949999809265137 -34.709999084472656,-11.949999809265137 -34.709999084472656,-11.949999809265137 C-34.709999084472656,-11.949999809265137 0,11.949999809265137 0,11.949999809265137 C0,11.949999809265137 34.709999084472656,-11.949999809265137 34.709999084472656,-11.949999809265137 C34.709999084472656,-11.949999809265137 0,-11.949999809265137 0,-11.949999809265137z"></path></g></g></g><g transform="matrix(2.3391001224517822,0,0,2.3391001224517822,704.2784423828125,269.0360107421875)" opacity="1" style="mix-blend-mode: multiply; display: block;"><g opacity="1" transform="matrix(1,0,0,1,0,0)" style="mix-blend-mode: multiply;"><path fill="rgb(165,172,186)" fill-opacity="1" d=" M-51.05699920654297,-6.341000080108643 C-50.26599884033203,0.7919999957084656 -44.222999572753906,6.341000080108643 -36.87900161743164,6.341000080108643 C-36.87900161743164,6.341000080108643 36.87900161743164,6.341000080108643 36.87900161743164,6.341000080108643 C44.222999572753906,6.341000080108643 50.26599884033203,0.7919999957084656 51.05699920654297,-6.341000080108643 C51.05699920654297,-6.341000080108643 -51.05699920654297,-6.341000080108643 -51.05699920654297,-6.341000080108643z"></path></g></g><g transform="matrix(2.3391001224517822,0,0,2.3391001224517822,-84.77362060546875,-84.77519226074219)" opacity="1" style="display: block;"><g opacity="1" transform="matrix(1,0,0,1,332.7070007324219,138.8769989013672)"><path fill="rgb(220,230,242)" fill-opacity="1" d=" M36.87900161743164,14.27400016784668 C36.87900161743164,14.27400016784668 -36.87900161743164,14.27400016784668 -36.87900161743164,14.27400016784668 C-44.76100158691406,14.27400016784668 -51.150001525878906,7.883999824523926 -51.150001525878906,0.003000000026077032 C-51.150001525878906,0.003000000026077032 -51.150001525878906,-0.003000000026077032 -51.150001525878906,-0.003000000026077032 C-51.150001525878906,-7.883999824523926 -44.76100158691406,-14.27400016784668 -36.87900161743164,-14.27400016784668 C-36.87900161743164,-14.27400016784668 36.87900161743164,-14.27400016784668 36.87900161743164,-14.27400016784668 C44.7599983215332,-14.27400016784668 51.150001525878906,-7.883999824523926 51.150001525878906,-0.003000000026077032 C51.150001525878906,-0.003000000026077032 51.150001525878906,0.003000000026077032 51.150001525878906,0.003000000026077032 C51.150001525878906,7.883999824523926 44.7599983215332,14.27400016784668 36.87900161743164,14.27400016784668z"></path></g></g><g transform="matrix(2.3391001224517822,0,0,2.3391001224517822,-84.77423095703125,-84.77519226074219)" opacity="1" style="display: block;"><g opacity="1" transform="matrix(1,0,0,1,332.5660095214844,138.8769989013672)"><g opacity="1" transform="matrix(1,0,0,1,0,0)"><path fill="rgb(190,203,235)" fill-opacity="1" d=" M35.834999084472656,9.095000267028809 C35.834999084472656,9.095000267028809 -35.834999084472656,9.095000267028809 -35.834999084472656,9.095000267028809 C-40.858001708984375,9.095000267028809 -44.93000030517578,5.0229997634887695 -44.93000030517578,0 C-44.93000030517578,0 -44.93000030517578,0 -44.93000030517578,0 C-44.93000030517578,-5.0229997634887695 -40.858001708984375,-9.095000267028809 -35.834999084472656,-9.095000267028809 C-35.834999084472656,-9.095000267028809 35.834999084472656,-9.095000267028809 35.834999084472656,-9.095000267028809 C40.858001708984375,-9.095000267028809 44.93000030517578,-5.0229997634887695 44.93000030517578,0 C44.93000030517578,0 44.93000030517578,0 44.93000030517578,0 C44.93000030517578,5.0229997634887695 40.858001708984375,9.095000267028809 35.834999084472656,9.095000267028809z"></path></g></g></g><g transform="matrix(2.273242473602295,0.5511423349380493,-0.5511423349380493,2.273242473602295,467.26043701171875,465.4391174316406)" opacity="1" style="display: block;"><g opacity="1" transform="matrix(1,0,0,1,0,0)"><path fill="rgb(228,235,253)" fill-opacity="1" d=" M54.64500045776367,-107.5790023803711 C54.64500045776367,-107.5790023803711 51.54600143432617,-110.43800354003906 51.54600143432617,-110.43800354003906 C51.86800003051758,-111.03199768066406 52.0359992980957,-111.69000244140625 52.0359992980957,-112.36100006103516 C52.0359992980957,-114.60800170898438 50.20800018310547,-116.43699645996094 47.959999084472656,-116.43699645996094 C45.7130012512207,-116.43699645996094 43.8849983215332,-114.60800170898438 43.8849983215332,-112.36100006103516 C43.8849983215332,-110.11399841308594 45.7130012512207,-108.28600311279297 47.959999084472656,-108.28600311279297 C48.73899841308594,-108.28600311279297 49.49300003051758,-108.51300048828125 50.15700149536133,-108.94499969482422 C50.15700149536133,-108.94499969482422 53.2599983215332,-106.08100128173828 53.2599983215332,-106.08100128173828 C53.44900131225586,-105.90499877929688 53.69499969482422,-105.80999755859375 53.95399856567383,-105.80999755859375 C54.23899841308594,-105.80999755859375 54.512001037597656,-105.93000030517578 54.70199966430664,-106.13800048828125 C54.88800048828125,-106.33899688720703 54.983001708984375,-106.5999984741211 54.97200012207031,-106.87300109863281 C54.96099853515625,-107.14399719238281 54.845001220703125,-107.3949966430664 54.64500045776367,-107.5790023803711z M50.354000091552734,-112.36100006103516 C50.354000091552734,-111.04100036621094 49.279998779296875,-109.96700286865234 47.959999084472656,-109.96700286865234 C46.63999938964844,-109.96700286865234 45.56700134277344,-111.04100036621094 45.56700134277344,-112.36100006103516 C45.56700134277344,-113.68099975585938 46.63999938964844,-114.75499725341797 47.959999084472656,-114.75499725341797 C49.279998779296875,-114.75499725341797 50.354000091552734,-113.68099975585938 50.354000091552734,-112.36100006103516z"></path></g></g><g style="display: block;" transform="matrix(2.339099884033203,0,0,2.339099884033203,-84.77484130859375,-84.77471923828125)" opacity="1"><g opacity="1" transform="matrix(1,0,0,1,418.3599853515625,197.41000366210938)"><path fill="rgb(228,235,253)" fill-opacity="1" d=" M28.639999389648438,0 C28.639999389648438,15.817000389099121 15.817000389099121,28.639999389648438 0,28.639999389648438 C-15.817000389099121,28.639999389648438 -28.639999389648438,15.817000389099121 -28.639999389648438,0 C-28.639999389648438,-15.817000389099121 -15.817000389099121,-28.639999389648438 0,-28.639999389648438 C15.817000389099121,-28.639999389648438 28.639999389648438,-15.817000389099121 28.639999389648438,0z"></path></g><g opacity="1" transform="matrix(1,0,0,1,418.3599853515625,198.63299560546875)"><path fill="rgb(0,89,214)" fill-opacity="1" d=" M4.98799991607666,-23.492000579833984 C4.98799991607666,-23.492000579833984 4.98799991607666,-6.995999813079834 4.98799991607666,-6.995999813079834 C4.98799991607666,-6.995999813079834 0,-4.360000133514404 0,-4.360000133514404 C0,-4.360000133514404 -4.988999843597412,-6.995999813079834 -4.988999843597412,-6.995999813079834 C-4.988999843597412,-6.995999813079834 -4.988999843597412,-23.492000579833984 -4.988999843597412,-23.492000579833984 C-10.904999732971191,-21.429000854492188 -15.152000427246094,-15.805000305175781 -15.152000427246094,-9.1850004196167 C-15.152000427246094,-2.7249999046325684 -11.105999946594238,2.7890000343322754 -5.4120001792907715,4.9679999351501465 C-5.4120001792907715,4.9679999351501465 -5.4120001792907715,22.878999710083008 -5.4120001792907715,22.878999710083008 C-3.6679999828338623,23.268999099731445 -1.8619999885559082,23.492000579833984 0,23.492000579833984 C1.8609999418258667,23.492000579833984 3.6679999828338623,23.268999099731445 5.4120001792907715,22.878999710083008 C5.4120001792907715,22.878999710083008 5.4120001792907715,4.9679999351501465 5.4120001792907715,4.9679999351501465 C11.105999946594238,2.7890000343322754 15.152000427246094,-2.7249999046325684 15.152000427246094,-9.1850004196167 C15.152000427246094,-15.805000305175781 10.904999732971191,-21.429000854492188 4.98799991607666,-23.492000579833984z"></path></g></g></g></svg>