<svg id="SvgjsSvg1001" width="550" height="550" xmlns="http://www.w3.org/2000/svg" version="1.1" xmlns:xlink="http://www.w3.org/1999/xlink" xmlns:svgjs="http://svgjs.com/svgjs"><defs id="SvgjsDefs1002"></defs><g id="SvgjsG1008"><svg xmlns="http://www.w3.org/2000/svg" xmlns:xlink="http://www.w3.org/1999/xlink" viewBox="0 0 841.9 718.4" width="550" height="550"><g opacity=".4" fill="#000000" class="color000 svgShape"><path fill="#0c3461" d="M758.5 477c.3 52.5-34.7 101.9-98.6 139-63.9 37.1-149 57.6-239.7 57.6-90.7 0-176-20.4-240.3-57.6-64.4-37.1-99.9-86.5-100.2-139-.3-52.5 34.7-101.9 98.6-139 63.9-37.1 149-57.6 239.7-57.6 90.6 0 176 20.4 240.3 57.6 64.3 37.1 99.9 86.5 100.2 139zM199.6 604.6c121.8 70.3 319.4 70.3 440.4 0s120.4-184.8-1.4-255.1-319.4-70.3-440.4 0c-121.1 70.3-120.5 184.7 1.4 255.1" class="color0C3461 svgShape"></path><path fill="#0c3461" d="M593.5 375.7c96.8 55.9 97.3 146.8 1.1 202.7-96.2 55.9-253.1 55.9-349.9 0s-97.3-146.8-1.1-202.7c96.1-55.9 253.1-55.9 349.9 0zM277.9 559.1c78.4 45.2 205.5 45.2 283.3 0 77.9-45.2 77.4-118.9-.9-164.1-78.4-45.2-205.5-45.2-283.3 0-77.9 45.2-77.5 118.8.9 164.1" class="color0C3461 svgShape"></path><path fill="#0c3461" d="M712.9 306.2c163.1 94.2 164 247.4 1.9 341.6-162 94.2-426.6 94.2-589.7 0s-164-247.4-1.9-341.6c162.1-94.2 426.6-94.1 589.7 0zm-578.1 336c157.8 91.1 413.6 91.1 570.4 0 156.7-91.1 155.9-239.3-1.9-330.4s-413.6-91.1-570.4 0c-156.7 91.1-155.8 239.3 1.9 330.4" class="color0C3461 svgShape"></path><path fill="#0c3461" d="M512.5 422.7c52 30 52.2 78.6.6 108.6s-135.6 30-187.5 0c-52-30-52.2-78.6-.6-108.6s135.6-30 187.5 0z" class="color0C3461 svgShape"></path></g><path fill="#98add4" d="M771 379.9v3.8l-68.2 39.6.1-3.7z" class="color98ADD4 svgShape"></path><path fill="#aec7e6" d="m702.9 419.6-.1 3.7-206.3-119.1v-3.8z" class="colorAEC7E6 svgShape"></path><path fill="#e9f0f7" d="m771 379.9-68.1 39.7-206.4-119.2 68.2-39.6z" class="colorE9F0F7 svgShape"></path><path fill="#5386b4" d="M554.7 278v.7l-8 4.6v-.6z" class="color5386B4 svgShape"></path><path fill="#98add4" d="M546.7 282.7v.6l-8-4.6v-.7z" class="color98ADD4 svgShape"></path><path fill="#aec7e6" d="m554.7 278-8 4.7-8-4.7 8-4.6z" class="colorAEC7E6 svgShape"></path><path fill="#5386b4" d="M574.2 273.2v.7l-8 4.6v-.7z" class="color5386B4 svgShape"></path><path fill="#98add4" d="M566.2 277.8v.7l-8-4.6v-.7z" class="color98ADD4 svgShape"></path><path fill="#aec7e6" d="m574.2 273.2-8 4.6-8-4.6 8-4.7z" class="colorAEC7E6 svgShape"></path><path fill="#5386b4" d="M563.4 283.1v.6l-8 4.7v-.7z" class="color5386B4 svgShape"></path><path fill="#98add4" d="M555.4 287.7v.7l-8-4.7v-.6z" class="color98ADD4 svgShape"></path><path fill="#aec7e6" d="m563.4 283.1-8 4.6-8-4.6 8-4.7z" class="colorAEC7E6 svgShape"></path><path fill="#5386b4" d="m572.2 288.1-.1.7-7.9 4.6v-.7z" class="color5386B4 svgShape"></path><path fill="#98add4" d="M564.2 292.7v.7l-8.1-4.6v-.7z" class="color98ADD4 svgShape"></path><path fill="#aec7e6" d="m572.2 288.1-8 4.6-8.1-4.6 8-4.6z" class="colorAEC7E6 svgShape"></path><path fill="#5386b4" d="M580.9 293.1v.7l-8 4.7v-.7z" class="color5386B4 svgShape"></path><path fill="#98add4" d="M572.9 297.8v.7l-8.1-4.7v-.7z" class="color98ADD4 svgShape"></path><path fill="#aec7e6" d="m580.9 293.1-8 4.7-8.1-4.7 8-4.6z" class="colorAEC7E6 svgShape"></path><path fill="#5386b4" d="M589.6 298.2v.7l-8 4.6v-.7z" class="color5386B4 svgShape"></path><path fill="#98add4" d="M581.6 302.8v.7l-8-4.6v-.7z" class="color98ADD4 svgShape"></path><path fill="#aec7e6" d="m589.6 298.2-8 4.6-8-4.6 8-4.7z" class="colorAEC7E6 svgShape"></path><path fill="#5386b4" d="M598.3 303.2v.7l-8 4.6v-.6z" class="color5386B4 svgShape"></path><path fill="#98add4" d="M590.3 307.9v.6l-8-4.6v-.7z" class="color98ADD4 svgShape"></path><path fill="#aec7e6" d="m598.3 303.2-8 4.7-8-4.7 8-4.6z" class="colorAEC7E6 svgShape"></path><path fill="#5386b4" d="M607.1 308.2v.7l-8 4.7v-.7z" class="color5386B4 svgShape"></path><path fill="#98add4" d="M599.1 312.9v.7l-8.1-4.7v-.7z" class="color98ADD4 svgShape"></path><path fill="#aec7e6" d="m607.1 308.2-8 4.7-8.1-4.7 8-4.6z" class="colorAEC7E6 svgShape"></path><path fill="#5386b4" d="M588.8 281.6v.7l-8 4.7v-.7z" class="color5386B4 svgShape"></path><path fill="#98add4" d="M580.8 286.3v.7l-8-4.7v-.7z" class="color98ADD4 svgShape"></path><path fill="#aec7e6" d="m588.8 281.6-8 4.7-8-4.7 8-4.6z" class="colorAEC7E6 svgShape"></path><path fill="#5386b4" d="M597.5 286.7v.6l-7.9 4.7v-.7z" class="color5386B4 svgShape"></path><path fill="#98add4" d="M589.6 291.3v.7l-8.1-4.7v-.6z" class="color98ADD4 svgShape"></path><path fill="#aec7e6" d="m597.5 286.7-7.9 4.6-8.1-4.6 8-4.7z" class="colorAEC7E6 svgShape"></path><path fill="#5386b4" d="M606.3 291.7v.7l-8 4.6v-.7z" class="color5386B4 svgShape"></path><path fill="#98add4" d="M598.3 296.3v.7l-8.1-4.6v-.7z" class="color98ADD4 svgShape"></path><path fill="#aec7e6" d="m606.3 291.7-8 4.6-8.1-4.6 8-4.6z" class="colorAEC7E6 svgShape"></path><path fill="#5386b4" d="M615 296.7v.7l-8 4.7v-.7z" class="color5386B4 svgShape"></path><path fill="#98add4" d="M607 301.4v.7l-8-4.7v-.7z" class="color98ADD4 svgShape"></path><path fill="#aec7e6" d="m615 296.7-8 4.7-8-4.7 8-4.6z" class="colorAEC7E6 svgShape"></path><path fill="#5386b4" d="M627.1 303.7v.7l-8 4.7v-.7z" class="color5386B4 svgShape"></path><path fill="#98add4" d="M619.1 308.4v.7l-8-4.7v-.7z" class="color98ADD4 svgShape"></path><path fill="#aec7e6" d="m627.1 303.7-8 4.7-8-4.7 8-4.6z" class="colorAEC7E6 svgShape"></path><path fill="#5386b4" d="M615.8 313.3v.7l-8 4.6v-.7z" class="color5386B4 svgShape"></path><path fill="#98add4" d="M607.8 317.9v.7l-8.1-4.6v-.7z" class="color98ADD4 svgShape"></path><path fill="#aec7e6" d="m615.8 313.3-8 4.6-8.1-4.6 8-4.7z" class="colorAEC7E6 svgShape"></path><path fill="#5386b4" d="M635.8 308.8v.6l-8 4.7v-.7z" class="color5386B4 svgShape"></path><path fill="#98add4" d="M627.8 313.4v.7l-8-4.7v-.6z" class="color98ADD4 svgShape"></path><path fill="#aec7e6" d="m635.8 308.8-8 4.6-8-4.6 8-4.7z" class="colorAEC7E6 svgShape"></path><path fill="#5386b4" d="M624.5 318.3v.7l-8 4.6v-.6z" class="color5386B4 svgShape"></path><path fill="#98add4" d="M616.5 323v.6l-8-4.6v-.7z" class="color98ADD4 svgShape"></path><path fill="#aec7e6" d="m624.5 318.3-8 4.7-8-4.7 8-4.6z" class="colorAEC7E6 svgShape"></path><path fill="#5386b4" d="M644.6 313.8v.7l-8 4.6v-.7z" class="color5386B4 svgShape"></path><path fill="#98add4" d="M636.6 318.4v.7l-8.1-4.6v-.7z" class="color98ADD4 svgShape"></path><path fill="#aec7e6" d="m644.6 313.8-8 4.6-8.1-4.6 8-4.6z" class="colorAEC7E6 svgShape"></path><path fill="#5386b4" d="M633.2 323.4v.6l-8 4.7v-.7z" class="color5386B4 svgShape"></path><path fill="#98add4" d="M625.2 328v.7l-8-4.7v-.6z" class="color98ADD4 svgShape"></path><path fill="#aec7e6" d="m633.2 323.4-8 4.6-8-4.6 8-4.7z" class="colorAEC7E6 svgShape"></path><path fill="#5386b4" d="M653.3 318.8v.7l-8 4.7v-.7z" class="color5386B4 svgShape"></path><path fill="#98add4" d="M645.3 323.5v.7l-8.1-4.7v-.7z" class="color98ADD4 svgShape"></path><path fill="#aec7e6" d="m653.3 318.8-8 4.7-8.1-4.7 8-4.6z" class="colorAEC7E6 svgShape"></path><path fill="#5386b4" d="M642 328.4v.7l-8 4.6v-.7z" class="color5386B4 svgShape"></path><path fill="#98add4" d="M634 333v.7l-8.1-4.6v-.7z" class="color98ADD4 svgShape"></path><path fill="#aec7e6" d="m642 328.4-8 4.6-8.1-4.6 8-4.6z" class="colorAEC7E6 svgShape"></path><path fill="#5386b4" d="M665.4 325.8v.7l-8 4.7v-.7z" class="color5386B4 svgShape"></path><path fill="#98add4" d="M657.4 330.5v.7l-8.1-4.7.1-.7z" class="color98ADD4 svgShape"></path><path fill="#aec7e6" d="m665.4 325.8-8 4.7-8-4.7 7.9-4.6z" class="colorAEC7E6 svgShape"></path><path fill="#5386b4" d="M650.7 333.4v.7l-8 4.7v-.7z" class="color5386B4 svgShape"></path><path fill="#98add4" d="M642.7 338.1v.7l-8.1-4.7.1-.7z" class="color98ADD4 svgShape"></path><path fill="#aec7e6" d="m650.7 333.4-8 4.7-8-4.7 7.9-4.6z" class="colorAEC7E6 svgShape"></path><path fill="#5386b4" d="M674.1 330.9v.6l-8 4.7v-.7z" class="color5386B4 svgShape"></path><path fill="#98add4" d="M666.1 335.5v.7l-8-4.7v-.6z" class="color98ADD4 svgShape"></path><path fill="#aec7e6" d="m674.1 330.9-8 4.6-8-4.6 8-4.7z" class="colorAEC7E6 svgShape"></path><path fill="#5386b4" d="M659.4 338.5v.7l-8 4.6v-.7z" class="color5386B4 svgShape"></path><path fill="#98add4" d="M651.4 343.1v.7l-8-4.6v-.7z" class="color98ADD4 svgShape"></path><path fill="#aec7e6" d="m659.4 338.5-8 4.6-8-4.6 8-4.7z" class="colorAEC7E6 svgShape"></path><path fill="#5386b4" d="M682.8 335.9v.7l-8 4.6v-.7z" class="color5386B4 svgShape"></path><path fill="#98add4" d="M674.8 340.5v.7l-8-4.6v-.7z" class="color98ADD4 svgShape"></path><path fill="#aec7e6" d="m682.8 335.9-8 4.6-8-4.6 8-4.6z" class="colorAEC7E6 svgShape"></path><path fill="#5386b4" d="M691.6 340.9v.7l-8 4.7v-.7z" class="color5386B4 svgShape"></path><path fill="#98add4" d="M683.6 345.6v.7l-8.1-4.7v-.7z" class="color98ADD4 svgShape"></path><path fill="#aec7e6" d="m691.6 340.9-8 4.7-8.1-4.7 8-4.6z" class="colorAEC7E6 svgShape"></path><path fill="#5386b4" d="M676.9 348.5v.7l-8 4.7v-.7z" class="color5386B4 svgShape"></path><path fill="#98add4" d="M668.9 353.2v.7l-16.8-9.7v-.7z" class="color98ADD4 svgShape"></path><path fill="#aec7e6" d="m676.9 348.5-8 4.7-16.8-9.7 8-4.6z" class="colorAEC7E6 svgShape"></path><path fill="#5386b4" d="M550.2 285.5v.7l-7.9 4.6v-.7z" class="color5386B4 svgShape"></path><path fill="#98add4" d="M542.3 290.1v.7l-12.3-7.1v-.6z" class="color98ADD4 svgShape"></path><path fill="#aec7e6" d="m550.2 285.5-7.9 4.6-12.3-7 8-4.7z" class="colorAEC7E6 svgShape"></path><path fill="#5386b4" d="M559 290.5v.7l-8 4.7v-.7z" class="color5386B4 svgShape"></path><path fill="#98add4" d="M551 295.2v.7l-8.1-4.7v-.7z" class="color98ADD4 svgShape"></path><path fill="#aec7e6" d="m559 290.5-8 4.7-8.1-4.7 8-4.6z" class="colorAEC7E6 svgShape"></path><path fill="#5386b4" d="M567.7 295.6v.7l-8 4.6v-.7z" class="color5386B4 svgShape"></path><path fill="#98add4" d="M559.7 300.2v.7l-8-4.6v-.7z" class="color98ADD4 svgShape"></path><path fill="#aec7e6" d="m567.7 295.6-8 4.6-8-4.6 8-4.7z" class="colorAEC7E6 svgShape"></path><path fill="#5386b4" d="M576.4 300.6v.7l-8 4.6v-.7z" class="color5386B4 svgShape"></path><path fill="#98add4" d="M568.4 305.2v.7l-8-4.6v-.7z" class="color98ADD4 svgShape"></path><path fill="#aec7e6" d="m576.4 300.6-8 4.6-8-4.6 8-4.6z" class="colorAEC7E6 svgShape"></path><path fill="#5386b4" d="m585.2 305.6-.1.7-7.9 4.7v-.7z" class="color5386B4 svgShape"></path><path fill="#98add4" d="M577.2 310.3v.7l-8.1-4.7v-.7z" class="color98ADD4 svgShape"></path><path fill="#aec7e6" d="m585.2 305.6-8 4.7-8.1-4.7 8-4.6z" class="colorAEC7E6 svgShape"></path><path fill="#5386b4" d="M593.9 310.7v.7l-8 4.6v-.7z" class="color5386B4 svgShape"></path><path fill="#98add4" d="M585.9 315.3v.7l-8.1-4.6v-.7z" class="color98ADD4 svgShape"></path><path fill="#aec7e6" d="m593.9 310.7-8 4.6-8.1-4.6 8-4.7z" class="colorAEC7E6 svgShape"></path><path fill="#5386b4" d="M602.6 315.7v.7l-8 4.6v-.6z" class="color5386B4 svgShape"></path><path fill="#98add4" d="M594.6 320.4v.6l-8-4.6v-.7z" class="color98ADD4 svgShape"></path><path fill="#aec7e6" d="m602.6 315.7-8 4.7-8-4.7 8-4.6z" class="colorAEC7E6 svgShape"></path><path fill="#5386b4" d="M611.3 320.8v.6l-8 4.7v-.7z" class="color5386B4 svgShape"></path><path fill="#98add4" d="M603.3 325.4v.7l-8-4.7v-.6z" class="color98ADD4 svgShape"></path><path fill="#aec7e6" d="m611.3 320.8-8 4.6-8-4.6 8-4.7z" class="colorAEC7E6 svgShape"></path><path fill="#5386b4" d="m620.1 325.8-.1.7-7.9 4.6v-.7z" class="color5386B4 svgShape"></path><path fill="#98add4" d="M612.1 330.4v.7l-8.1-4.6v-.7z" class="color98ADD4 svgShape"></path><path fill="#aec7e6" d="m620.1 325.8-8 4.6-8.1-4.6 8-4.6z" class="colorAEC7E6 svgShape"></path><path fill="#5386b4" d="M628.8 330.8v.7l-8 4.7v-.7z" class="color5386B4 svgShape"></path><path fill="#98add4" d="M620.8 335.5v.7l-8.1-4.7v-.7z" class="color98ADD4 svgShape"></path><path fill="#aec7e6" d="m628.8 330.8-8 4.7-8.1-4.7 8-4.6z" class="colorAEC7E6 svgShape"></path><path fill="#5386b4" d="M637.5 335.9v.7l-8 4.6v-.7z" class="color5386B4 svgShape"></path><path fill="#98add4" d="M629.5 340.5v.7l-8-4.6v-.7z" class="color98ADD4 svgShape"></path><path fill="#aec7e6" d="m637.5 335.9-8 4.6-8-4.6 8-4.7z" class="colorAEC7E6 svgShape"></path><path fill="#5386b4" d="M646.2 340.9v.7l-8 4.6v-.6z" class="color5386B4 svgShape"></path><path fill="#98add4" d="M638.2 345.6v.6l-8-4.6v-.7z" class="color98ADD4 svgShape"></path><path fill="#aec7e6" d="m646.2 340.9-8 4.7-8-4.7 8-4.6z" class="colorAEC7E6 svgShape"></path><path fill="#5386b4" d="M655 345.9v.7l-8 4.7v-.7z" class="color5386B4 svgShape"></path><path fill="#98add4" d="M647 350.6v.7l-8.1-4.7v-.7z" class="color98ADD4 svgShape"></path><path fill="#aec7e6" d="m655 345.9-8 4.7-8.1-4.7 8-4.6z" class="colorAEC7E6 svgShape"></path><path fill="#5386b4" d="M668.2 353.6v.7l-8 4.6v-.7z" class="color5386B4 svgShape"></path><path fill="#98add4" d="M660.2 358.2v.7l-12.6-7.2.1-.7z" class="color98ADD4 svgShape"></path><path fill="#aec7e6" d="m668.2 353.6-8 4.6-12.5-7.2 7.9-4.7z" class="colorAEC7E6 svgShape"></path><path fill="#5386b4" d="M543.7 291.7v.7l-8 4.7v-.7z" class="color5386B4 svgShape"></path><path fill="#98add4" d="M535.7 296.4v.7l-14.4-8.3v-.7z" class="color98ADD4 svgShape"></path><path fill="#aec7e6" d="m543.7 291.7-8 4.7-14.4-8.3 8-4.6z" class="colorAEC7E6 svgShape"></path><path fill="#5386b4" d="M552.4 296.8v.7l-8 4.6v-.7z" class="color5386B4 svgShape"></path><path fill="#98add4" d="M544.4 301.4v.7l-8-4.6v-.7z" class="color98ADD4 svgShape"></path><path fill="#aec7e6" d="m552.4 296.8-8 4.6-8-4.6 8-4.7z" class="colorAEC7E6 svgShape"></path><path fill="#5386b4" d="M561.1 301.8v.7l-8 4.6.1-.6z" class="color5386B4 svgShape"></path><path fill="#98add4" d="m553.2 306.5-.1.6-8-4.6v-.7z" class="color98ADD4 svgShape"></path><path fill="#aec7e6" d="m561.1 301.8-7.9 4.7-8.1-4.7 8-4.6z" class="colorAEC7E6 svgShape"></path><path fill="#5386b4" d="M569.9 306.9v.6l-8 4.7v-.7z" class="color5386B4 svgShape"></path><path fill="#98add4" d="M561.9 311.5v.7l-8.1-4.7v-.6z" class="color98ADD4 svgShape"></path><path fill="#aec7e6" d="m569.9 306.9-8 4.6-8.1-4.6 8-4.7z" class="colorAEC7E6 svgShape"></path><path fill="#5386b4" d="M578.6 311.9v.7l-8 4.6v-.7z" class="color5386B4 svgShape"></path><path fill="#98add4" d="M570.6 316.5v.7l-8-4.6v-.7z" class="color98ADD4 svgShape"></path><path fill="#aec7e6" d="m578.6 311.9-8 4.6-8-4.6 8-4.6z" class="colorAEC7E6 svgShape"></path><path fill="#5386b4" d="M587.3 316.9v.7l-8 4.7v-.7z" class="color5386B4 svgShape"></path><path fill="#98add4" d="M579.3 321.6v.7l-8-4.7v-.7z" class="color98ADD4 svgShape"></path><path fill="#aec7e6" d="m587.3 316.9-8 4.7-8-4.7 8-4.6z" class="colorAEC7E6 svgShape"></path><path fill="#5386b4" d="M596 322v.7l-7.9 4.6v-.7z" class="color5386B4 svgShape"></path><path fill="#98add4" d="M588.1 326.6v.7l-8.1-4.6v-.7z" class="color98ADD4 svgShape"></path><path fill="#aec7e6" d="m596 322-7.9 4.6-8.1-4.6 8-4.7z" class="colorAEC7E6 svgShape"></path><path fill="#5386b4" d="M604.8 327v.7l-8 4.6v-.6z" class="color5386B4 svgShape"></path><path fill="#98add4" d="M596.8 331.7v.6l-8.1-4.6v-.7z" class="color98ADD4 svgShape"></path><path fill="#aec7e6" d="m604.8 327-8 4.7-8.1-4.7 8-4.6z" class="colorAEC7E6 svgShape"></path><path fill="#5386b4" d="M613.5 332v.7l-8 4.7v-.7z" class="color5386B4 svgShape"></path><path fill="#98add4" d="M605.5 336.7v.7l-8-4.7v-.7z" class="color98ADD4 svgShape"></path><path fill="#aec7e6" d="m613.5 332-8 4.7-8-4.7 8-4.6z" class="colorAEC7E6 svgShape"></path><path fill="#5386b4" d="M622.2 337.1v.7l-8 4.6v-.7z" class="color5386B4 svgShape"></path><path fill="#98add4" d="M614.2 341.7v.7l-8-4.6v-.7z" class="color98ADD4 svgShape"></path><path fill="#aec7e6" d="m622.2 337.1-8 4.6-8-4.6 8-4.7z" class="colorAEC7E6 svgShape"></path><path fill="#5386b4" d="M630.9 342.1v.7l-7.9 4.6v-.6z" class="color5386B4 svgShape"></path><path fill="#98add4" d="M623 346.8v.6l-8.1-4.6v-.7z" class="color98ADD4 svgShape"></path><path fill="#aec7e6" d="m630.9 342.1-7.9 4.7-8.1-4.7 8-4.6z" class="colorAEC7E6 svgShape"></path><path fill="#5386b4" d="M639.7 347.2v.6l-8 4.7v-.7z" class="color5386B4 svgShape"></path><path fill="#98add4" d="M631.7 351.8v.7l-8.1-4.7v-.6z" class="color98ADD4 svgShape"></path><path fill="#aec7e6" d="m639.7 347.2-8 4.6-8.1-4.6 8-4.7z" class="colorAEC7E6 svgShape"></path><path fill="#5386b4" d="M659.5 358.6v.7l-8 4.7v-.7z" class="color5386B4 svgShape"></path><path fill="#98add4" d="M651.5 363.3v.7l-19.1-11.1v-.7z" class="color98ADD4 svgShape"></path><path fill="#aec7e6" d="m659.5 358.6-8 4.7-19.1-11.1 8-4.6z" class="colorAEC7E6 svgShape"></path><path fill="#5386b4" d="M539.2 299.2v.7l-8 4.6v-.6z" class="color5386B4 svgShape"></path><path fill="#98add4" d="M531.2 303.9v.6l-18.5-10.7v-.7z" class="color98ADD4 svgShape"></path><path fill="#aec7e6" d="m539.2 299.2-8 4.7-18.5-10.8 8-4.6z" class="colorAEC7E6 svgShape"></path><path fill="#5386b4" d="M548 304.3v.6l-8 4.7v-.7z" class="color5386B4 svgShape"></path><path fill="#98add4" d="M540 308.9v.7l-8.1-4.7v-.6z" class="color98ADD4 svgShape"></path><path fill="#aec7e6" d="m548 304.3-8 4.6-8.1-4.6 8-4.7z" class="colorAEC7E6 svgShape"></path><path fill="#5386b4" d="M556.7 309.3v.7l-8 4.6v-.7z" class="color5386B4 svgShape"></path><path fill="#98add4" d="M548.7 313.9v.7l-8-4.6v-.7z" class="color98ADD4 svgShape"></path><path fill="#aec7e6" d="m556.7 309.3-8 4.6-8-4.6 7.9-4.6z" class="colorAEC7E6 svgShape"></path><path fill="#5386b4" d="M565.4 314.3v.7l-8 4.7v-.7z" class="color5386B4 svgShape"></path><path fill="#98add4" d="M557.4 319v.7l-8-4.7v-.7z" class="color98ADD4 svgShape"></path><path fill="#aec7e6" d="m565.4 314.3-8 4.7-8-4.7 8-4.6z" class="colorAEC7E6 svgShape"></path><path fill="#5386b4" d="M574.1 319.4v.7l-8 4.6v-.7z" class="color5386B4 svgShape"></path><path fill="#98add4" d="M566.1 324v.7l-8-4.6v-.7z" class="color98ADD4 svgShape"></path><path fill="#aec7e6" d="m574.1 319.4-8 4.6-8-4.6 8-4.7z" class="colorAEC7E6 svgShape"></path><path fill="#5386b4" d="M582.9 324.4v.7l-8 4.6v-.6z" class="color5386B4 svgShape"></path><path fill="#98add4" d="M574.9 329.1v.6l-8.1-4.6v-.7z" class="color98ADD4 svgShape"></path><path fill="#aec7e6" d="m582.9 324.4-8 4.7-8.1-4.7 8-4.6z" class="colorAEC7E6 svgShape"></path><path fill="#5386b4" d="M591.6 329.4v.7l-8 4.7v-.7z" class="color5386B4 svgShape"></path><path fill="#98add4" d="M583.6 334.1v.7l-8-4.7v-.7z" class="color98ADD4 svgShape"></path><path fill="#aec7e6" d="m591.6 329.4-8 4.7-8-4.7 7.9-4.6z" class="colorAEC7E6 svgShape"></path><path fill="#5386b4" d="M600.3 334.5v.7l-8 4.6v-.7z" class="color5386B4 svgShape"></path><path fill="#98add4" d="M592.3 339.1v.7l-8-4.6v-.7z" class="color98ADD4 svgShape"></path><path fill="#aec7e6" d="m600.3 334.5-8 4.6-8-4.6 8-4.7z" class="colorAEC7E6 svgShape"></path><path fill="#5386b4" d="M609 339.5v.7l-8 4.6.1-.6z" class="color5386B4 svgShape"></path><path fill="#98add4" d="m601.1 344.2-.1.6-8-4.6v-.7z" class="color98ADD4 svgShape"></path><path fill="#aec7e6" d="m609 339.5-7.9 4.7-8.1-4.7 8-4.6z" class="colorAEC7E6 svgShape"></path><path fill="#5386b4" d="M617.8 344.6v.6l-8 4.7v-.7z" class="color5386B4 svgShape"></path><path fill="#98add4" d="M609.8 349.2v.7l-8.1-4.7v-.6z" class="color98ADD4 svgShape"></path><path fill="#aec7e6" d="m617.8 344.6-8 4.6-8.1-4.6 8-4.7z" class="colorAEC7E6 svgShape"></path><path fill="#5386b4" d="M626.5 349.6v.7l-8 4.6v-.7z" class="color5386B4 svgShape"></path><path fill="#98add4" d="M618.5 354.2v.7l-8-4.6v-.7z" class="color98ADD4 svgShape"></path><path fill="#aec7e6" d="m626.5 349.6-8 4.6-8-4.6 7.9-4.6z" class="colorAEC7E6 svgShape"></path><path fill="#5386b4" d="M650.9 363.7v.6l-8 4.7v-.7z" class="color5386B4 svgShape"></path><path fill="#98add4" d="M642.9 368.3v.7l-23.7-13.7v-.7z" class="color98ADD4 svgShape"></path><path fill="#aec7e6" d="m650.9 363.7-8 4.6-23.7-13.7 8-4.6z" class="colorAEC7E6 svgShape"></path><path fill="#5386b4" d="M523.1 299.9v.7l-8 4.7v-.7z" class="color5386B4 svgShape"></path><path fill="#98add4" d="M515.1 304.6v.7l-11.1-6.4v-.7z" class="color98ADD4 svgShape"></path><path fill="#aec7e6" d="m523.1 299.9-8 4.7-11.1-6.4 8-4.7z" class="colorAEC7E6 svgShape"></path><path fill="#5386b4" d="M533 305.6v.7l-8 4.7v-.7z" class="color5386B4 svgShape"></path><path fill="#98add4" d="M525 310.3v.7l-9.2-5.3v-.7z" class="color98ADD4 svgShape"></path><path fill="#aec7e6" d="m533 305.6-8 4.7-9.2-5.3 8-4.7z" class="colorAEC7E6 svgShape"></path><path fill="#5386b4" d="M542.9 311.4v.6l-8 4.7v-.7z" class="color5386B4 svgShape"></path><path fill="#98add4" d="M534.9 316v.7l-9.2-5.3v-.7z" class="color98ADD4 svgShape"></path><path fill="#aec7e6" d="m542.9 311.4-8 4.6-9.2-5.3 8-4.7z" class="colorAEC7E6 svgShape"></path><path fill="#5386b4" d="M602.6 345.8v.7l-8 4.7v-.7z" class="color5386B4 svgShape"></path><path fill="#98add4" d="M594.6 350.5v.7l-59-34.1v-.7z" class="color98ADD4 svgShape"></path><path fill="#aec7e6" d="m602.6 345.8-8 4.7-59-34.1 7.9-4.6z" class="colorAEC7E6 svgShape"></path><path fill="#5386b4" d="M612.5 351.6v.6l-8 4.7v-.7z" class="color5386B4 svgShape"></path><path fill="#98add4" d="M604.5 356.2v.7l-9.2-5.3v-.7z" class="color98ADD4 svgShape"></path><path fill="#aec7e6" d="m612.5 351.6-8 4.6-9.2-5.3 8-4.7z" class="colorAEC7E6 svgShape"></path><path fill="#5386b4" d="M622.4 357.3v.7l-8 4.6v-.7z" class="color5386B4 svgShape"></path><path fill="#98add4" d="M614.4 361.9v.7l-9.2-5.3v-.7z" class="color98ADD4 svgShape"></path><path fill="#aec7e6" d="m622.4 357.3-8 4.6-9.2-5.3 8-4.6z" class="colorAEC7E6 svgShape"></path><path fill="#5386b4" d="M632.3 363v.7l-8 4.6v-.7z" class="color5386B4 svgShape"></path><path fill="#98add4" d="M624.3 367.6v.7l-9.2-5.3v-.7z" class="color98ADD4 svgShape"></path><path fill="#aec7e6" d="m632.3 363-8 4.6-9.2-5.3 8-4.6z" class="colorAEC7E6 svgShape"></path><path fill="#5386b4" d="M642.2 368.7v.7l-8 4.6v-.7z" class="color5386B4 svgShape"></path><path fill="#98add4" d="M634.2 373.3v.7l-9.2-5.3v-.7z" class="color98ADD4 svgShape"></path><path fill="#aec7e6" d="m642.2 368.7-8 4.6-9.2-5.3 8-4.6z" class="colorAEC7E6 svgShape"></path><path fill="#5386b4" d="M755.5 381.4v.6l-2 1.2v-.7z" class="color5386B4 svgShape"></path><path fill="#98add4" d="M753.5 382.5v.7L727 367.9v-.7z" class="color98ADD4 svgShape"></path><path fill="#aec7e6" d="m755.5 381.4-2 1.1-26.5-15.3 2-1.2z" class="colorAEC7E6 svgShape"></path><path fill="#5386b4" d="M705.1 348.8v.7l-7.9 4.6v-.7z" class="color5386B4 svgShape"></path><path fill="#98add4" d="M697.2 353.4v.7l-8.1-4.6v-.7z" class="color98ADD4 svgShape"></path><path fill="#aec7e6" d="m705.1 348.8-7.9 4.6-8.1-4.6 8-4.7z" class="colorAEC7E6 svgShape"></path><path fill="#5386b4" d="M713.9 353.8v.7l-8 4.6v-.6z" class="color5386B4 svgShape"></path><path fill="#98add4" d="M705.9 358.5v.6l-8.1-4.6v-.7z" class="color98ADD4 svgShape"></path><path fill="#aec7e6" d="m713.9 353.8-8 4.7-8.1-4.7 8-4.6z" class="colorAEC7E6 svgShape"></path><path fill="#5386b4" d="M722.6 358.9v.6l-8 4.7v-.7z" class="color5386B4 svgShape"></path><path fill="#98add4" d="M714.6 363.5v.7l-8-4.7v-.6z" class="color98ADD4 svgShape"></path><path fill="#aec7e6" d="m722.6 358.9-8 4.6-8-4.6 8-4.7z" class="colorAEC7E6 svgShape"></path><path fill="#5386b4" d="m691.3 356.9-.1.6-7.9 4.7v-.7z" class="color5386B4 svgShape"></path><path fill="#98add4" d="M683.3 361.5v.7l-8.1-4.7v-.6z" class="color98ADD4 svgShape"></path><path fill="#aec7e6" d="m691.3 356.9-8 4.6-8.1-4.6 8-4.7z" class="colorAEC7E6 svgShape"></path><path fill="#5386b4" d="M700 361.9v.7l-8 4.6v-.7z" class="color5386B4 svgShape"></path><path fill="#98add4" d="M692 366.5v.7l-8.1-4.6v-.7z" class="color98ADD4 svgShape"></path><path fill="#aec7e6" d="m700 361.9-8 4.6-8.1-4.6 8-4.6z" class="colorAEC7E6 svgShape"></path><path fill="#5386b4" d="M708.7 366.9v.7l-8 4.7v-.7z" class="color5386B4 svgShape"></path><path fill="#98add4" d="M700.7 371.6v.7l-8-4.7v-.7z" class="color98ADD4 svgShape"></path><path fill="#aec7e6" d="m708.7 366.9-8 4.7-8-4.7 8-4.6z" class="colorAEC7E6 svgShape"></path><path fill="#5386b4" d="M722.3 374.8v.7l-8 4.6v-.7z" class="color5386B4 svgShape"></path><path fill="#98add4" d="M714.3 379.4v.7l-8-4.6v-.7z" class="color98ADD4 svgShape"></path><path fill="#aec7e6" d="m722.3 374.8-8 4.6-8-4.6 8-4.7z" class="colorAEC7E6 svgShape"></path><path fill="#5386b4" d="M731 379.8v.7l-8 4.6v-.6z" class="color5386B4 svgShape"></path><path fill="#98add4" d="M723 384.5v.6l-8-4.6v-.7z" class="color98ADD4 svgShape"></path><path fill="#aec7e6" d="m731 379.8-8 4.7-8-4.7 8-4.6z" class="colorAEC7E6 svgShape"></path><path fill="#5386b4" d="M739.7 384.9v.6l-7.9 4.7v-.7z" class="color5386B4 svgShape"></path><path fill="#98add4" d="M731.8 389.5v.7l-8.1-4.7v-.6z" class="color98ADD4 svgShape"></path><path fill="#aec7e6" d="m739.7 384.9-7.9 4.6-8.1-4.6 8-4.7z" class="colorAEC7E6 svgShape"></path><path fill="#5386b4" d="M748.5 389.9v.7l-8 4.6v-.7z" class="color5386B4 svgShape"></path><path fill="#98add4" d="M740.5 394.5v.7l-8.1-4.6v-.7z" class="color98ADD4 svgShape"></path><path fill="#aec7e6" d="m748.5 389.9-8 4.6-8.1-4.6 8-4.6z" class="colorAEC7E6 svgShape"></path><path fill="#5386b4" d="M682.6 361.9v.7l-8 4.6v-.7z" class="color5386B4 svgShape"></path><path fill="#98add4" d="M674.6 366.5v.7l-8-4.6v-.7z" class="color98ADD4 svgShape"></path><path fill="#aec7e6" d="m682.6 361.9-8 4.6-8-4.6 7.9-4.6z" class="colorAEC7E6 svgShape"></path><path fill="#5386b4" d="M691.3 366.9v.7l-8 4.7v-.7z" class="color5386B4 svgShape"></path><path fill="#98add4" d="M683.3 371.6v.7l-8-4.7v-.7z" class="color98ADD4 svgShape"></path><path fill="#aec7e6" d="m691.3 366.9-8 4.7-8-4.7 8-4.6z" class="colorAEC7E6 svgShape"></path><path fill="#5386b4" d="M700 372v.7l-8 4.6v-.7z" class="color5386B4 svgShape"></path><path fill="#98add4" d="M692 376.6v.7l-8-4.6v-.7z" class="color98ADD4 svgShape"></path><path fill="#aec7e6" d="m700 372-8 4.6-8-4.6 8-4.7z" class="colorAEC7E6 svgShape"></path><path fill="#5386b4" d="M713.6 379.8v.7l-8 4.6v-.6z" class="color5386B4 svgShape"></path><path fill="#98add4" d="M705.6 384.5v.6l-8-4.6v-.7z" class="color98ADD4 svgShape"></path><path fill="#aec7e6" d="m713.6 379.8-8 4.7-8-4.7 8-4.6z" class="colorAEC7E6 svgShape"></path><path fill="#5386b4" d="m722.4 384.9-.1.6-7.9 4.7v-.7z" class="color5386B4 svgShape"></path><path fill="#98add4" d="M714.4 389.5v.7l-8.1-4.7v-.6z" class="color98ADD4 svgShape"></path><path fill="#aec7e6" d="m722.4 384.9-8 4.6-8.1-4.6 8-4.7z" class="colorAEC7E6 svgShape"></path><path fill="#5386b4" d="M731.1 389.9v.7l-8 4.6v-.7z" class="color5386B4 svgShape"></path><path fill="#98add4" d="M723.1 394.5v.7l-8.1-4.6v-.7z" class="color98ADD4 svgShape"></path><path fill="#aec7e6" d="m731.1 389.9-8 4.6-8.1-4.6 8-4.7z" class="colorAEC7E6 svgShape"></path><path fill="#5386b4" d="M705 384.9v.6l-8 4.7v-.7z" class="color5386B4 svgShape"></path><path fill="#98add4" d="M697 389.5v.7l-8.1-4.7v-.6z" class="color98ADD4 svgShape"></path><path fill="#aec7e6" d="m705 384.9-8 4.6-8.1-4.6 8-4.7z" class="colorAEC7E6 svgShape"></path><path fill="#5386b4" d="M713.7 389.9v.7l-8 4.6v-.7z" class="color5386B4 svgShape"></path><path fill="#98add4" d="M705.7 394.5v.7l-8-4.6v-.7z" class="color98ADD4 svgShape"></path><path fill="#aec7e6" d="m713.7 389.9-8 4.6-8-4.6 7.9-4.6z" class="colorAEC7E6 svgShape"></path><path fill="#5386b4" d="M722.4 394.9v.7l-8 4.7v-.7z" class="color5386B4 svgShape"></path><path fill="#98add4" d="M714.4 399.6v.7l-8-4.7v-.7z" class="color98ADD4 svgShape"></path><path fill="#aec7e6" d="m722.4 394.9-8 4.7-8-4.7 8-4.6z" class="colorAEC7E6 svgShape"></path><path fill="#5386b4" d="M739.8 394.9v.7l-16.7 9.7v-.7z" class="color5386B4 svgShape"></path><path fill="#98add4" d="M723.1 404.6v.7l-8-4.6v-.7z" class="color98ADD4 svgShape"></path><path fill="#aec7e6" d="m739.8 394.9-16.7 9.7-8-4.6 16.7-9.7z" class="colorAEC7E6 svgShape"></path><path fill="#5386b4" d="M696.3 389.9v.7l-8 4.6v-.7z" class="color5386B4 svgShape"></path><path fill="#98add4" d="M688.3 394.5v.7l-8-4.6v-.7z" class="color98ADD4 svgShape"></path><path fill="#aec7e6" d="m696.3 389.9-8 4.6-8-4.6 7.9-4.6z" class="colorAEC7E6 svgShape"></path><path fill="#5386b4" d="M705 394.9v.7l-8 4.7v-.7z" class="color5386B4 svgShape"></path><path fill="#98add4" d="M697 399.6v.7l-8-4.7v-.7z" class="color98ADD4 svgShape"></path><path fill="#aec7e6" d="m705 394.9-8 4.7-8-4.7 8-4.6z" class="colorAEC7E6 svgShape"></path><path fill="#5386b4" d="M713.7 400v.7l-8 4.6v-.7z" class="color5386B4 svgShape"></path><path fill="#98add4" d="M705.7 404.6v.7l-8-4.6v-.7z" class="color98ADD4 svgShape"></path><path fill="#aec7e6" d="m713.7 400-8 4.6-8-4.6 8-4.7z" class="colorAEC7E6 svgShape"></path><path fill="#5386b4" d="M674 377v.7l-8 4.6v-.6z" class="color5386B4 svgShape"></path><path fill="#98add4" d="M666 381.7v.6l-8.1-4.6v-.7z" class="color98ADD4 svgShape"></path><path fill="#aec7e6" d="m674 377-8 4.7-8.1-4.7 8-4.6z" class="colorAEC7E6 svgShape"></path><path fill="#5386b4" d="M656.6 377v.7l-8 4.6v-.6z" class="color5386B4 svgShape"></path><path fill="#98add4" d="M648.6 381.7v.6l-8.1-4.6v-.7z" class="color98ADD4 svgShape"></path><path fill="#aec7e6" d="m656.6 377-8 4.7-8.1-4.7 8-4.6z" class="colorAEC7E6 svgShape"></path><path fill="#5386b4" d="M665.3 382v.7l-8 4.7v-.7z" class="color5386B4 svgShape"></path><path fill="#98add4" d="M657.3 386.7v.7l-8-4.7v-.7z" class="color98ADD4 svgShape"></path><path fill="#aec7e6" d="m665.3 382-8 4.7-8-4.7 8-4.6z" class="colorAEC7E6 svgShape"></path><path fill="#5386b4" d="M674 387.1v.7l-8 4.6v-.7z" class="color5386B4 svgShape"></path><path fill="#98add4" d="M666 391.7v.7l-8-4.6v-.7z" class="color98ADD4 svgShape"></path><path fill="#aec7e6" d="m674 387.1-8 4.6-8-4.6 8-4.7z" class="colorAEC7E6 svgShape"></path><path fill="#5386b4" d="M696.3 400v.7l-7.9 4.6v-.7z" class="color5386B4 svgShape"></path><path fill="#98add4" d="M688.4 404.6v.7l-16.8-9.7v-.7z" class="color98ADD4 svgShape"></path><path fill="#aec7e6" d="m696.3 400-7.9 4.6-16.8-9.7 8-4.6z" class="colorAEC7E6 svgShape"></path><path fill="#5386b4" d="M705.1 405v.7l-8 4.6v-.7z" class="color5386B4 svgShape"></path><path fill="#98add4" d="M697.1 409.6v.7l-8.1-4.6v-.7z" class="color98ADD4 svgShape"></path><path fill="#aec7e6" d="m705.1 405-8 4.6-8.1-4.6 8-4.6z" class="colorAEC7E6 svgShape"></path><path fill="#5386b4" d="M722.5 405v.7l-16.7 9.7v-.7z" class="color5386B4 svgShape"></path><path fill="#98add4" d="M705.8 414.7v.7l-8-4.7v-.7z" class="color98ADD4 svgShape"></path><path fill="#aec7e6" d="m722.5 405-16.7 9.7-8-4.7 16.6-9.6zM790.9 313.4v3.8l-55.8 32.4v-3.8z" class="colorAEC7E6 svgShape"></path><path fill="#e9f0f7" d="M735.1 345.8v3.8l-105.2-60.7.1-3.8z" class="colorE9F0F7 svgShape"></path><path fill="#aec7e6" d="m790.9 313.4-55.8 32.4L630 285.1l55.7-32.4z" class="colorAEC7E6 svgShape"></path><path fill="#e9f0f7" d="M735 286.2c9.9 5.7 10 15 .1 20.7-9.8 5.7-25.8 5.7-35.7 0-9.9-5.7-9.9-15-.1-20.7 9.9-5.7 25.8-5.7 35.7 0z" class="colorE9F0F7 svgShape"></path><path fill="#98add4" d="m729.8 178.7 6.8-4-.4 124.9-6.8 4z" class="color98ADD4 svgShape"></path><path fill="#aec7e6" d="m705.1 164.4 6.8-4 24.7 14.3-6.8 4zM729.8 178.7l-.4 124.9-24.7-14.3.4-124.9z" class="colorAEC7E6 svgShape"></path><path fill="#aec7e6" d="M841.9 146.9v-1.1c0-.1 0-.2-.1-.3 0-.1 0-.2-.1-.3 0-.1 0-.2-.1-.3 0-.1 0-.1-.1-.2 0-.1-.1-.2-.1-.3 0-.1-.1-.2-.1-.3 0-.1-.1-.2-.1-.2 0-.1-.1-.2-.1-.2 0-.1-.1-.1-.1-.2s-.1-.2-.1-.2c0-.1-.1-.2-.1-.3-.1-.1-.1-.2-.2-.3-.1-.1-.1-.2-.2-.3v-.2c-.1-.2-.2-.4-.4-.6-.1-.1-.2-.3-.3-.4-.1-.1-.1-.2-.2-.3-.1-.1-.1-.2-.2-.2-.1-.1-.1-.2-.2-.2l-.2-.2-.2-.2-.2-.2-.2-.2-.2-.2-.1-.1s-.1 0-.1-.1l-.2-.2-.2-.2c-.1 0-.1-.1-.2-.1s-.1-.1-.2-.1L598.1.7c-.1 0-.1-.1-.2-.1s-.1-.1-.2-.1-.1-.1-.2-.1-.1-.1-.2-.1-.1-.1-.2-.1h-.1c-.1 0-.1 0-.2-.1H595.4c-.1 0-.2.1-.3.1-.1.1-.3.1-.4.2L591 2.6c.2-.1.5-.2.7-.3.3-.1.5-.1.8 0 .3 0 .6.1.9.2.3.1.7.3 1 .5l238.8 137.9c.3.2.7.4 1 .7.3.3.6.5.9.9.3.3.6.7.8 1 .3.4.5.7.7 1.1v.1l.6 1.2c.2.4.3.8.5 1.2l.3 1.2c.1.4.1.8.1 1.2l-.5 185.5c0 .4 0 .7-.1 1.1l-.3.9c-.1.2-.2.3-.3.4-.2.3-.5.6-.8.8l3.7-2.2c.3-.2.6-.4.8-.8l.1-.1c.1-.1.1-.2.2-.3 0-.1.1-.2.1-.3 0-.1.1-.2.1-.3 0-.1 0-.2.1-.3v-1l.5-185.7c.2-.1.2-.2.2-.3z" class="colorAEC7E6 svgShape"></path><path fill="#e9f0f7" d="M833.2 140.7c2.7 1.6 5 5.4 5 8.6l-.6 185.7c0 3.2-2.3 4.4-5 2.8L593.9 200c-2.8-1.6-5-5.5-5-8.6l.5-185.7c0-3.2 2.3-4.5 5-2.9l238.8 137.9z" class="colorE9F0F7 svgShape"></path><path fill="#0c3461" d="M832.2 149.3c0-1-1.1-2.9-2-3.4l-233-134.6c-.8-.5-1.8.1-1.8 1l-.5 179.1c0 1 1.1 2.9 2 3.4l233 134.5c.8.5 1.8-.1 1.8-1l.5-179z" class="color0C3461 svgShape"></path><path fill="#e9f0f7" d="M597.2 11.3c-.8-.5-1.8.1-1.8 1l-.5 179.1c0 1 1.1 2.9 2 3.4l213.6-60.4L597.2 11.3z" opacity=".1" class="colorE9F0F7 svgShape"></path><path fill="#e9f0f7" d="M307.3 172.5v-1.4c0-.1 0-.1-.1-.2v-.1c0-.1 0-.1-.1-.2 0-.1 0-.1-.1-.2 0-.1 0-.1-.1-.2s0-.1-.1-.2c0 0 0-.1-.1-.1 0-.1-.1-.1-.1-.2s-.1-.1-.1-.2-.1-.1-.1-.2-.1-.1-.1-.2v-.1c-.1-.1-.2-.3-.3-.4-.1-.1-.1-.2-.2-.3l-.2-.2c0-.1-.1-.1-.1-.2s-.1-.1-.1-.2-.1-.1-.1-.2l-.1-.1-.2-.2c-.1-.1-.1-.1-.2-.1s-.1-.1-.2-.1c0 0-.1 0-.1-.1l-.1-.1c-.1 0-.1-.1-.2-.1s-.1-.1-.2-.1-.1-.1-.2-.1-.1-.1-.2-.1L130 66.1s-.1 0-.1-.1l-.1-.1s-.1 0-.1-.1c0 0-.1 0-.1-.1 0 0-.1 0-.1-.1h-1.3c-.1 0-.2 0-.2.1-.1 0-.2.1-.3.1l-2.7 1.6c.2-.1.3-.2.5-.2h.6c.2 0 .4.1.7.1.2.1.5.2.7.3L301 167.9c.2.1.5.3.7.5.2.2.5.4.7.6.2.2.4.5.6.7.2.3.4.5.5.8.2.3.3.6.4.8l.3.9c.1.3.2.6.2.9 0 .3.1.6.1.9l-.4 135.1c0 .3 0 .5-.1.8 0 .2-.1.4-.2.6-.1.1-.1.2-.2.3-.2.2-.3.4-.6.5l2.7-1.6c.2-.1.4-.3.6-.5 0 0 .1 0 .1-.1s.1-.2.1-.2c0-.1.1-.1.1-.2s0-.1.1-.2v-1.2l.4-135.1c.2.4.2.3.2.3z" class="colorE9F0F7 svgShape"></path><g fill="#0c3461" class="color0C3461 svgShape"><path d="M301 167.9c2 1.2 3.6 4 3.6 6.3l-.4 135.1c0 2.3-1.6 3.2-3.6 2.1L126.9 211.1c-2-1.2-3.6-4-3.6-6.3l.4-135.1c0-2.3 1.6-3.2 3.6-2.1L301 167.9z" fill="#000000" class="color000 svgShape"></path><path d="M300.2 174.2c0-.7-.8-2.1-1.4-2.5L129.3 73.8c-.6-.3-1.3.1-1.3.7l-.4 130.3c0 .7.8 2.1 1.4 2.5l169.5 97.9c.6.3 1.3-.1 1.3-.7l.4-130.3z" fill="#000000" class="color000 svgShape"></path></g><path fill="#aec7e6" d="M0 278c0 .8.5 1.5 1.5 2.1L175 380.3c.2.1.5.3.8.4h.1c.2.1.5.2.7.2h.1c.3.1.5.1.8.1h2.1c.2 0 .4-.1.6-.1.2 0 .3-.1.5-.1.1 0 .3-.1.4-.1.4-.1.7-.3 1-.4l116.7-67.8c.1-.1.2-.1.3-.2.1-.1.3-.2.4-.3.2-.1.3-.3.4-.4 0 0 0-.1.1-.1.1-.2.2-.3.2-.5v-.1c.1-.2.1-.4.1-.5v5c0 .1 0 .1-.1.2v.1c0 .1-.1.2-.1.3l-.1.1s0 .1-.1.1c0 0 0 .1-.1.1l-.3.3c-.1.1-.2.2-.4.3-.1.1-.2.1-.3.2h-.1L182.2 385c-.3.2-.6.3-1 .4 0 0-.1 0-.1.1-.1 0-.2 0-.3.1-.2 0-.3.1-.5.1h-.2c-.1 0-.3 0-.4.1H177.3c-.2 0-.3-.1-.5-.1h-.2c-.1 0-.2 0-.3-.1-.2 0-.3-.1-.5-.2h-.1c-.3-.1-.5-.2-.7-.4L1.5 284.8c-1-.6-1.5-1.4-1.5-2.1V278z" class="colorAEC7E6 svgShape"></path><path fill="#e9f0f7" d="M298.9 308.3c2 1.2 2 3 0 4.2l-116.7 67.8c-2 1.2-5.2 1.2-7.2 0L1.5 280.2c-2-1.2-2-3 0-4.2l116.7-67.8c2-1.2 5.2-1.2 7.2 0l173.5 100.1z" class="colorE9F0F7 svgShape"></path><path fill="#aec7e6" d="m210.6 351.5 67.2-38.8-161-93-67.2 38.8zM74.2 310.9l45.7 26.3 30.1-17.4-45.7-26.3z" class="colorAEC7E6 svgShape"></path><path fill="#0c3461" d="M64.4 263c-.8.5-2 .5-2.7.1l-6.1-3.5c-.7-.4-.6-1.1.2-1.5l7-4c.8-.5 2-.5 2.7-.1l6.1 3.5c.7.4.6 1.1-.2 1.5l-7 4zM74.5 268.8c-.8.5-2 .5-2.7.1l-6.1-3.5c-.7-.4-.6-1.1.2-1.5l7-4c.8-.5 2-.5 2.7-.1l6.1 3.5c.7.4.6 1.1-.2 1.5l-7 4zM84.5 274.6c-.8.5-2 .5-2.7.1l-6.1-3.5c-.7-.4-.6-1.1.2-1.5l7-4c.8-.5 2-.5 2.7-.1l6.1 3.5c.7.4.6 1.1-.2 1.5l-7 4zM181.1 330.4c-.8.5-2 .5-2.7.1l-6.1-3.5c-.7-.4-.6-1.1.2-1.5l7-4c.8-.5 2-.5 2.7-.1l6.1 3.5c.7.4.6 1.1-.2 1.5l-7 4zM102.6 285c-.8.5-2 .5-2.7.1l-14-8.1c-.7-.4-.6-1.1.2-1.5l7-4c.8-.5 2-.5 2.7-.1l14.1 8.1c.7.4.6 1.1-.2 1.5l-7.1 4zM171.1 324.5c-.8.5-2 .5-2.7.1l-14.1-8.1c-.7-.4-.6-1.1.2-1.5l7-4c.8-.5 2-.5 2.7-.1l14.1 8.1c.7.4.6 1.1-.2 1.5l-7 4zM153 314.1c-.8.5-2 .5-2.7.1L104 287.5c-.7-.4-.6-1.1.2-1.5l7-4c.8-.5 2-.5 2.7-.1l46.3 26.8c.7.4.6 1.1-.2 1.5l-7 3.9zM191.2 336.2c-.8.5-2 .5-2.7.1l-6.1-3.5c-.7-.4-.6-1.1.2-1.5l2.1-1.2c.8-.5 2-.5 2.7-.1l6.1 3.5c.7.4.6 1.1-.2 1.5l-2.1 1.2zM201.3 342c-.8.5-2 .5-2.7.1l-6.1-3.5c-.7-.4-.6-1.1.2-1.5l2.1-1.2c.8-.5 2-.5 2.7-.1l6.1 3.5c.7.4.6 1.1-.2 1.5l-2.1 1.2z" class="color0C3461 svgShape"></path><path fill="#0c3461" d="M206.2 339.2c-.8.5-2 .5-2.7.1l-6.1-3.5c-.7-.4-.6-1.1.2-1.5l2.1-1.2c.8-.5 2-.5 2.7-.1l6.1 3.5c.7.4.6 1.1-.2 1.5l-2.1 1.2zM211.4 347.8c-.8.5-2 .5-2.7.1l-6.1-3.5c-.7-.4-.6-1.1.2-1.5l2.1-1.2c.8-.5 2-.5 2.7-.1l6.1 3.5c.7.4.6 1.1-.2 1.5l-2.1 1.2zM123.7 230c-.8.5-2 .5-2.7.1l-7.2-4.2c-.7-.4-.6-1.1.2-1.5l2.1-1.2c.8-.5 2-.5 2.7-.1l7.2 4.2c.7.4.6 1.1-.2 1.5l-2.1 1.2zM134.9 236.5c-.8.5-2 .5-2.7.1l-7.2-4.2c-.7-.4-.6-1.1.2-1.5l2.1-1.2c.8-.5 2-.5 2.7-.1l7.2 4.2c.7.4.6 1.1-.2 1.5l-2.1 1.2zM146.1 243c-.8.5-2 .5-2.7.1l-7.2-4.2c-.7-.4-.6-1.1.2-1.5l2.1-1.2c.8-.5 2-.5 2.7-.1l7.2 4.2c.7.4.6 1.1-.2 1.5l-2.1 1.2zM157.3 249.5c-.8.5-2 .5-2.7.1l-7.2-4.2c-.7-.4-.6-1.1.2-1.5l2.1-1.2c.8-.5 2-.5 2.7-.1l7.2 4.2c.7.4.6 1.1-.2 1.5l-2.1 1.2zM168.6 256c-.8.5-2 .5-2.7.1l-7.2-4.2c-.7-.4-.6-1.1.2-1.5l2.1-1.2c.8-.5 2-.5 2.7-.1l7.2 4.2c.7.4.6 1.1-.2 1.5l-2.1 1.2zM179.8 262.4c-.8.5-2 .5-2.7.1l-7.2-4.2c-.7-.4-.6-1.1.2-1.5l2.1-1.2c.8-.5 2-.5 2.7-.1l7.2 4.2c.7.4.6 1.1-.2 1.5l-2.1 1.2zM191 268.9c-.8.5-2 .5-2.7.1l-7.2-4.2c-.7-.4-.6-1.1.2-1.5l2.1-1.2c.8-.5 2-.5 2.7-.1l7.2 4.2c.7.4.6 1.1-.2 1.5l-2.1 1.2zM202.2 275.4c-.8.5-2 .5-2.7.1l-7.2-4.2c-.7-.4-.6-1.1.2-1.5l2.1-1.2c.8-.5 2-.5 2.7-.1l7.2 4.2c.7.4.6 1.1-.2 1.5l-2.1 1.2zM213.4 281.9c-.8.5-2 .5-2.7.1l-7.2-4.2c-.7-.4-.6-1.1.2-1.5l2.1-1.2c.8-.5 2-.5 2.7-.1l7.2 4.2c.7.4.6 1.1-.2 1.5l-2.1 1.2zM224.6 288.3c-.8.5-2 .5-2.7.1l-7.2-4.2c-.7-.4-.6-1.1.2-1.5l2.1-1.2c.8-.5 2-.5 2.7-.1l7.2 4.2c.7.4.6 1.1-.2 1.5l-2.1 1.2zM235.9 294.8c-.8.5-2 .5-2.7.1l-7.2-4.2c-.7-.4-.6-1.1.2-1.5l2.1-1.2c.8-.5 2-.5 2.7-.1l7.2 4.2c.7.4.6 1.1-.2 1.5l-2.1 1.2zM247.1 301.3c-.8.5-2 .5-2.7.1l-7.2-4.2c-.7-.4-.6-1.1.2-1.5l2.1-1.2c.8-.5 2-.5 2.7-.1l7.2 4.2c.7.4.6 1.1-.2 1.5l-2.1 1.2zM258.3 307.8c-.8.5-2 .5-2.7.1l-7.2-4.2c-.7-.4-.6-1.1.2-1.5l2.1-1.2c.8-.5 2-.5 2.7-.1l7.2 4.2c.7.4.6 1.1-.2 1.5l-2.1 1.2zM269.5 314.2c-.8.5-2 .5-2.7.1l-7.2-4.2c-.7-.4-.6-1.1.2-1.5l2.1-1.2c.8-.5 2-.5 2.7-.1l7.2 4.2c.7.4.6 1.1-.2 1.5l-2.1 1.2zM110.9 236.1c-.8.5-2 .5-2.7.1l-6.1-3.5c-.7-.4-.6-1.1.2-1.5l7-4c.8-.5 2-.5 2.7-.1l6.1 3.5c.7.4.6 1.1-.2 1.5l-7 4zM121 241.9c-.8.5-2 .5-2.7.1l-6.1-3.5c-.7-.4-.6-1.1.2-1.5l7-4c.8-.5 2-.5 2.7-.1l6.1 3.5c.7.4.6 1.1-.2 1.5l-7 4zM131.1 247.7c-.8.5-2 .5-2.7.1l-6.1-3.5c-.7-.4-.6-1.1.2-1.5l7-4c.8-.5 2-.5 2.7-.1l6.1 3.5c.7.4.6 1.1-.2 1.5l-7 4zM141.1 253.5c-.8.5-2 .5-2.7.1l-6.1-3.5c-.7-.4-.6-1.1.2-1.5l7-4c.8-.5 2-.5 2.7-.1l6.1 3.5c.7.4.6 1.1-.2 1.5l-7 4zM151.2 259.4c-.8.5-2 .5-2.7.1l-6.1-3.5c-.7-.4-.6-1.1.2-1.5l7-4c.8-.5 2-.5 2.7-.1l6.1 3.5c.7.4.6 1.1-.2 1.5l-7 4zM161.3 265.2c-.8.5-2 .5-2.7.1l-6.1-3.5c-.7-.4-.6-1.1.2-1.5l7-4c.8-.5 2-.5 2.7-.1l6.1 3.5c.7.4.6 1.1-.2 1.5l-7 4zM171.3 271c-.8.5-2 .5-2.7.1l-6.1-3.5c-.7-.4-.6-1.1.2-1.5l7-4c.8-.5 2-.5 2.7-.1l6.1 3.5c.7.4.6 1.1-.2 1.5l-7 4zM181.4 276.8c-.8.5-2 .5-2.7.1l-6.1-3.5c-.7-.4-.6-1.1.2-1.5l7-4c.8-.5 2-.5 2.7-.1l6.1 3.5c.7.4.6 1.1-.2 1.5l-7 4zM191.5 282.6c-.8.5-2 .5-2.7.1l-6.1-3.5c-.7-.4-.6-1.1.2-1.5l7-4c.8-.5 2-.5 2.7-.1l6.1 3.5c.7.4.6 1.1-.2 1.5l-7 4zM201.6 288.4c-.8.5-2 .5-2.7.1l-6.1-3.5c-.7-.4-.6-1.1.2-1.5l7-4c.8-.5 2-.5 2.7-.1l6.1 3.5c.7.4.6 1.1-.2 1.5l-7 4zM211.6 294.2c-.8.5-2 .5-2.7.1l-6.1-3.5c-.7-.4-.6-1.1.2-1.5l7-4c.8-.5 2-.5 2.7-.1l6.1 3.5c.7.4.6 1.1-.2 1.5l-7 4zM221.7 300.1c-.8.5-2 .5-2.7.1l-6.1-3.5c-.7-.4-.6-1.1.2-1.5l7-4c.8-.5 2-.5 2.7-.1l6.1 3.5c.7.4.6 1.1-.2 1.5l-7 4zM231.8 305.9c-.8.5-2 .5-2.7.1l-6.1-3.5c-.7-.4-.6-1.1.2-1.5l7-4c.8-.5 2-.5 2.7-.1l6.1 3.5c.7.4.6 1.1-.2 1.5l-7 4zM241.8 311.7c-.8.5-2 .5-2.7.1l-6.1-3.5c-.7-.4-.6-1.1.2-1.5l7-4c.8-.5 2-.5 2.7-.1l6.1 3.5c.7.4.6 1.1-.2 1.5l-7 4zM257.9 320.9c-.8.5-2 .5-2.7.1l-12-6.9c-.7-.4-.6-1.1.2-1.5l7-4c.8-.5 2-.5 2.7-.1l12 6.9c.7.4.6 1.1-.2 1.5l-7 4zM244.7 318.7c.8-.5 2-.5 2.7-.1l6.1 3.5c.7.4.6 1.1-.2 1.5l-7 4c-.8.5-2 .5-2.7.1l-6.1-3.5c-.7-.4-.6-1.1.2-1.5l7-4zM234.7 312.9c.8-.5 2-.5 2.7-.1l6.1 3.5c.7.4.6 1.1-.2 1.5l-7 4c-.8.5-2 .5-2.7.1l-6.1-3.5c-.7-.4-.6-1.1.2-1.5l7-4zM224.6 307.1c.8-.5 2-.5 2.7-.1l6.1 3.5c.7.4.6 1.1-.2 1.5l-7 4c-.8.5-2 .5-2.7.1l-6.1-3.5c-.7-.4-.6-1.1.2-1.5l7-4zM214.5 301.3c.8-.5 2-.5 2.7-.1l6.1 3.5c.7.4.6 1.1-.2 1.5l-7 4c-.8.5-2 .5-2.7.1l-6.1-3.5c-.7-.4-.6-1.1.2-1.5l7-4zM204.4 295.4c.8-.5 2-.5 2.7-.1l6.1 3.5c.7.4.6 1.1-.2 1.5l-7 4c-.8.5-2 .5-2.7.1l-6.1-3.5c-.7-.4-.6-1.1.2-1.5l7-4zM194.4 289.6c.8-.5 2-.5 2.7-.1l6.1 3.5c.7.4.6 1.1-.2 1.5l-7 4c-.8.5-2 .5-2.7.1l-6.1-3.5c-.7-.4-.6-1.1.2-1.5l7-4zM184.3 283.8c.8-.5 2-.5 2.7-.1l6.1 3.5c.7.4.6 1.1-.2 1.5l-7 4c-.8.5-2 .5-2.7.1l-6.1-3.5c-.7-.4-.6-1.1.2-1.5l7-4zM174.2 278c.8-.5 2-.5 2.7-.1l6.1 3.5c.7.4.6 1.1-.2 1.5l-7 4c-.8.5-2 .5-2.7.1l-6.1-3.5c-.7-.4-.6-1.1.2-1.5l7-4zM164.1 272.2c.8-.5 2-.5 2.7-.1l6.1 3.5c.7.4.6 1.1-.2 1.5l-7 4c-.8.5-2 .5-2.7.1l-6.1-3.5c-.7-.4-.6-1.1.2-1.5l7-4zM154.1 266.4c.8-.5 2-.5 2.7-.1l6.1 3.5c.7.4.6 1.1-.2 1.5l-7 4c-.8.5-2 .5-2.7.1l-6.1-3.5c-.7-.4-.6-1.1.2-1.5l7-4zM144 260.6c.8-.5 2-.5 2.7-.1l6.1 3.5c.7.4.6 1.1-.2 1.5l-7 4c-.8.5-2 .5-2.7.1l-6.1-3.5c-.7-.4-.6-1.1.2-1.5l7-4zM133.9 254.7c.8-.5 2-.5 2.7-.1l6.1 3.5c.7.4.6 1.1-.2 1.5l-7 4c-.8.5-2 .5-2.7.1l-6.1-3.5c-.7-.4-.6-1.1.2-1.5l7-4zM123.9 248.9c.8-.5 2-.5 2.7-.1l6.1 3.5c.7.4.6 1.1-.2 1.5l-7 4c-.8.5-2 .5-2.7.1l-6.1-3.5c-.7-.4-.6-1.1.2-1.5l7-4zM113.8 243.1c.8-.5 2-.5 2.7-.1l6.1 3.5c.7.4.6 1.1-.2 1.5l-7 4c-.8.5-2 .5-2.7.1l-6.1-3.5c-.7-.4-.6-1.1.2-1.5l7-4zM97.8 233.8c.8-.5 2-.5 2.7-.1l12 6.9c.7.4.6 1.1-.2 1.5l-7 4c-.8.5-2 .5-2.7.1l-12-6.9c-.7-.4-.6-1.1.2-1.5l7-4zM210 312.1c.8-.5 2-.5 2.7-.1l6.1 3.5c.7.4.6 1.1-.2 1.5l-7 4c-.8.5-2 .5-2.7.1l-6.1-3.5c-.7-.4-.6-1.1.2-1.5l7-4zM199.9 306.2c.8-.5 2-.5 2.7-.1l6.1 3.5c.7.4.6 1.1-.2 1.5l-7 4c-.8.5-2 .5-2.7.1l-6.1-3.5c-.7-.4-.6-1.1.2-1.5l7-4zM189.8 300.4c.8-.5 2-.5 2.7-.1l6.1 3.5c.7.4.6 1.1-.2 1.5l-7 4c-.8.5-2 .5-2.7.1l-6.1-3.5c-.7-.4-.6-1.1.2-1.5l7-4zM179.8 294.6c.8-.5 2-.5 2.7-.1l6.1 3.5c.7.4.6 1.1-.2 1.5l-7 4c-.8.5-2 .5-2.7.1l-6.1-3.5c-.7-.4-.6-1.1.2-1.5l7-4zM169.7 288.8c.8-.5 2-.5 2.7-.1l6.1 3.5c.7.4.6 1.1-.2 1.5l-7 4c-.8.5-2 .5-2.7.1l-6.1-3.5c-.7-.4-.6-1.1.2-1.5l7-4zM159.6 283c.8-.5 2-.5 2.7-.1l6.1 3.5c.7.4.6 1.1-.2 1.5l-7 4c-.8.5-2 .5-2.7.1l-6.1-3.5c-.7-.4-.6-1.1.2-1.5l7-4zM149.5 277.2c.8-.5 2-.5 2.7-.1l6.1 3.5c.7.4.6 1.1-.2 1.5l-7 4c-.8.5-2 .5-2.7.1l-6.1-3.5c-.7-.4-.6-1.1.2-1.5l7-4zM139.5 271.4c.8-.5 2-.5 2.7-.1l6.1 3.5c.7.4.6 1.1-.2 1.5l-7 4c-.8.5-2 .5-2.7.1l-6.1-3.5c-.7-.4-.6-1.1.2-1.5l7-4zM129.4 265.5c.8-.5 2-.5 2.7-.1l6.1 3.5c.7.4.6 1.1-.2 1.5l-7 4c-.8.5-2 .5-2.7.1l-6.1-3.5c-.7-.4-.6-1.1.2-1.5l7-4zM119.3 259.7c.8-.5 2-.5 2.7-.1l6.1 3.5c.7.4.6 1.1-.2 1.5l-7 4c-.8.5-2 .5-2.7.1l-6.1-3.5c-.7-.4-.6-1.1.2-1.5l7-4zM109.2 253.9c.8-.5 2-.5 2.7-.1l6.1 3.5c.7.4.6 1.1-.2 1.5l-7 4c-.8.5-2 .5-2.7.1l-6.1-3.5c-.7-.4-.6-1.1.2-1.5l7-4zM100.7 257.1c-.8.5-2 .5-2.7.1l-19.1-11c-.7-.4-.6-1.1.2-1.5l7-4c.8-.5 2-.5 2.7-.1l19.1 11c.7.4.6 1.1-.2 1.5l-7 4zM213 321.9c-.8.5-.9 1.1-.2 1.5l19.1 11c.7.4 1.9.3 2.7-.1l7-4c.8-.5.9-1.1.2-1.5l-19.1-11c-.7-.4-1.9-.3-2.7.1l-7 4zM193.3 315.9c.8-.5 2-.5 2.7-.1l6.1 3.5c.7.4.6 1.1-.2 1.5l-7 4c-.8.5-2 .5-2.7.1l-6.1-3.5c-.7-.4-.6-1.1.2-1.5l7-4zM183.2 310.1c.8-.5 2-.5 2.7-.1l6.1 3.5c.7.4.6 1.1-.2 1.5l-7 4c-.8.5-2 .5-2.7.1l-6.1-3.5c-.7-.4-.6-1.1.2-1.5l7-4zM173.2 304.2c.8-.5 2-.5 2.7-.1l6.1 3.5c.7.4.6 1.1-.2 1.5l-7 4c-.8.5-2 .5-2.7.1l-6.1-3.5c-.7-.4-.6-1.1.2-1.5l7-4zM163.1 298.4c.8-.5 2-.5 2.7-.1l6.1 3.5c.7.4.6 1.1-.2 1.5l-7 4c-.8.5-2 .5-2.7.1l-6.1-3.5c-.7-.4-.6-1.1.2-1.5l7-4zM153 292.6c.8-.5 2-.5 2.7-.1l6.1 3.5c.7.4.6 1.1-.2 1.5l-7 4c-.8.5-2 .5-2.7.1l-6.1-3.5c-.7-.4-.6-1.1.2-1.5l7-4zM142.9 286.8c.8-.5 2-.5 2.7-.1l6.1 3.5c.7.4.6 1.1-.2 1.5l-7 4c-.8.5-2 .5-2.7.1l-6.1-3.5c-.7-.4-.6-1.1.2-1.5l7-4zM132.9 281c.8-.5 2-.5 2.7-.1l6.1 3.5c.7.4.6 1.1-.2 1.5l-7 4c-.8.5-2 .5-2.7.1l-6.1-3.5c-.7-.4-.6-1.1.2-1.5l7-4zM122.8 275.2c.8-.5 2-.5 2.7-.1l6.1 3.5c.7.4.6 1.1-.2 1.5l-7 4c-.8.5-2 .5-2.7.1l-6.1-3.5c-.7-.4-.6-1.1.2-1.5l7-4zM112.7 269.4c.8-.5 2-.5 2.7-.1l6.1 3.5c.7.4.6 1.1-.2 1.5l-7 4c-.8.5-2 .5-2.7.1l-6.1-3.5c-.7-.4-.6-1.1.2-1.5l7-4zM102.7 263.5c.8-.5 2-.5 2.7-.1l6.1 3.5c.7.4.6 1.1-.2 1.5l-7 4c-.8.5-2 .5-2.7.1l-6.1-3.5c-.7-.4-.6-1.1.2-1.5l7-4zM94.1 266.7c-.8.5-2 .5-2.7.1l-24.1-13.9c-.7-.4-.6-1.1.2-1.5l7-4c.8-.5 2-.5 2.7-.1l24.1 13.9c.7.4.6 1.1-.2 1.5l-7 4zM196.4 325.7c-.8.5-.9 1.1-.2 1.5l24.1 13.9c.7.4 1.9.3 2.7-.1l7-4c.8-.5.9-1.1.2-1.5L206 321.6c-.7-.4-1.9-.3-2.7.1l-6.9 4z" class="color0C3461 svgShape"></path><path fill="#27639e" d="M803.7 593.9c1.8-1.1 1.8-3.7 0-4.7l-90-51.9c-3.1-1.8-6.9-1.8-10 0L519.1 643.8s-.1 0-.1.1c0 0-.1 0-.1.1h-.1c-.2.1-.3.3-.4.5 0 .1-.1.2-.1.2V646.1s0 .1.1.1v.1c.1.2.2.3.3.4l.1.1s.1 0 .1.1l91.2 52.8c2.8 1.6 6.4 1.6 9.2 0l184.4-105.8z" class="color27639E svgShape"></path><path fill="#071f3b" d="M614.6 701c1.6 0 3.1-.4 4.2-1l182-105.4c1.2-.7 1.9-1.7 1.9-2.7 0-1.1-.7-2-1.9-2.7L712.2 538c-1.1-.6-2.6-1-4.2-1s-3.1.4-4.2 1L522 643.1c-1.2.7-1.9 1.7-1.9 2.7 0 1.1.7 2 1.9 2.7l88.5 51.4c1 .7 2.5 1.1 4.1 1.1z" class="color071F3B svgShape"></path><path fill="#0c3461" d="M800.5 589.6c2.1 1.2 2.1 3.3 0 4.5l-182 105.4c-2.1 1.2-5.7 1.2-7.8 0l-88.5-51.4c-2.1-1.2-2.1-3.3 0-4.5l181.9-105.1c2.1-1.2 5.7-1.2 7.8 0l88.6 51.1z" class="color0C3461 svgShape"></path><path fill="#e9f0f7" d="M704.2 538.5c2.1-1.2 5.7-1.2 7.8 0l88.6 51.1c2.1 1.2 2.1 3.3 0 4.5l-138.4 80.2V562.8l42-24.3z" opacity=".1" class="colorE9F0F7 svgShape"></path><path fill="#5386b4" d="M521.7 644.1c-.1.9.4 1.8 1.5 2.5l87.5 50.9c2.1 1.2 5.5 1.2 7.6 0l180.3-104.4c1.7-1 2-2.4 1-3.6 2.1 1.2 2.1 3.2 0 4.4L618.3 699c-2.1 1.2-5.5 1.2-7.6 0l-88-51.1c-1.8-1.1-2.1-2.6-1-3.8z" class="color5386B4 svgShape"></path><path fill="#c44fff" d="M704.3 539.3c2.1-1.2 5.3-1.2 7.4 0l14.2 7.6-14.1-8.1c-2.1-1.2-5.5-1.2-7.6 0l-88 51.1 88.1-50.6z" class="colorC44FFF svgShape"></path><path fill="#071f3b" d="M516.9 648.6v-1 .1-.4c0-.1 0-.2.1-.3 0-.1.1-.2.1-.3v-.2c.1-.2.5-1.2 1.2-2.1-.1.1-.1.2-.2.3 0 .1-.1.2-.1.2V646.3s0 .1.1.1v.1c.1.2.2.3.3.4l.1.1s.1 0 .1.1l91.2 52.8c2.8 1.6 6.4 1.6 9.2 0l7.6-4.4 1.1-.6 175.5-101.4c1.8-1.1 1.8-3.7 0-4.7 1.4.8 2.4 2.2 2.7 2.8v.1s.1.1.1.2v.1s0 .1.1.1v.1c0 .1.1.2.1.3 0 .1.1.2.1.2 0 .1.1.2.1.4s.1.5.1.7V596.3c0 .1-.1.3-.1.4 0 .1-.1.2-.1.3v.1c-.1.2-.2.5-.3.7 0 .1-.1.2-.1.2s0 .1-.1.1c-.3.6-.7 1.1-1.2 1.5l-.1.1-.2.2-.1.1-.2.2s-.1 0-.1.1h-.1c-.1.1-.2.2-.3.2L621.4 706.6c-3.5 2-7.9 2-11.4 0l-89.8-52.2s-.1 0-.1-.1c0 0-.1 0-.1-.1 0 0 .1 0 .1.1-.1 0-.2-.1-.3-.2 0 0-.1 0-.1-.1-.1-.1-.2-.1-.3-.3l-.1-.1h-.1c-.1 0-.1-.1-.2-.1-.4-.4-.8-.8-1-1.3 0 0 0-.1-.1-.1 0-.1-.1-.1-.1-.2-.1-.1-.1-.2-.2-.3v-.1c0-.1-.1-.2-.1-.2v-.1c0-.1 0-.1-.1-.2v-.1c0-.1-.1-.2-.1-.4-.1-.2-.1-.4-.1-.5V649.2c-.3-.3-.3-.4-.3-.6 0 .1 0 .1 0 0 0 .1 0 .1 0 0 0 .1 0 .1 0 0z" class="color071F3B svgShape"></path><path fill="#0c3461" d="M516.9 648.6c0 .1 0 .1 0 0V650c0 .2.1.3.1.5 0 .1.1.2.1.4v.2c.3.4.7.7 1.1 1l91.3 53c1.9 1.1 4 1.6 6.1 1.6 2.1 0 4.2-.5 6.1-1.6l184-106.6c.4-.2.7-.5 1-.9 0-.1 0-.1.1-.2v-.1c0-.1.1-.2.1-.3 0-.2.1-.3.1-.4V594.2c0-.1 0-.2-.1-.3v.2c0 1.2-.6 2.3-1.6 2.8L621.1 703.6c-3.3 1.9-7.3 1.9-10.6 0l-92-53.4c-.9-.5-1.5-1.5-1.4-2.6v.5c-.2.2-.2.3-.2.5z" class="color0C3461 svgShape"></path><path fill="#114077" d="m518.4 652 91.3 53c1.9 1.1 4 1.6 6.1 1.6 2.1 0 4.2-.5 6.1-1.6l184-106.6c.4-.2.7-.5 1-.9-.1.2-.1.4-.2.6 0 .1-.1.2-.1.2s0 .1-.1.1c-.3.6-.7 1.1-1.2 1.5l-.1.1-.2.2-.1.1-.2.2s-.1 0-.1.1h-.1c-.1.1-.2.2-.3.2L621.4 706.6c-3.5 2-7.9 2-11.4 0l-89.8-52.2s-.1 0-.1-.1c0 0-.1 0-.1-.1 0 0 .1 0 .1.1-.1 0-.2-.1-.3-.2 0 0-.1 0-.1-.1-.1-.1-.2-.1-.3-.3l-.1-.1h-.1c-.1 0-.1-.1-.2-.1-.4-.4-.8-.8-1-1.3 0 0 0-.1-.1-.1 0-.1-.1-.1-.1-.2-.1-.1-.1-.2-.2-.3v-.1c0-.1-.1-.2-.1-.2v-.1c.1.2.5.5.9.8z" class="color114077 svgShape"></path><path fill="#144b8a" d="M795.2 604.7c0 .8-.3 1.4-.8 1.7l1-.6c.5-.3.8-.9.8-1.7 0-1.6-1-3.6-2.4-4.5l-1 .6c1.3 1 2.4 2.9 2.4 4.5zM629.7 700.5c0 .9-.3 1.5-.8 1.8l1.1-.6c.5-.3.8-.9.8-1.8 0-1.6-1.1-3.6-2.5-4.6l-1.1.6c1.4.9 2.5 2.9 2.5 4.6z" class="color144B8A svgShape"></path><path fill="#071f3b" d="M558.3 673.5c0 .1 0 .1 0 0v.5c0 .1.1.3.1.4v.2c.1.1.1.3.2.4v.1l.1.1.1.1.2.2c.1 0 .1.1.2.1h.1l6.8 3.9H567.2c.2-.1.4-.4.4-.8 0-.6-.3-1.3-.8-1.8-.2-.2-.4-.3-.6-.5l-4.9-2.8-1.9-1.1c-.4-.2-.7-.2-.9-.1l-.1.1v.1c0 .1-.1.2-.1.3V673.5z" class="color071F3B svgShape"></path><path fill="#114077" d="M560.7 674.4c.1-.1.1-.1 0 0 .1-.1.1-.1 0 0 .1-.1.1-.1 0 0 .1-.1.1-.1 0 0H561s.1 0 .1.1l3.5 2 .1.1.2.2c.1.1.1.1.1.2 0 0 0 .1.1.1 0 .1.1.1.1.2s.1.1.1.2v.4c0 .1-.1.2-.1.3l-.1.1 1.7-1c-.2-.2-.4-.3-.6-.5l-4.9-2.8-.6.4c0-.1 0-.1 0 0z" class="color114077 svgShape"></path><path fill="#071f3b" d="M561.2 674.4c-.4-.2-.7 0-.7.4 0 .5.3 1 .7 1.3l3.5 2c.4.2.7 0 .7-.4 0-.5-.3-1-.7-1.3l-3.5-2zM598.9 695.8c-.6-.3-1-.1-1 .6s.5 1.5 1 1.8c.6.3 1 .1 1-.6.1-.7-.4-1.5-1-1.8zM595.8 693.9c-.6-.3-1-.1-1 .6s.5 1.5 1 1.8c.6.3 1 .1 1-.6 0-.6-.4-1.4-1-1.8zM592.6 692.1c-.6-.3-1-.1-1 .6s.5 1.5 1 1.8c.6.3 1 .1 1-.6.1-.6-.4-1.4-1-1.8zM589.5 690.3c-.6-.3-1-.1-1 .6s.5 1.5 1 1.8c.6.3 1 .1 1-.6 0-.6-.4-1.4-1-1.8zM586.4 688.5c-.6-.3-1-.1-1 .6s.5 1.5 1 1.8c.6.3 1 .1 1-.6s-.5-1.5-1-1.8zM583.2 686.7c-.6-.3-1-.1-1 .6s.5 1.5 1 1.8c.6.3 1 .1 1-.6.1-.7-.4-1.5-1-1.8zM542.7 663.2c-.6-.3-1-.1-1 .6s.5 1.5 1 1.8c.6.3 1 .1 1-.6.1-.7-.4-1.5-1-1.8zM539.6 661.4c-.6-.3-1-.1-1 .6s.5 1.5 1 1.8c.6.3 1 .1 1-.6s-.4-1.5-1-1.8zM536.5 659.6c-.6-.3-1-.1-1 .6s.5 1.5 1 1.8c.6.3 1 .1 1-.6s-.5-1.5-1-1.8zM533.3 657.8c-.6-.3-1-.1-1 .6s.5 1.5 1 1.8c.6.3 1 .1 1-.6.1-.7-.4-1.5-1-1.8zM530.2 655.9c-.6-.3-1-.1-1 .6s.5 1.5 1 1.8c.6.3 1 .1 1-.6 0-.6-.4-1.4-1-1.8zM527.1 654.1c-.6-.3-1-.1-1 .6s.5 1.5 1 1.8c.6.3 1 .1 1-.6 0-.6-.5-1.4-1-1.8z" class="color071F3B svgShape"></path><path fill="#e8ce72" d="M555.7 638.3c4.2 2.4 4.2 6.3 0 8.7-4.1 2.4-10.9 2.4-15.1 0-4.2-2.4-4.2-6.3 0-8.7 4.1-2.4 10.9-2.4 15.1 0z" class="colorE8CE72 svgShape"></path><path fill="#72e8c1" d="M576.9 650.6c4.2 2.4 4.2 6.3 0 8.7-4.1 2.4-10.9 2.4-15.1 0-4.2-2.4-4.2-6.3 0-8.7 4.1-2.4 10.9-2.4 15.1 0z" class="color72E8C1 svgShape"></path><path fill="#e872c6" d="M598.1 662.8c4.2 2.4 4.2 6.3 0 8.7-4.1 2.4-10.9 2.4-15.1 0-4.2-2.4-4.2-6.3 0-8.7 4.2-2.4 10.9-2.4 15.1 0z" class="colorE872C6 svgShape"></path><path fill="#8b72e8" d="M619.3 675.1c4.2 2.4 4.2 6.3 0 8.7-4.1 2.4-10.9 2.4-15.1 0-4.2-2.4-4.2-6.3 0-8.7 4.2-2.5 10.9-2.5 15.1 0z" class="color8B72E8 svgShape"></path><path fill="#aec7e6" d="m72.6 501.8-1.7-1s-.1 0-.1-.1c-.1 0-.2-.1-.3-.1h-1.1c-.1 0-.3.1-.4.2l-5.7 3.3c-.3.1-.4.3-.4.5v2.1c0-.2.1-.4.4-.5l5.7-3.3c.1-.1.2-.1.4-.2h1.1c.2 0 .3.1.4.2l1.7 1c.2.1.3.2.4.4v.1-2.1c0-.2-.1-.4-.4-.5zM88.5 510.9l-1.7-1s-.1 0-.1-.1c-.1 0-.2-.1-.3-.1h-1c-.1 0-.3.1-.4.2l-5.7 3.3c-.3.1-.4.3-.4.5v2.1c0-.2.1-.4.4-.5L85 512c.1-.1.3-.1.4-.2h1.1c.2 0 .3.1.4.2l1.7 1c.3.1.4.3.4.5v-2.1l-.5-.5zM104.3 520.1l-1.7-1s-.1 0-.1-.1c-.1 0-.2-.1-.3-.1h-1.1c-.1 0-.3.1-.4.2l-5.7 3.3c-.1.1-.2.2-.3.2-.1.1-.1.2-.1.3v2.1c0-.2.1-.4.4-.5l5.7-3.3c.1-.1.2-.1.4-.2h1.1c.2 0 .3.1.4.2l1.7 1c.3.1.4.3.4.5v-2.1c0-.2-.1-.4-.4-.5zM120.2 529.2l-1.7-1s-.1 0-.1-.1c-.1 0-.2-.1-.3-.1h-1c-.1 0-.3.1-.4.2l-5.7 3.3c-.3.1-.4.3-.4.5v2.1c0-.2.1-.4.4-.5l5.7-3.3c.1-.1.2-.1.4-.2h1.1c.2 0 .3.1.4.2l1.7 1 .3.3c.1.1.1.2.1.3v-2.1c-.1-.2-.3-.4-.5-.6zM136 538.4l-1.7-1s-.1 0-.1-.1c-.1 0-.2-.1-.3-.1h-1.1c-.1 0-.3.1-.4.2l-5.7 3.3c-.3.1-.4.3-.4.5v2.1c0-.2.1-.4.4-.5l5.7-3.3c.1-.1.2-.1.4-.2h1.1c.2 0 .3.1.4.2l1.7 1c.3.1.4.3.4.5v-2.1c0-.2-.1-.4-.4-.5zM151.9 547.5l-1.7-1s-.1 0-.1-.1c-.1 0-.2-.1-.3-.1h-1.1c-.1 0-.3.1-.4.2l-5.7 3.3c-.3.1-.4.3-.4.5v2.1c0-.2.1-.4.4-.5l5.7-3.3c.1-.1.2-.1.4-.2h1.1c.2 0 .3.1.4.2l1.7 1c.2.1.3.2.4.4v.1-2.1c0-.1-.2-.3-.4-.5zM167.7 556.7l-1.7-1s-.1 0-.1-.1c-.1 0-.2-.1-.3-.1h-1.1c-.1 0-.3.1-.4.2l-5.7 3.3c-.3.1-.4.3-.4.5v2.1c0-.2.1-.4.4-.5l5.7-3.3c.1-.1.2-.1.4-.2h1.1c.2 0 .3.1.4.2l1.7 1c.3.1.4.3.4.5v-2.1c0-.2-.1-.4-.4-.5z" class="colorAEC7E6 svgShape"></path><path fill="#27639e" d="M217.2 568.5v2.1l-36.4 21.1v-2z" class="color27639E svgShape"></path><path fill="#e9f0f7" d="m66.3 481.4 150.9 87.1-36.4 21.2-150.9-87.2c-10.1-5.8-10.2-15.3-.1-21.2s26.4-5.8 36.5.1zm16.5 33.9 5.7-3.3c.5-.3.5-.8 0-1.1l-1.7-1c-.5-.3-1.3-.3-1.9 0l-5.7 3.3c-.5.3-.5.8 0 1.1l1.7 1c.6.3 1.4.3 1.9 0m15.8 9.2 5.7-3.3c.5-.3.5-.8 0-1.1l-1.7-1c-.5-.3-1.3-.3-1.9 0l-5.7 3.3c-.5.3-.5.8 0 1.1l1.7 1c.6.2 1.4.3 1.9 0m47.6 27.4 5.7-3.3c.5-.3.5-.8 0-1.1l-1.7-1c-.5-.3-1.3-.3-1.9 0l-5.7 3.3c-.5.3-.5.8 0 1.1l1.7 1c.6.3 1.4.3 1.9 0m-79.3-45.7 5.7-3.3c.5-.3.5-.8 0-1.1l-1.7-1c-.5-.3-1.3-.3-1.9 0l-5.7 3.3c-.5.3-.5.8 0 1.1l1.7 1c.6.2 1.4.2 1.9 0m47.6 27.4 5.7-3.3c.5-.3.5-.8 0-1.1l-1.7-1c-.5-.3-1.3-.3-1.9 0l-5.7 3.3c-.5.3-.5.8 0 1.1l1.7 1c.6.3 1.4.3 1.9 0m47.5 27.5 5.7-3.3c.5-.3.5-.8 0-1.1l-1.7-1c-.5-.3-1.3-.3-1.9 0l-5.7 3.3c-.5.3-.5.8 0 1.1l1.7 1c.6.3 1.4.3 1.9 0m-31.7-18.3 5.7-3.3c.5-.3.5-.8 0-1.1l-1.7-1c-.5-.3-1.3-.3-1.9 0l-5.7 3.3c-.5.3-.5.8 0 1.1l1.7 1c.6.2 1.4.2 1.9 0" class="colorE9F0F7 svgShape"></path><path fill="#aec7e6" d="M29.9 502.5c-2.5-1.5-4.5-3.2-5.7-5-.3-.5-.6-.9-.8-1.4-.4-.7-.6-1.4-.8-2.1-.2-.7-.3-1.4-.3-2.2v2.1c0 3.9 2.5 7.7 7.6 10.7l150.9 87.1v-2.1L29.9 502.5z" class="colorAEC7E6 svgShape"></path><path fill="#98add4" d="m180.8 589.7 36.4-21.2-19.2-11.1-36.5 21.1z" class="color98ADD4 svgShape"></path><path fill="#aec7e6" d="m274.7 586.9-.1-.2c1 2.1.1 4.4-2.8 6l-39.8 23c-4.2 2.4-11.1 2.4-15.2 0L166 586.4c-2.8-1.6-3.7-4-2.8-6-3.8 8.5.8 12.3 2.8 13.6l50.8 29.3c4.2 2.4 11.1 2.4 15.2 0l39.8-23c1.4-.8 2.3-1.8 2.8-2.8 1.6-3.4 1.7-7.2.1-10.6z" class="colorAEC7E6 svgShape"></path><path fill="#98add4" d="m274.7 586.9-.1-.2c1 2.1.1 8.2-2.8 9.8l-39.8 23c-4.2 2.4-11.1 2.4-15.2 0L166 590.2c-2.8-1.6-3.7-7.8-2.8-9.9-3.8 8.5.8 12.3 2.8 13.6l50.8 29.3c4.2 2.4 11.1 2.4 15.2 0l39.8-23c1.4-.8 2.3-1.8 2.8-2.8 1.6-3.3 1.7-7.1.1-10.5z" class="color98ADD4 svgShape"></path><path fill="#e9f0f7" d="M274.6 586.7c-.5-1-1.4-2-2.8-2.8L221 554.6c-4.2-2.4-11.1-2.4-15.2 0l-39.8 23c-1.4.8-2.3 1.7-2.8 2.8-1 2.1-.1 4.4 2.8 6l50.8 29.3c4.2 2.4 11.1 2.4 15.2 0l39.8-23c2.8-1.6 3.7-3.9 2.8-6z" class="colorE9F0F7 svgShape"></path><path fill="#0c3461" d="M170.2 585.6c-3.8-2.2-3.8-5.8 0-8l36.2-20.9c3.8-2.2 10-2.2 13.9 0l46.2 26.7c3.8 2.2 3.8 5.8 0 8l-36.2 20.9c-3.8 2.2-10 2.2-13.9 0l-46.2-26.7z" class="color0C3461 svgShape"></path><path fill="#aec7e6" d="M267 583.8c1.1 1.9.4 4.1-2.2 5.7l-34.9 20.2c-3.7 2.1-9.7 2.1-13.4 0l-44.6-25.8c-2.8-1.6-3.5-4-2-6-3.4 2.2-3.3 5.6.4 7.7l46.2 26.7c3.8 2.2 10 2.2 13.9 0l36.2-20.9c3.3-2.1 3.5-5.4.4-7.6z" class="colorAEC7E6 svgShape"></path><path fill="#aec7e6" d="m178 586-5.9-3.4c-.9-.5-1.4-1.4-1.4-2.5 0-1 .5-2 1.4-2.5l6.1-3.5c.2-.1-5.3 3.7-5.8 4.1-.5.4-.8 1.2-.8 1.9s.5 1.5 1.2 2.2 5.2 3.7 5.2 3.7z" class="colorAEC7E6 svgShape"></path><path fill="#e9f0f7" d="M179.7 598.7V597c0-.1 0-.1-.1-.2 0-.1 0-.1-.1-.2v-.1c0-.1 0-.1-.1-.2v-.1c0-.1 0-.1-.1-.2 0-.1-.1-.1-.1-.2 0 0 0-.1-.1-.1 0-.1-.1-.1-.1-.2v-.1l-.1-.1c0-.1-.1-.1-.1-.2-.1-.1-.1-.2-.2-.3 0-.1-.1-.1-.1-.2s-.1-.1-.1-.1l-.1-.1-.1-.1-.1-.1-.1-.1-.1-.1-.1-.1-.1-.1-.1-.1s-.1 0-.1-.1l-.1-.1-.1-.1s-.1 0-.1-.1c0 0-.1 0-.1-.1h-.1s-.1 0-.1-.1h-1.3c-.1 0-.1 0-.2.1-.1 0-.2.1-.2.1l-2.4 1.4c.1 0 .2-.1.2-.1.1 0 .1 0 .2-.1h.8c.1 0 .2 0 .3.1.1 0 .2.1.3.1.1 0 .2.1.3.2.1.1.2.1.3.2.1.1.2.1.3.2.1.1.2.2.3.2l.3.3.3.3.3.3c.1.1.2.2.2.3 0 .1.1.1.1.2s.1.1.1.2v.1c.1.1.1.2.2.3.1.1.1.2.2.4.1.1.1.2.2.4 0 .1.1.3.1.4 0 .1.1.2.1.4 0 .1.1.3.1.4V601c0 .1 0 .2-.1.3 0 .1-.1.2-.1.2 0 .1-.1.2-.1.2-.1.1-.1.2-.2.3l-.1.1c-.1.1-.2.2-.3.2l2.4-1.4c.1-.1.2-.1.3-.2l.1-.1c.1-.1.2-.2.2-.3 0-.1.1-.1.1-.2 0 0 0-.1.1-.2v-1.2c-.6.1-.6.1-.6 0z" class="colorE9F0F7 svgShape"></path><path fill="#aec7e6" d="M174.1 594.7c1.8 1 3.2 3.5 3.2 5.6 0 2-1.5 2.9-3.2 1.8-1.8-1-3.2-3.5-3.2-5.6 0-2 1.4-2.8 3.2-1.8z" class="colorAEC7E6 svgShape"></path><path fill="#0c3461" d="M406.9 678v2.1l-24.5-14.2v-2z" class="color0C3461 svgShape"></path><path fill="#aec7e6" d="m382.4 667.7-12.6 7.3v2.1l12.6-7.3c.9-.5 1.4-1.2 1.4-1.9v-2.1c-.1.7-.5 1.4-1.4 1.9z" class="colorAEC7E6 svgShape"></path><path fill="#e9f0f7" d="M382.4 663.9c1.8 1.1 1.9 2.8 0 3.8l-12.6 7.3-6.6-3.8c-.6-.4-1.6-.4-2.2 0l-2.4 1.4c-.6.3-.6.9 0 1.3l6.6 3.8-12.6 7.3c-1.8 1.1-4.8 1.1-6.6 0l-4.4-2.5-108-62.4L270 599l108 62.4 4.4 2.5z" class="colorE9F0F7 svgShape"></path><path fill="#9b9b9b" d="M363 671.2c-.1 0-.2-.1-.3-.1h-.1c-.1 0-.2 0-.4-.1H361.5c-.1 0-.1 0-.2.1h-.1c-.1 0-.2.1-.3.1l-2.4 1.4c-.1 0-.1.1-.2.1l-.1.1-.1.1v.1c0 .3.1.5.4.7l.7.4 1.7-1c.1 0 .2-.1.3-.1h.1c.1 0 .1 0 .2-.1H362.2c.1 0 .2 0 .4.1h.1c.1 0 .2.1.3.1.1 0 .1 0 .2.1l6.6 3.8v-2.1l-6.6-3.8c-.1.1-.1.1-.2.1z" class="color9B9B9B svgShape"></path><path fill="#aec7e6" d="M352.6 685c-.2.1-.4.2-.7.3h-.1c-.2.1-.5.2-.7.2h-.1c-.3.1-.5.1-.8.1H348.3c-.2 0-.4-.1-.6-.1h-.2c-.2-.1-.5-.1-.7-.2-.1 0-.1 0-.2-.1l-.6-.3-4.4-2.5-108-62.4v2.1l108 62.4 4.4 2.5c.1.1.2.1.4.2.1 0 .2.1.3.1.1 0 .1 0 .2.1.2.1.4.1.6.2H347.8c.2 0 .4.1.6.1h1.8c.3 0 .5-.1.8-.1h.1c.2-.1.5-.1.7-.2h.1c.2-.1.5-.2.7-.3l12.6-7.3v-2.1l-12.6 7.3z" class="colorAEC7E6 svgShape"></path><path fill="#0c3461" d="m385.5 685.4-2.4 1.4c-.1 0-.2.1-.3.1h-.1c-.1 0-.1 0-.2.1H381.8c-.1 0-.2 0-.4-.1h-.1c-.1 0-.2-.1-.3-.1-.1 0-.1 0-.2-.1l-15.7-9.1v2.1l15.7 9.1s.1 0 .1.1h.1c.1 0 .2.1.3.1h.1c.1 0 .2 0 .4.1H382.5c.1 0 .1 0 .2-.1h.1c.1 0 .2-.1.3-.1l2.4-1.4c.2-.1.4-.3.4-.5V684.7c0 .3-.1.5-.4.7z" class="color0C3461 svgShape"></path><path fill="#114077" d="M385.5 684.1c.6.3.6.9 0 1.3l-2.4 1.4c-.6.3-1.6.3-2.2 0l-15.7-9.1-6.6-3.8c-.6-.4-.6-.9 0-1.3l2.4-1.4c.6-.4 1.6-.4 2.2 0l6.6 3.8 15.7 9.1z" class="color114077 svgShape"></path><path fill="#114077" d="M413.1 676.8c1.2.7 1.2 1.7 0 2.4l-40.6 23.6c-1.1.7-3 .7-4.2 0l-28.9-16.7c-1.2-.7-1.2-1.7 0-2.4l2.1-1.2 4.2 2.4 24.7 14.3 36.4-21.2-24.5-14.2-4.4-2.5 2.1-1.2c1.1-.7 3-.7 4.2 0l28.9 16.7z" class="color114077 svgShape"></path><path fill="#0c3461" d="m413.1 679.2-40.6 23.6c-.2.1-.3.2-.5.2-.1 0-.1 0-.2.1-.1 0-.3.1-.4.1H370c-.2 0-.5-.1-.7-.1h-.1c-.2 0-.3-.1-.5-.2-.1 0-.2-.1-.3-.2L339.5 686c-.6-.3-.9-.8-.9-1.2v2.1c0 .4.3.9.9 1.2l28.9 16.7c.1 0 .1.1.2.1h.1c.2.1.3.1.5.2h.1c.2.1.4.1.7.1H371.4c.1 0 .3-.1.4-.1.1 0 .1 0 .2-.1.2-.1.4-.1.5-.2l40.6-23.6c.3-.2.5-.4.6-.6.1-.2.2-.4.2-.6v-2.1c.1.6-.2 1-.8 1.3zM421.1 266.8c3.9 2.3 3.9 5.9 0 8.1-3.9 2.3-10.2 2.2-14.1 0-3.9-2.2-3.9-5.9 0-8.1 3.9-2.3 10.2-2.3 14.1 0z" class="color0C3461 svgShape"></path><path fill="#114077" d="M424 270.9V271.9c0 .1 0 .1-.1.2 0 0 0 .1-.1.1 0 .1-.1.1-.1.1s0 .1-.1.1c0 .1-.1.1-.1.2 0 0 0 .1-.1.1 0 .1-.1.1-.1.2 0 0 0 .1-.1.1l-.3.3s0 .1-.1.1c-.1.1-.1.2-.2.2l-.1.1-.1.1-.1.1c-.1 0-.1.1-.2.1l-.1.1c-.1 0-.1.1-.2.1s-.1.1-.2.1-.1.1-.2.1-.2.1-.2.1c-.2.1-.4.2-.7.4-.1 0-.1.1-.2.1l-.6.3h-.1c-.2.1-.5.2-.7.2-.2.1-.3.1-.5.1-.1 0-.3.1-.4.1-.2 0-.4.1-.5.1-.1 0-.3.1-.4.1h-.2c-.2 0-.5.1-.7.1h-.2c-.3 0-.5.1-.8.1h-2.7c-.2 0-.3 0-.5-.1-.1 0-.3 0-.4-.1-.2 0-.4-.1-.5-.1-.2 0-.4-.1-.5-.1h-.1c-.3-.1-.5-.1-.7-.2-.1 0-.1 0-.2-.1-.2-.1-.4-.1-.6-.2-.1 0-.1 0-.2-.1-.2-.1-.4-.1-.5-.2-.1 0-.2-.1-.3-.1-.3-.1-.5-.2-.7-.4-1.1-.6-1.9-1.4-2.4-2.2-.4-.6-.6-1.3-.6-1.9V328c0 1.8-1 3.6-2.6 4.5L375 348.4c.1 0 .1-.1.2-.1 0 0 .1 0 .1-.1 0 0 .1 0 .1-.1 0 0 .1 0 .1-.1H377.2c.1 0 .3 0 .4.1h.1c.1 0 .2.1.3.1h.1c.1 0 .1 0 .2.1.1 0 .1 0 .2.1.1 0 .1 0 .2.1.1 0 .1 0 .2.1.1 0 .1.1.2.1s.1.1.2.1.1.1.2.1.2.1.2.1c.2.1.4.3.6.4.1 0 .1.1.2.1.2.1.4.3.6.4l.1.1c.2.2.4.3.6.5.1.1.3.2.4.4l.3.3.4.4.3.3.1.1c.1.2.3.4.4.5 0 .1.1.1.1.2.2.2.3.4.5.7l.1.1c.1.2.2.3.3.5.1.2.2.3.3.5.1.1.1.3.2.4.1.1.2.3.2.4.1.1.1.3.2.4.1.2.1.3.2.5.1.1.1.3.2.4.1.2.1.3.2.5s.1.4.2.5v.1c.1.2.1.5.2.7v.2c0 .2.1.4.1.6v.2c0 .2 0 .4.1.6v1.1c0 1.3-.3 2.3-.7 3.1-.3.6-.8 1.1-1.4 1.4l32.5-18.8c4.1-2.4 6.6-6.8 6.6-11.5v-64.4z" class="color114077 svgShape"></path><path fill="#0c3461" d="M372.9 353c0-4.5 3.1-6.3 7-4.1s7 7.7 7 12.2c0 4.5-3.1 6.3-7 4.1-3.9-2.3-7-7.7-7-12.2z" class="color0C3461 svgShape"></path><path fill="#114077" d="M422.5 199.3V200.1s0 .1-.1.1v.1s0 .1-.1.1c0 0 0 .1-.1.1 0 .1-.1.1-.1.1s0 .1-.1.1c0 .1-.1.1-.1.2l-.1.1c-.1.1-.1.2-.2.3l-.1.1-.2.2-.1.1-.1.1-.1.1-.1.1-.1.1-.1.1-.1.1s-.1.1-.2.1-.1.1-.2.1l-.6.3c-.1 0-.1 0-.2.1-.2.1-.4.2-.5.2h-.1c-.2.1-.4.1-.6.2-.1 0-.3.1-.4.1-.1 0-.2.1-.3.1-.2 0-.3.1-.5.1-.1 0-.2 0-.3.1h-.1c-.2 0-.4.1-.6.1h-.2c-.2 0-.5 0-.7.1H412.4c-.1 0-.3 0-.4-.1-.2 0-.3 0-.4-.1-.2 0-.3-.1-.5-.1h-.1c-.2-.1-.4-.1-.6-.2-.1 0-.1 0-.2-.1-.2-.1-.3-.1-.5-.2 0 0-.1 0-.1-.1-.2-.1-.3-.1-.4-.2-.1 0-.1-.1-.2-.1l-.6-.3c-.9-.5-1.6-1.2-2-1.9-.3-.5-.5-1.1-.5-1.6v71.4c0 1.3.8 2.5 2.5 3.5l.6.3c.1 0 .1.1.2.1.1.1.2.1.4.2h.1s.1 0 .1.1c.2.1.3.1.5.2.1 0 .1 0 .2.1h.1c.2 0 .3.1.5.1h.1c.1 0 .2 0 .3.1h.2c.1 0 .3.1.4.1H416c.2 0 .4-.1.6-.1h.2c.1 0 .2 0 .3-.1.2 0 .3-.1.5-.1.1 0 .2-.1.3-.1.1 0 .3-.1.4-.1h.1c.2-.1.3-.1.5-.2h.1c.2-.1.4-.1.5-.2.1 0 .1 0 .2-.1l.6-.3s.1 0 .1-.1c0 0 .1 0 .1-.1.1 0 .1-.1.2-.1l.1-.1.1-.1.1-.1.1-.1.1-.1.1-.1h.1l.2-.2.1-.1c.1-.1.2-.2.2-.3v-.1c0-.1.1-.1.1-.2 0 0 0-.1.1-.1l.1-.1v-.1s0-.1.1-.1v-.1s0-.1.1-.1v-72.5c.1.3.1.4.1.4z" class="color114077 svgShape"></path><path fill="#0c3461" d="M420 195.7c3.3 1.9 3.3 5 0 6.9-3.3 1.9-8.6 1.9-11.9 0-3.3-1.9-3.3-5 0-6.9 3.3-1.9 8.6-1.9 11.9 0z" class="color0C3461 svgShape"></path><path fill="#114077" d="M420.3 114.9c0-3.5-2.8-6.2-6.2-6.2-3.4 0-6.2 2.8-6.2 6.2v83.8c0 .9.6 1.9 1.8 2.6.1.1.3.2.5.2.1 0 .1 0 .2.1.1 0 .2.1.3.1h.1c.1 0 .3.1.4.1h.2c.1 0 .3.1.4.1h.5c.1 0 .2 0 .3.1h2.7c.1 0 .3 0 .4-.1h.4c.1 0 .2 0 .3-.1.1 0 .2 0 .2-.1.1 0 .2-.1.3-.1h.1c.1 0 .3-.1.4-.1h.1c.1-.1.3-.1.4-.2 0 0 .1 0 .1-.1.1-.1.3-.1.4-.2h.2s.1 0 .1-.1c0 0 .1 0 .1-.1 0 0 .1 0 .1-.1 0 0 .1 0 .1-.1l.1-.1s.1 0 .1-.1l.1-.1.1-.1.2-.2.1-.1v-.1s0-.1.1-.1V198.6l.5-83.7v.2-.2z" class="color114077 svgShape"></path><path fill="#0c3461" d="M610.1 375.9c3.9 2.3 3.9 5.9 0 8.1-3.9 2.3-10.2 2.2-14.1 0-3.9-2.2-3.9-5.9 0-8.1 3.9-2.2 10.2-2.2 14.1 0z" class="color0C3461 svgShape"></path><path fill="#114077" d="M613 380V381c0 .1 0 .1-.1.2 0 0 0 .1-.1.1 0 .1-.1.1-.1.1s0 .1-.1.1c0 .1-.1.1-.1.2 0 0 0 .1-.1.1 0 .1-.1.1-.1.2 0 0 0 .1-.1.1l-.3.3s0 .1-.1.1c-.1.1-.1.2-.2.2l-.1.1-.1.1-.1.1c-.1 0-.1.1-.2.1l-.1.1c-.1 0-.1.1-.2.1s-.1.1-.2.1-.1.1-.2.1-.2.1-.2.1c-.2.1-.4.2-.7.4-.1 0-.1.1-.2.1l-.6.3h-.1c-.2.1-.5.2-.7.2-.2.1-.3.1-.5.1-.1 0-.3.1-.4.1-.2 0-.4.1-.5.1-.1 0-.3.1-.4.1h-.2c-.2 0-.5.1-.7.1h-.2c-.3 0-.5.1-.8.1h-2.7c-.2 0-.3 0-.5-.1-.1 0-.3 0-.4-.1-.2 0-.4-.1-.5-.1-.2 0-.4-.1-.5-.1h-.1c-.3-.1-.5-.1-.7-.2-.1 0-.1 0-.2-.1-.2-.1-.4-.1-.6-.2-.1 0-.1 0-.2-.1-.2-.1-.4-.1-.5-.2-.1 0-.2-.1-.3-.1-.3-.1-.5-.2-.7-.4-1.1-.6-1.9-1.4-2.4-2.2-.4-.6-.6-1.3-.6-1.9v57.7c0 1.8-1 3.6-2.6 4.5L564 457.5c.1 0 .1-.1.2-.1 0 0 .1 0 .1-.1 0 0 .1 0 .1-.1 0 0 .1 0 .1-.1H566.2c.1 0 .3 0 .4.1h.1c.1 0 .2.1.3.1h.1c.1 0 .1 0 .2.1.1 0 .1 0 .2.1.1 0 .1 0 .2.1.1 0 .1 0 .2.1.1 0 .1.1.2.1s.1.1.2.1.1.1.2.1.2.1.2.1c.2.1.4.3.6.4.1 0 .1.1.2.1.2.1.4.3.6.4l.1.1c.2.2.4.3.6.5.1.1.3.2.4.4l.3.3.4.4.3.3.1.1c.1.2.3.4.4.5 0 .1.1.1.1.2.2.2.3.4.5.7l.1.1c.1.2.2.3.3.5.1.2.2.3.3.5.1.1.1.3.2.4.1.1.2.3.2.4.1.1.1.3.2.4.1.2.1.3.2.5.1.1.1.3.2.4.1.2.1.3.2.5s.1.4.2.5v.1c.1.2.1.5.2.7v.2c0 .2.1.4.1.6v.2c0 .2 0 .4.1.6v1.1c0 1.3-.3 2.3-.7 3.1-.3.6-.8 1.1-1.4 1.4l32.5-18.8c4.1-2.4 6.6-6.8 6.6-11.5V380z" class="color114077 svgShape"></path><path fill="#0c3461" d="M561.9 462.1c0-4.5 3.1-6.3 7-4.1s7 7.7 7 12.2c0 4.5-3.1 6.3-7 4.1-3.8-2.2-7-7.7-7-12.2z" class="color0C3461 svgShape"></path><path fill="#114077" d="M611.5 308.5V309.3s0 .1-.1.1v.1s0 .1-.1.1c0 0 0 .1-.1.1 0 .1-.1.1-.1.1s0 .1-.1.1c0 .1-.1.1-.1.2l-.1.1c-.1.1-.1.2-.2.3l-.1.1-.2.2-.1.1-.1.1-.1.1-.1.1-.1.1-.1.1-.1.1s-.1.1-.2.1-.1.1-.2.1l-.6.3c-.1 0-.1 0-.2.1-.2.1-.4.2-.5.2h-.1c-.2.1-.4.1-.6.2-.1 0-.3.1-.4.1-.1 0-.2.1-.3.1-.2 0-.3.1-.5.1-.1 0-.2 0-.3.1h-.1c-.2 0-.4.1-.6.1h-.2c-.2 0-.5 0-.7.1H601.4c-.1 0-.3 0-.4-.1-.2 0-.3 0-.4-.1-.2 0-.3-.1-.5-.1h-.1c-.2-.1-.4-.1-.6-.2-.1 0-.1 0-.2-.1-.2-.1-.3-.1-.5-.2 0 0-.1 0-.1-.1-.2-.1-.3-.1-.4-.2-.1 0-.1-.1-.2-.1l-.6-.3c-.9-.5-1.6-1.2-2-1.9-.3-.5-.5-1.1-.5-1.6v71.4c0 1.3.8 2.5 2.5 3.5l.6.3c.1 0 .1.1.2.1.1.1.2.1.4.2h.1s.1 0 .1.1c.2.1.3.1.5.2.1 0 .1 0 .2.1h.1c.2 0 .3.1.5.1h.1c.1 0 .2 0 .3.1h.2c.1 0 .3.1.4.1H605c.2 0 .4-.1.6-.1h.2c.1 0 .2 0 .3-.1.2 0 .3-.1.5-.1.1 0 .2-.1.3-.1.1 0 .3-.1.4-.1h.1c.2-.1.3-.1.5-.2h.1c.2-.1.4-.1.5-.2.1 0 .1 0 .2-.1l.6-.3s.1 0 .1-.1c0 0 .1 0 .1-.1.1 0 .1-.1.2-.1l.1-.1.1-.1.1-.1.1-.1.1-.1.1-.1h.1l.2-.2.1-.1c.1-.1.2-.2.2-.3v-.1c0-.1.1-.1.1-.2 0 0 0-.1.1-.1l.1-.1v-.1s0-.1.1-.1v-.1s0-.1.1-.1v-72.5c.1.3.1.3.1.4z" class="color114077 svgShape"></path><path fill="#0c3461" d="M609 304.8c3.3 1.9 3.3 5 0 6.9-3.3 1.9-8.6 1.9-11.9 0-3.3-1.9-3.3-5 0-6.9 3.3-1.9 8.6-1.9 11.9 0z" class="color0C3461 svgShape"></path><path fill="#114077" d="M609.3 224c0-3.5-2.8-6.2-6.2-6.2-3.4 0-6.2 2.8-6.2 6.2v83.8c0 .9.6 1.9 1.8 2.6.1.1.3.2.5.2.1 0 .1 0 .2.1.1 0 .2.1.3.1h.1c.1 0 .3.1.4.1h.2c.1 0 .3.1.4.1h.5c.1 0 .2 0 .3.1h2.7c.1 0 .3 0 .4-.1h.4c.1 0 .2 0 .3-.1.1 0 .2 0 .2-.1.1 0 .2-.1.3-.1h.1c.1 0 .3-.1.4-.1h.1c.1-.1.3-.1.4-.2 0 0 .1 0 .1-.1.1-.1.3-.1.4-.2h.2s.1 0 .1-.1c0 0 .1 0 .1-.1 0 0 .1 0 .1-.1 0 0 .1 0 .1-.1l.1-.1s.1 0 .1-.1l.1-.1.1-.1.2-.2.1-.1v-.1s0-.1.1-.1V307.7l.5-83.7v.2-.2z" class="color114077 svgShape"></path><path fill="#aec7e6" d="M230.8 460.3c-4.4-2.6-8.1-8.9-8.1-14v-26.2c0-5.1 3.6-7.2 8.1-4.7l217 125.3c4.4 2.6 8.1 8.9 8.1 14v26.2c0 5.1-3.6 7.2-8.1 4.7l-217-125.3z" class="colorAEC7E6 svgShape"></path><path fill="#0c3461" d="M233.9 458.5c-4.4-2.6-8.1-8.9-8.1-14v-19c0-5.1 3.6-7.2 8.1-4.7l210.7 121.7c4.4 2.6 8.1 8.9 8.1 14v19c0 5.1-3.6 7.2-8.1 4.7L233.9 458.5z" class="color0C3461 svgShape"></path><path fill="#e9f0f7" d="m603.2 451-217-125.3c-2.2-1.3-4.2-1.4-5.6-.6l-155.4 89.7c1.5-.8 3.5-.7 5.7.6l217 125.3c4.4 2.6 8.1 8.9 8.1 14v26.2c0 2.6-1 4.5-2.5 5.3L609 496.4c1.5-.8 2.4-2.7 2.4-5.2V465c-.1-5.1-3.8-11.4-8.2-14z" class="colorE9F0F7 svgShape"></path><path fill="#aec7e6" d="M611.3 465v26.2c0 1.3-.2 2.4-.6 3.2-.4.9-1 1.5-1.7 2l-155.5 89.8c1.5-.8 2.5-2.6 2.5-5.3v-26.2c0-2.9-1.2-6.2-3-9L608.3 456c1.8 2.8 3 6.1 3 9z" class="colorAEC7E6 svgShape"></path><path d="m385.7 325.5-155.4 89.7c-2-1-3.8-1.1-5.2-.3l155.4-89.7c1.4-.8 3.2-.7 5.2.3z" opacity=".05" fill="#000000" class="color000 svgShape"></path><path fill="#27639e" d="m385.4 536.4 13.6-7.9v-1.1l-1.8-1-4.9-2.8-1.7 1-.8-.5-1.8 1-.8-.4-1.7 1z" class="color27639E svgShape"></path><path fill="none" d="M404.1 547.1v-12.7l-.5-.3-.5-.3-1.5-.9v-2l-.8-.4-.5-.3-1.3-.7v-2.1h-.1l-1.7-1-6.6-3.8v2l-2.6-1.5v2l-2.5-1.4-.1 12.7z"></path><path fill="#dbdbdb" d="m386.2 535.9 17.9 10.3v-11.8l-.5-.3-.5-.3-1.5-.9v-2l-.8-.4-.5-.3-1.3-.7v-1l-9.2 5.3-.1.1z" class="colorDBDBDB svgShape"></path><path fill="#175294" d="m386.2 532.7 2.6 1.5.9-.5 9.3-5.4v-.9h-.1l-1.7-1z" class="color175294 svgShape"></path><path fill="#27639e" d="m388.8 533.2.9.5 9.3-5.4v-.9h-.1z" class="color27639E svgShape"></path><path fill="#fbc977" d="m389.7 533.7.1.1.4.2 8.8-5.1V528.3z" class="colorFBC977 svgShape"></path><path fill="#27639e" d="m390.2 534 1.7 1 8.4-4.8-1.3-.7v-.6z" class="color27639E svgShape"></path><path fill="#fbc977" d="m391.9 535 .5.3 8.4-4.8-.5-.3z" class="colorFBC977 svgShape"></path><path fill="#27639e" d="m392.4 535.3 1.8 1 7.4-4.2v-1.2l-.8-.4z" class="color27639E svgShape"></path><path fill="#fbc977" d="m394.2 536.3.5.3 6.9-4v-.5z" class="colorFBC977 svgShape"></path><path fill="#27639e" d="m394.7 536.6 1.8 1 6.6-3.8-1.5-.9v-.3z" class="color27639E svgShape"></path><path fill="#fbc977" d="m396.5 537.6.4.3 6.7-3.8-.5-.3z" class="colorFBC977 svgShape"></path><path fill="#27639e" d="m396.9 537.9 1.8 1 5.4-3.1v-1.4l-.5-.3z" class="color27639E svgShape"></path><path fill="#fbc977" d="m398.7 538.9.5.3 4.9-2.8v-.6z" class="colorFBC977 svgShape"></path><path fill="#27639e" d="m399.2 539.2 1.8 1 3.1-1.8v-2z" class="color27639E svgShape"></path><path fill="#fbc977" d="m401 540.2.5.3 2.6-1.5v-.6z" class="colorFBC977 svgShape"></path><path fill="#27639e" d="m401.5 540.5.8.5 1.8-1v-1z" class="color27639E svgShape"></path><path fill="#27639e" d="m402.3 542 1.8-1v-1l-1.8 1z" class="color27639E svgShape"></path><path fill="#175294" d="m402.3 542 1.8 1.1V541z" class="color175294 svgShape"></path><path fill="#db8918" d="M389.7 533.7v2.6l.5.3V534zM391.9 535v2.6l.5.3v-2.6zM394.2 536.3v2.6l.5.3v-2.6zM396.5 537.6v2.6l.4.3v-2.6zM398.7 538.9v2.6l.5.3v-2.6zM401 540.2v2.6l.5.3v-2.6z" class="colorDB8918 svgShape"></path><path fill="#0c3461" d="m386.2 535.9 17.9 10.3v-3.1l-1.8-1.1v-1l-.8-.5v2.6l-.5-.3v-2.6l-1.8-1v2.6l-.5-.3v-2.6l-1.8-1v2.6l-.4-.3v-2.6l-1.8-1v2.6l-.5-.3v-2.6l-1.8-1v2.6l-.5-.3V535l-1.7-1v2.6l-.5-.3v-2.6l-.9-.5v1l-2.6-1.5z" class="color0C3461 svgShape"></path><path fill="#175294" d="m385.4 536.4.8-.5 17.9 10.3v.9zM388 525.1l1.8-1-1.8-1z" class="color175294 svgShape"></path><path fill="#27639e" d="m385.5 525.7 1.7-1-1.7-1z" class="color27639E svgShape"></path><path fill="#175294" d="m390.6 524.6 1.7-1-1.7-1z" class="color175294 svgShape"></path><path fill="#27639e" d="m418.5 555.4 13.5-7.8v-1.1l-1.8-1-4.8-2.8-1.8 1-.8-.5-1.7 1-.9-.5-1.7 1z" class="color27639E svgShape"></path><path fill="none" d="M437.1 566.2v-8.7l.1-2.1v-1.9l-.6-.3-.5-.3-1.5-.9v-2l-.8-.4-.5-.3-1.3-.8v-2h-.1l-1.7-1-6.6-3.8v2l-2.5-1.5v2l-2.6-1.5v12.7z"></path><path fill="#dbdbdb" d="m419.3 555 17.8 10.3v-7.8l.1-2.1v-1.9l-.6-.3-.5-.3-1.5-.9v-2l-.8-.4-.5-.3-1.3-.8v-.9l-9.1 5.3-.2.1z" class="colorDBDBDB svgShape"></path><path fill="#175294" d="m419.3 551.8 2.5 1.5.9-.5 9.3-5.4v-.9h-.1v-.1l-1.7-.9z" class="color175294 svgShape"></path><path fill="#27639e" d="m421.8 552.3.9.5 9.3-5.4v-.9h-.1v-.1z" class="color27639E svgShape"></path><path fill="#fbc977" d="m422.7 552.8.2.1.3.2 8.8-5.1V547.4z" class="colorFBC977 svgShape"></path><path fill="#27639e" d="m423.2 553.1 1.8 1 8.3-4.8-1.3-.8v-.5z" class="color27639E svgShape"></path><path fill="#fbc977" d="m425 554.1.5.3 8.3-4.8-.5-.3z" class="colorFBC977 svgShape"></path><path fill="#27639e" d="m425.5 554.4 1.7 1 7.4-4.3V550l-.8-.4z" class="color27639E svgShape"></path><path fill="#fbc977" d="m427.2 555.4.5.3 6.9-4v-.6z" class="colorFBC977 svgShape"></path><path fill="#27639e" d="m427.7 555.7 1.8 1 6.6-3.8-1.5-.9v-.3z" class="color27639E svgShape"></path><path fill="#fbc977" d="m429.5 556.7.5.3 6.6-3.8-.5-.3z" class="colorFBC977 svgShape"></path><path fill="#27639e" d="m430 557 1.7 1 5.5-3.1v-1.4l-.6-.3z" class="color27639E svgShape"></path><path fill="#fbc977" d="m431.7 558 .5.3 5-2.9v-.5z" class="colorFBC977 svgShape"></path><path fill="#27639e" d="m432.2 558.3 1.8 1 3.1-1.8.1-2.1z" class="color27639E svgShape"></path><path fill="#fbc977" d="m434 559.3.5.3 2.6-1.5v-.6z" class="colorFBC977 svgShape"></path><path fill="#27639e" d="m434.5 559.6.9.5 1.7-1v-1z" class="color27639E svgShape"></path><path fill="#27639e" d="m435.4 561.1 1.7-1v-1l-1.7 1z" class="color27639E svgShape"></path><path fill="#175294" d="m435.4 561.1 1.7 1v-2z" class="color175294 svgShape"></path><path fill="#db8918" d="M422.7 552.8v2.6l.5.3v-2.6zM425 554.1v2.6l.4.3.1-2.6zM427.2 555.4v2.6l.5.3v-2.6zM429.5 556.7v2.6l.5.3V557zM431.7 558v2.6l.5.3v-2.6zM434 559.3v2.6l.5.3v-2.6z" class="colorDB8918 svgShape"></path><path fill="#0c3461" d="m419.3 555 17.8 10.3v-3.2l-1.7-1v-1l-.9-.5v2.6l-.5-.3v-2.6l-1.8-1v2.6l-.5-.3V558l-1.7-1v2.6l-.5-.3v-2.6l-1.8-1v2.6l-.5-.3v-2.6l-1.7-1-.1 2.6-.4-.3v-2.6l-1.8-1v2.6l-.5-.3v-2.6l-.9-.5v1l-2.5-1.5z" class="color0C3461 svgShape"></path><path fill="#175294" d="m418.5 555.4.8-.4 17.8 10.3v.9zM421.1 544.2l1.7-1-1.7-1z" class="color175294 svgShape"></path><path fill="#27639e" d="m418.5 544.7 1.7-1-1.7-1z" class="color27639E svgShape"></path><path fill="#175294" d="m423.6 543.7 1.8-1-1.8-1z" class="color175294 svgShape"></path><path fill="#3effcc" d="M262.6 461c1.6.9 2.9.2 2.9-1.6s-1.3-4.1-2.9-5c-1.6-.9-2.9-.2-2.9 1.6s1.3 4.1 2.9 5zM280.2 471.2c1.6.9 2.9.2 2.9-1.6s-1.3-4.1-2.9-5c-1.6-.9-2.9-.2-2.9 1.6s1.3 4.1 2.9 5zM297.9 481.4c1.6.9 2.9.2 2.9-1.6s-1.3-4.1-2.9-5c-1.6-.9-2.9-.2-2.9 1.6s1.3 4.1 2.9 5zM315.5 491.6c1.6.9 2.9.2 2.9-1.6s-1.3-4.1-2.9-5c-1.6-.9-2.9-.2-2.9 1.6.1 1.8 1.3 4.1 2.9 5zM333.2 501.8c1.6.9 2.9.2 2.9-1.6s-1.3-4.1-2.9-5c-1.6-.9-2.9-.2-2.9 1.6s1.3 4.1 2.9 5zM350.8 512c1.6.9 2.9.2 2.9-1.6s-1.3-4.1-2.9-5c-1.6-.9-2.9-.2-2.9 1.6.1 1.8 1.4 4 2.9 5zM368.5 522.2c1.6.9 2.9.2 2.9-1.6s-1.3-4.1-2.9-5c-1.6-.9-2.9-.2-2.9 1.6s1.3 4 2.9 5zM244.9 441.8c.4.2.7.7.7 1.1v5.6c0 .4-.3.6-.7.4-.4-.2-.7-.7-.7-1.1v-5.6c.1-.4.4-.6.7-.4z" class="color3EFFCC svgShape"></path><path fill="#3effcc" d="M247 444.9c.1.1.3.2.4.4 1.1 1.5 1.8 3.4 1.8 5 0 2.7-1.9 3.8-4.2 2.4-2.3-1.3-4.2-4.6-4.2-7.3 0-1.6.7-2.7 1.8-2.9.1 0 .3 0 .4.1.2.1.4.3.5.6.2.5.1.9-.2 1-.8.2-1.2.9-1.2 2 0 1.8 1.3 4.1 2.9 5 1.6.9 2.9.2 2.9-1.6 0-1.1-.4-2.3-1.2-3.4-.3-.4-.4-.9-.2-1.2.1-.2.3-.2.5-.1z" class="color3EFFCC svgShape"></path><path fill="#0c3461" d="M424.7 374.8c.8.5.8 1.2 0 1.6-.8.5-2.1.5-2.8 0-.8-.5-.8-1.2 0-1.6.8-.4 2-.4 2.8 0zM437.9 382.4c.8.5.8 1.2 0 1.6-.8.5-2.1.5-2.8 0-.8-.5-.8-1.2 0-1.6.7-.4 2-.4 2.8 0zM451 390c.8.5.8 1.2 0 1.6-.8.5-2.1.5-2.8 0-.8-.5-.8-1.2 0-1.6.8-.4 2-.4 2.8 0zM464.2 397.6c.8.5.8 1.2 0 1.6-.8.5-2.1.5-2.8 0-.8-.5-.8-1.2 0-1.6.7-.4 2-.4 2.8 0zM477.3 405.2c.8.5.8 1.2 0 1.6s-2.1.5-2.8 0c-.8-.5-.8-1.2 0-1.6.8-.4 2-.4 2.8 0zM490.5 412.8c.8.5.8 1.2 0 1.6-.8.5-2.1.5-2.8 0-.8-.5-.8-1.2 0-1.6.7-.5 2-.5 2.8 0zM503.6 420.4c.8.5.8 1.2 0 1.6-.8.5-2.1.5-2.8 0-.8-.5-.8-1.2 0-1.6.8-.5 2-.5 2.8 0zM411.7 382.4c.8.5.8 1.2 0 1.6-.8.5-2.1.5-2.8 0-.8-.5-.8-1.2 0-1.6.7-.4 2-.4 2.8 0zM424.8 390c.8.5.8 1.2 0 1.6-.8.5-2.1.5-2.8 0-.8-.5-.8-1.2 0-1.6.7-.4 2-.4 2.8 0zM438 397.6c.8.5.8 1.2 0 1.6-.8.5-2.1.5-2.8 0-.8-.5-.8-1.2 0-1.6.7-.4 2-.4 2.8 0zM451.1 405.2c.8.5.8 1.2 0 1.6-.8.5-2.1.5-2.8 0-.8-.5-.8-1.2 0-1.6.8-.4 2-.4 2.8 0zM464.3 412.8c.8.5.8 1.2 0 1.6-.8.5-2.1.5-2.8 0-.8-.5-.8-1.2 0-1.6.7-.5 2-.5 2.8 0zM477.4 420.4c.8.5.8 1.2 0 1.6-.8.5-2.1.5-2.8 0-.8-.5-.8-1.2 0-1.6.8-.5 2-.5 2.8 0zM490.6 428c.8.5.8 1.2 0 1.6-.8.5-2.1.5-2.8 0-.8-.5-.8-1.2 0-1.6.7-.5 2-.5 2.8 0zM398.6 390c.8.5.8 1.2 0 1.6-.8.5-2.1.5-2.8 0-.8-.5-.8-1.2 0-1.6.7-.4 2-.4 2.8 0zM411.7 397.6c.8.5.8 1.2 0 1.6-.8.5-2.1.5-2.8 0-.8-.5-.8-1.2 0-1.6.8-.4 2.1-.4 2.8 0zM424.9 405.2c.8.5.8 1.2 0 1.6s-2.1.5-2.8 0c-.8-.5-.8-1.2 0-1.6.7-.4 2-.4 2.8 0zM438 412.8c.8.5.8 1.2 0 1.6-.8.5-2.1.5-2.8 0-.8-.5-.8-1.2 0-1.6.8-.5 2.1-.5 2.8 0zM451.2 420.4c.8.5.8 1.2 0 1.6-.8.5-2.1.5-2.8 0-.8-.5-.8-1.2 0-1.6.7-.5 2-.5 2.8 0zM464.3 428c.8.5.8 1.2 0 1.6-.8.5-2.1.5-2.8 0-.8-.5-.8-1.2 0-1.6.8-.5 2.1-.5 2.8 0zM477.5 435.6c.8.5.8 1.2 0 1.6-.8.5-2.1.5-2.8 0-.8-.5-.8-1.2 0-1.6.7-.5 2-.5 2.8 0zM385.5 397.6c.8.5.8 1.2 0 1.6-.8.5-2.1.5-2.8 0-.8-.5-.8-1.2 0-1.6.8-.4 2-.4 2.8 0zM398.7 405.2c.8.5.8 1.2 0 1.6-.8.5-2.1.5-2.8 0-.8-.5-.8-1.2 0-1.6.7-.4 2-.4 2.8 0zM411.8 412.8c.8.5.8 1.2 0 1.6-.8.5-2.1.5-2.8 0-.8-.5-.8-1.2 0-1.6.8-.5 2-.5 2.8 0zM425 420.4c.8.5.8 1.2 0 1.6-.8.5-2.1.5-2.8 0-.8-.5-.8-1.2 0-1.6.7-.5 2-.5 2.8 0zM438.1 428c.8.5.8 1.2 0 1.6-.8.5-2.1.5-2.8 0-.8-.5-.8-1.2 0-1.6.8-.5 2-.5 2.8 0zM451.3 435.6c.8.5.8 1.2 0 1.6-.8.5-2.1.5-2.8 0-.8-.5-.8-1.2 0-1.6.7-.5 2-.5 2.8 0zM464.4 443.2c.8.5.8 1.2 0 1.6-.8.5-2.1.5-2.8 0-.8-.5-.8-1.2 0-1.6.8-.5 2-.5 2.8 0zM372.5 405.2c.8.5.8 1.2 0 1.6-.8.5-2.1.5-2.8 0-.8-.5-.8-1.2 0-1.6.7-.4 2-.4 2.8 0zM385.6 412.8c.8.5.8 1.2 0 1.6-.8.5-2.1.5-2.8 0-.8-.5-.8-1.2 0-1.6.8-.5 2-.5 2.8 0zM398.8 420.4c.8.5.8 1.2 0 1.6-.8.5-2.1.5-2.8 0-.8-.5-.8-1.2 0-1.6.7-.5 2-.5 2.8 0zM411.9 428c.8.5.8 1.2 0 1.6-.8.5-2.1.5-2.8 0-.8-.5-.8-1.2 0-1.6.8-.5 2-.5 2.8 0zM425.1 435.6c.8.5.8 1.2 0 1.6-.8.5-2.1.5-2.8 0-.8-.5-.8-1.2 0-1.6.7-.5 2-.5 2.8 0zM438.2 443.2c.8.5.8 1.2 0 1.6-.8.5-2.1.5-2.8 0-.8-.5-.8-1.2 0-1.6.8-.5 2-.5 2.8 0zM451.4 450.8c.8.5.8 1.2 0 1.6-.8.5-2.1.5-2.8 0-.8-.5-.8-1.2 0-1.6.7-.5 2-.5 2.8 0zM359.4 412.8c.8.5.8 1.2 0 1.6-.8.5-2.1.5-2.8 0-.8-.5-.8-1.2 0-1.6.7-.5 2-.5 2.8 0zM372.5 420.4c.8.5.8 1.2 0 1.6-.8.5-2.1.5-2.8 0-.8-.5-.8-1.2 0-1.6.8-.5 2.1-.5 2.8 0zM385.7 428c.8.5.8 1.2 0 1.6-.8.5-2.1.5-2.8 0-.8-.5-.8-1.2 0-1.6.7-.5 2-.5 2.8 0zM398.8 435.6c.8.5.8 1.2 0 1.6-.8.5-2.1.5-2.8 0-.8-.5-.8-1.2 0-1.6.8-.5 2.1-.5 2.8 0zM412 443.2c.8.5.8 1.2 0 1.6s-2.1.5-2.8 0c-.8-.5-.8-1.2 0-1.6.7-.5 2-.5 2.8 0zM425.1 450.8c.8.5.8 1.2 0 1.6-.8.5-2.1.5-2.8 0-.8-.5-.8-1.2 0-1.6.8-.5 2.1-.5 2.8 0zM438.3 458.4c.8.5.8 1.2 0 1.6-.8.5-2.1.5-2.8 0-.8-.5-.8-1.2 0-1.6.7-.5 2-.5 2.8 0zM470.2 548.8v1.6L597.3 477v-1.6zM470.2 552.9v1.6l127.1-73.4v-1.6zM470.2 557v1.6l127.1-73.4v-1.6zM470.2 561.1v1.6l127.1-73.4v-1.6zM470.2 565.3v1.5l127.1-73.4v-1.6z" class="color0C3461 svgShape"></path><path fill="#db8918" d="M507.2 299.4c-5.2-3-10-3.3-13.4-1.3l-4.7 2.7c3.4-2 8.2-1.7 13.4 1.3 10.4 6 18.8 20.6 18.8 32.6 0 6-2.1 10.1-5.5 12.1l4.7-2.7c3.4-2 5.5-6.2 5.5-12.1 0-12-8.4-26.5-18.8-32.6z" class="colorDB8918 svgShape"></path><ellipse cx="502.4" cy="323.9" fill="#fbc977" rx="15.4" ry="26.6" transform="rotate(-30.163 502.357 323.833)" class="colorFBC977 svgShape"></ellipse><defs><path id="a" d="m481 287.1 4.7-2.7c-2.6 1.5-4.6 3.8-6.2 6.7-.4.7-.9 1.3-1.5 1.6l-4.7 2.7c.6-.3 1.1-.9 1.5-1.6 1.6-3 3.7-5.2 6.2-6.7z" fill="#000000" class="color000 svgShape"></path></defs><clipPath id="b"><use overflow="visible" xlink:href="#a"></use></clipPath><g clip-path="url(#b)" fill="#000000" class="color000 svgShape"><path fill="#b8a925" d="m481 287.1 4.7-2.7c-2.6 1.5-4.6 3.8-6.2 6.7-.4.7-.9 1.3-1.5 1.6l-4.7 2.7c.6-.3 1.1-.9 1.5-1.6 1.6-3 3.7-5.2 6.2-6.7" class="colorB8A925 svgShape"></path></g><path fill="#db8918" d="M547.9 323.7c-3.5-11-9.1-21.8-16.1-31.2-3.5-4.7-7.4-9.1-11.5-12.9-4.1-3.8-8.5-7.1-13-9.7-4.5-2.6-8.9-4.4-13-5.3-6.2-1.4-11.8-1-16.5 1.1-.7.3-1.4.7-2.1 1.1l-4.7 2.7c.7-.4 1.4-.8 2.1-1.1 4.7-2.1 10.3-2.5 16.5-1.1 4.1.9 8.5 2.7 13 5.3 4.5 2.6 8.9 5.9 13 9.7 4.1 3.8 8 8.2 11.5 12.9 7 9.4 12.6 20.2 16.1 31.2 1.2 3.9.6 7.2-1.5 8.4l4.7-2.7c2-1.2 2.7-4.5 1.5-8.4z" class="colorDB8918 svgShape"></path><path fill="#fbc977" d="M502.5 272.7c4.5 2.6 8.9 5.9 13 9.7 4.1 3.8 8 8.2 11.5 12.9 7 9.4 12.6 20.2 16.1 31.2 1.6 5.1 0 9.1-3.7 8.8-1-.1-2-.4-2.9-1-2.7-1.6-5.4-4.9-6.6-8.7-1.8-5.5-4.3-11.1-7.5-16.2s-7-9.8-11.2-13.7c-2.8-2.6-5.7-4.8-8.8-6.6-3.1-1.8-6-3-8.8-3.6-2.8-.6-5.4-.7-7.8-.3-4.8.9-8.6 3.8-11 8.5-1.2 2.4-3.8 2.7-6.6 1.1-1-.6-2-1.4-2.9-2.4-3.6-4-5.2-9.8-3.6-13 2.6-5.2 6.5-8.9 11.2-11 4.7-2.1 10.3-2.5 16.5-1.1 4.2 1 8.6 2.8 13.1 5.4z" class="colorFBC977 svgShape"></path><defs><path id="c" d="m464.2 258.1 4.7-2.7c-2.7 1.6-5.2 3.7-7.3 6.2-.3.3-.6.6-1 .8l-4.7 2.7c.4-.2.7-.5 1-.8 2.1-2.5 4.6-4.6 7.3-6.2z" fill="#000000" class="color000 svgShape"></path></defs><clipPath id="d"><use overflow="visible" xlink:href="#c"></use></clipPath><g clip-path="url(#d)" fill="#000000" class="color000 svgShape"><path fill="#b8a925" d="m464.2 258.1 4.7-2.7c-2.7 1.6-5.2 3.7-7.3 6.2-.3.3-.6.6-1 .8l-4.7 2.7c.4-.2.7-.5 1-.8 2.1-2.5 4.6-4.6 7.3-6.2" class="colorB8A925 svgShape"></path></g><path fill="#fbc977" d="M502.6 245.3c12.1 7 23.5 17.2 33.4 29.3 9.9 12.1 18.2 26 24.2 40.5 2.1 5.1 1.1 9.6-2.2 10.1-1.2.2-2.5-.2-3.9-.9-2.4-1.4-4.7-4.1-6.1-7.3-4.8-11.4-11.4-22.5-19.2-32-7.8-9.5-16.7-17.6-26.3-23.1-9.6-5.5-18.6-7.8-26.4-7.3-7.8.5-14.5 3.9-19.3 9.8-1.4 1.7-3.7 1.7-6.1.3-1.3-.8-2.7-2-3.9-3.5-3.3-4.4-4.3-10.1-2.2-12.7 6.1-7.4 14.5-11.7 24.4-12.4 10.1-.7 21.5 2.2 33.6 9.2z" class="colorFBC977 svgShape"></path><path fill="#db8918" d="M564.9 312.4c-6-14.5-14.4-28.4-24.2-40.5-9.8-12.1-21.3-22.3-33.4-29.3-12.1-7-23.5-9.9-33.4-9.3-4.9.3-9.4 1.6-13.5 3.6-.6.3-1.2.6-1.7.9l-4.7 2.7c4.5-2.6 9.6-4.1 15.2-4.5 9.9-.7 21.3 2.3 33.4 9.3 12.1 7 23.5 17.2 33.4 29.3 9.9 12.1 18.2 26 24.2 40.5.5 1.1.8 2.2.9 3.2.1.5.1 1 .2 1.5v1.3c-.1.9-.3 1.6-.7 2.2-.3.6-.8 1.1-1.4 1.5l4.7-2.7c2.4-1.4 2.9-5.4 1-9.7z" class="colorDB8918 svgShape"></path><defs><path id="e" d="m447.4 229.1 4.7-2.7c-2.8 1.6-5.4 3.6-7.7 6-.2.2-.5.4-.7.6l-4.7 2.7c.3-.1.5-.3.7-.6 2.3-2.3 4.9-4.3 7.7-6z" fill="#000000" class="color000 svgShape"></path></defs><clipPath id="f"><use overflow="visible" xlink:href="#e"></use></clipPath><g clip-path="url(#f)" fill="#000000" class="color000 svgShape"><path fill="#b8a925" d="m447.4 229.1 4.7-2.7c-2.8 1.6-5.4 3.6-7.7 6-.2.2-.5.4-.7.6l-4.7 2.7c.3-.1.5-.3.7-.6 2.3-2.3 4.9-4.3 7.7-6" class="colorB8A925 svgShape"></path></g><path fill="#fbc977" d="M502.7 218c15.3 8.8 29.8 21.5 42.4 36.5 12.7 15 23.6 32.2 32 50.3 2.3 5 1.6 9.8-1.6 10.6-1.3.3-2.8 0-4.2-.9-2.2-1.3-4.4-3.7-5.8-6.8-7-15.3-16.3-29.9-27-42.5-10.7-12.6-22.9-23.3-35.8-30.8-12.9-7.5-25.1-10.9-35.9-10.6-10.7.2-20.1 4.1-27.2 11.2-1.4 1.4-3.6 1.3-5.8 0-1.5-.8-2.9-2.2-4.2-4-3.2-4.5-3.9-10.1-1.6-12.5 8.4-8.4 19.4-13 32.2-13.3 12.7-.1 27.2 4 42.5 12.8z" class="colorFBC977 svgShape"></path><path fill="#db8918" d="M581.8 302c-8.3-18.1-19.3-35.3-32-50.3s-27.1-27.6-42.4-36.5c-15.3-8.8-29.8-12.9-42.5-12.6-8.5.2-16.3 2.3-23 6.2l-4.7 2.7c6.7-3.9 14.5-6 23-6.2 12.7-.3 27.2 3.8 42.5 12.6s29.8 21.5 42.4 36.5c12.7 15 23.6 32.2 32 50.3 2.1 4.5 1.7 8.8-.7 10.3l4.7-2.7c2.5-1.4 2.8-5.7.7-10.3z" class="colorDB8918 svgShape"></path></svg></g></svg>